<?xml version="1.0" standalone="no"?>
<!DOCTYPE svg PUBLIC "-//W3C//DTD SVG 1.1//EN" "http://www.w3.org/Graphics/SVG/1.1/DTD/svg11.dtd">
<svg width="479" height="228" viewBox="-282 -98 479 228" xmlns="http://www.w3.org/2000/svg" version="1.1">
<title>OpenSCAD Model</title>
<path d="
M -203.2,-91.4398 L -202.54,-91.5091 L -201.909,-91.7142 L -201.333,-92.0463 L -200.84,-92.4905 L -200.45,-93.0273
 L -200.18,-93.6338 L -200.042,-94.283 L -200.042,-94.9465 L -200.18,-95.5961 L -200.45,-96.2023 L -200.84,-96.7394
 L -201.333,-97.1836 L -201.909,-97.5154 L -202.54,-97.7204 L -203.2,-97.7898 L -203.86,-97.7204 L -204.491,-97.5154
 L -205.066,-97.1836 L -205.559,-96.7394 L -205.949,-96.2023 L -206.22,-95.5961 L -206.358,-94.9465 L -206.358,-94.283
 L -206.22,-93.6338 L -205.949,-93.0273 L -205.559,-92.4905 L -205.066,-92.0463 L -204.491,-91.7142 L -203.86,-91.5091
 z
M 194.335,-83.2542 L 194.966,-83.4592 L 195.541,-83.791 L 196.034,-84.2352 L 196.424,-84.7723 L 196.695,-85.3785
 L 196.833,-86.0281 L 196.833,-86.6916 L 196.695,-87.3408 L 196.424,-87.9473 L 196.034,-88.4841 L 195.541,-88.9283
 L 194.966,-89.2604 L 194.335,-89.4655 L 193.675,-89.5348 L 193.015,-89.4655 L 192.384,-89.2604 L 191.808,-88.9283
 L 191.315,-88.4841 L 190.925,-87.9473 L 190.655,-87.3408 L 190.517,-86.6916 L 190.517,-86.0281 L 190.655,-85.3785
 L 190.925,-84.7723 L 191.315,-84.2352 L 191.808,-83.791 L 192.384,-83.4592 L 193.015,-83.2542 L 193.675,-83.1848
 z
M 194.335,-68.0141 L 194.966,-68.2195 L 195.541,-68.5512 L 196.034,-68.9954 L 196.424,-69.5322 L 196.695,-70.1387
 L 196.833,-70.7879 L 196.833,-71.4518 L 196.695,-72.101 L 196.424,-72.7072 L 196.034,-73.2444 L 195.541,-73.6885
 L 194.966,-74.0203 L 194.335,-74.2253 L 193.675,-74.2947 L 193.015,-74.2253 L 192.384,-74.0203 L 191.808,-73.6885
 L 191.315,-73.2444 L 190.925,-72.7072 L 190.655,-72.101 L 190.517,-71.4518 L 190.517,-70.7879 L 190.655,-70.1387
 L 190.925,-69.5322 L 191.315,-68.9954 L 191.808,-68.5512 L 192.384,-68.2195 L 193.015,-68.0141 L 193.675,-67.9447
 z
M -25.4,-66.0398 L -24.7396,-66.1091 L -24.1086,-66.3142 L -23.5334,-66.6463 L -23.0405,-67.0905 L -22.6502,-67.6273
 L -22.38,-68.2338 L -22.2421,-68.883 L -22.2421,-69.5465 L -22.38,-70.1961 L -22.6502,-70.8023 L -23.0405,-71.3394
 L -23.5334,-71.7836 L -24.1086,-72.1154 L -24.7396,-72.3204 L -25.4,-72.3898 L -26.06,-72.3204 L -26.691,-72.1154
 L -27.2662,-71.7836 L -27.7592,-71.3394 L -28.1494,-70.8023 L -28.4196,-70.1961 L -28.5576,-69.5465 L -28.5576,-68.883
 L -28.4196,-68.2338 L -28.1494,-67.6273 L -27.7592,-67.0905 L -27.2662,-66.6463 L -26.691,-66.3142 L -26.06,-66.1091
 z
M -203.2,-66.0398 L -202.54,-66.1091 L -201.909,-66.3142 L -201.333,-66.6463 L -200.84,-67.0905 L -200.45,-67.6273
 L -200.18,-68.2338 L -200.042,-68.883 L -200.042,-69.5465 L -200.18,-70.1961 L -200.45,-70.8023 L -200.84,-71.3394
 L -201.333,-71.7836 L -201.909,-72.1154 L -202.54,-72.3204 L -203.2,-72.3898 L -203.86,-72.3204 L -204.491,-72.1154
 L -205.066,-71.7836 L -205.559,-71.3394 L -205.949,-70.8023 L -206.22,-70.1961 L -206.358,-69.5465 L -206.358,-68.883
 L -206.22,-68.2338 L -205.949,-67.6273 L -205.559,-67.0905 L -205.066,-66.6463 L -204.491,-66.3142 L -203.86,-66.1091
 z
M -25.4,-40.6398 L -24.7396,-40.7091 L -24.1086,-40.9142 L -23.5334,-41.2463 L -23.0405,-41.6905 L -22.6502,-42.2273
 L -22.38,-42.8338 L -22.2421,-43.483 L -22.2421,-44.1465 L -22.38,-44.7961 L -22.6502,-45.4023 L -23.0405,-45.9394
 L -23.5334,-46.3836 L -24.1086,-46.7154 L -24.7396,-46.9204 L -25.4,-46.9898 L -26.06,-46.9204 L -26.691,-46.7154
 L -27.2662,-46.3836 L -27.7592,-45.9394 L -28.1494,-45.4023 L -28.4196,-44.7961 L -28.5576,-44.1465 L -28.5576,-43.483
 L -28.4196,-42.8338 L -28.1494,-42.2273 L -27.7592,-41.6905 L -27.2662,-41.2463 L -26.691,-40.9142 L -26.06,-40.7091
 z
M -203.2,-40.6398 L -202.54,-40.7091 L -201.909,-40.9142 L -201.333,-41.2463 L -200.84,-41.6905 L -200.45,-42.2273
 L -200.18,-42.8338 L -200.042,-43.483 L -200.042,-44.1465 L -200.18,-44.7961 L -200.45,-45.4023 L -200.84,-45.9394
 L -201.333,-46.3836 L -201.909,-46.7154 L -202.54,-46.9204 L -203.2,-46.9898 L -203.86,-46.9204 L -204.491,-46.7154
 L -205.066,-46.3836 L -205.559,-45.9394 L -205.949,-45.4023 L -206.22,-44.7961 L -206.358,-44.1465 L -206.358,-43.483
 L -206.22,-42.8338 L -205.949,-42.2273 L -205.559,-41.6905 L -205.066,-41.2463 L -204.491,-40.9142 L -203.86,-40.7091
 z
M -203.2,-15.2398 L -202.54,-15.3091 L -201.909,-15.5142 L -201.333,-15.8463 L -200.84,-16.2905 L -200.45,-16.8273
 L -200.18,-17.4338 L -200.042,-18.083 L -200.042,-18.7465 L -200.18,-19.3961 L -200.45,-20.0023 L -200.84,-20.5394
 L -201.333,-20.9836 L -201.909,-21.3154 L -202.54,-21.5204 L -203.2,-21.5898 L -203.86,-21.5204 L -204.491,-21.3154
 L -205.066,-20.9836 L -205.559,-20.5394 L -205.949,-20.0023 L -206.22,-19.3961 L -206.358,-18.7465 L -206.358,-18.083
 L -206.22,-17.4338 L -205.949,-16.8273 L -205.559,-16.2905 L -205.066,-15.8463 L -204.491,-15.5142 L -203.86,-15.3091
 z
M -25.4,10.1598 L -24.7396,10.0905 L -24.1086,9.88544 L -23.5334,9.55329 L -23.0405,9.10913 L -22.6502,8.57234
 L -22.38,7.96579 L -22.2421,7.31661 L -22.2421,6.65308 L -22.38,6.00351 L -22.6502,5.39734 L -23.0405,4.86017
 L -23.5334,4.41601 L -24.1086,4.08425 L -24.7396,3.87922 L -25.4,3.80984 L -26.06,3.87922 L -26.691,4.08425
 L -27.2662,4.41601 L -27.7592,4.86017 L -28.1494,5.39734 L -28.4196,6.00351 L -28.5576,6.65308 L -28.5576,7.31661
 L -28.4196,7.96579 L -28.1494,8.57234 L -27.7592,9.10913 L -27.2662,9.55329 L -26.691,9.88544 L -26.06,10.0905
 z
M -203.2,10.1598 L -202.54,10.0905 L -201.909,9.88544 L -201.333,9.55329 L -200.84,9.10913 L -200.45,8.57234
 L -200.18,7.96579 L -200.042,7.31661 L -200.042,6.65308 L -200.18,6.00351 L -200.45,5.39734 L -200.84,4.86017
 L -201.333,4.41601 L -201.909,4.08425 L -202.54,3.87922 L -203.2,3.80984 L -203.86,3.87922 L -204.491,4.08425
 L -205.066,4.41601 L -205.559,4.86017 L -205.949,5.39734 L -206.22,6.00351 L -206.358,6.65308 L -206.358,7.31661
 L -206.22,7.96579 L -205.949,8.57234 L -205.559,9.10913 L -205.066,9.55329 L -204.491,9.88544 L -203.86,10.0905
 z
M -203.2,35.5598 L -202.54,35.4905 L -201.909,35.2854 L -201.333,34.9533 L -200.84,34.5091 L -200.45,33.9723
 L -200.18,33.3658 L -200.042,32.7166 L -200.042,32.0531 L -200.18,31.4035 L -200.45,30.7973 L -200.84,30.2602
 L -201.333,29.816 L -201.909,29.4842 L -202.54,29.2792 L -203.2,29.2098 L -203.86,29.2792 L -204.491,29.4842
 L -205.066,29.816 L -205.559,30.2602 L -205.949,30.7973 L -206.22,31.4035 L -206.358,32.0531 L -206.358,32.7166
 L -206.22,33.3658 L -205.949,33.9723 L -205.559,34.5091 L -205.066,34.9533 L -204.491,35.2854 L -203.86,35.4905
 z
M -96.4945,46.2096 L -95.8387,46.1057 L -95.2194,45.8677 L -94.6624,45.5065 L -94.1931,45.0372 L -93.8319,44.4802
 L -93.5939,43.8609 L -93.49,43.2051 L -93.5249,42.5424 L -93.6966,41.9013 L -93.9978,41.3099 L -94.4156,40.794
 L -94.9314,40.3762 L -95.5229,40.0747 L -96.1639,39.903 L -96.8266,39.8681 L -97.4824,39.972 L -98.1022,40.2099
 L -98.6587,40.5716 L -99.1281,41.0409 L -99.4897,41.5975 L -99.7276,42.2172 L -99.8315,42.873 L -99.7966,43.5357
 L -99.6249,44.1768 L -99.3234,44.7682 L -98.9056,45.2841 L -98.3897,45.7019 L -97.7983,46.003 L -97.1572,46.1747
 z
M 68.5799,55.8799 L 69.24,55.8105 L 69.8713,55.6051 L 70.4461,55.2734 L 70.9395,54.8292 L 71.3294,54.2924
 L 71.5995,53.6859 L 71.7375,53.0367 L 71.7375,52.3728 L 71.5995,51.7236 L 71.3294,51.1174 L 70.9395,50.5802
 L 70.4461,50.1361 L 69.8713,49.8043 L 69.24,49.5993 L 68.5799,49.5299 L 67.9195,49.5993 L 67.2885,49.8043
 L 66.7138,50.1361 L 66.2204,50.5802 L 65.8301,51.1174 L 65.5603,51.7236 L 65.4224,52.3728 L 65.4224,53.0367
 L 65.5603,53.6859 L 65.8301,54.2924 L 66.2204,54.8292 L 66.7138,55.2734 L 67.2885,55.6051 L 67.9195,55.8105
 z
M 152.4,55.8799 L 153.06,55.8105 L 153.691,55.6051 L 154.266,55.2734 L 154.759,54.8292 L 155.149,54.2924
 L 155.42,53.6859 L 155.558,53.0367 L 155.558,52.3728 L 155.42,51.7236 L 155.149,51.1174 L 154.759,50.5802
 L 154.266,50.1361 L 153.691,49.8043 L 153.06,49.5993 L 152.4,49.5299 L 151.74,49.5993 L 151.109,49.8043
 L 150.533,50.1361 L 150.04,50.5802 L 149.65,51.1174 L 149.38,51.7236 L 149.242,52.3728 L 149.242,53.0367
 L 149.38,53.6859 L 149.65,54.2924 L 150.04,54.8292 L 150.533,55.2734 L 151.109,55.6051 L 151.74,55.8105
 z
M -203.2,60.9598 L -202.54,60.8905 L -201.909,60.6854 L -201.333,60.3533 L -200.84,59.9091 L -200.45,59.3723
 L -200.18,58.7658 L -200.042,58.1166 L -200.042,57.4531 L -200.18,56.8035 L -200.45,56.1973 L -200.84,55.6602
 L -201.333,55.216 L -201.909,54.8842 L -202.54,54.6792 L -203.2,54.6098 L -203.86,54.6792 L -204.491,54.8842
 L -205.066,55.216 L -205.559,55.6602 L -205.949,56.1973 L -206.22,56.8035 L -206.358,57.4531 L -206.358,58.1166
 L -206.22,58.7658 L -205.949,59.3723 L -205.559,59.9091 L -205.066,60.3533 L -204.491,60.6854 L -203.86,60.8905
 z
M -203.2,86.3598 L -202.54,86.2905 L -201.909,86.0854 L -201.333,85.7533 L -200.84,85.3091 L -200.45,84.7723
 L -200.18,84.1658 L -200.042,83.5166 L -200.042,82.8531 L -200.18,82.2035 L -200.45,81.5973 L -200.84,81.0602
 L -201.333,80.616 L -201.909,80.2842 L -202.54,80.0792 L -203.2,80.0098 L -203.86,80.0792 L -204.491,80.2842
 L -205.066,80.616 L -205.559,81.0602 L -205.949,81.5973 L -206.22,82.2035 L -206.358,82.8531 L -206.358,83.5166
 L -206.22,84.1658 L -205.949,84.7723 L -205.559,85.3091 L -205.066,85.7533 L -204.491,86.0854 L -203.86,86.2905
 z
M -279.146,127 L -276.86,127 L -276.86,126.746 L -279.146,126.746 L -279.146,124.46 L -279.4,124.46
 L -279.4,126.746 L -281.94,126.746 L -281.94,127 L -279.4,127 L -279.4,129.54 L -279.146,129.54
 z
" stroke="black" fill="lightgray" stroke-width="0.5"/></svg>
