<?xml version="1.0" encoding="UTF-8" standalone="no"?>
<svg
   xmlns:dc="http://purl.org/dc/elements/1.1/"
   xmlns:cc="http://creativecommons.org/ns#"
   xmlns:rdf="http://www.w3.org/1999/02/22-rdf-syntax-ns#"
   xmlns:svg="http://www.w3.org/2000/svg"
   xmlns="http://www.w3.org/2000/svg"
   xmlns:sodipodi="http://sodipodi.sourceforge.net/DTD/sodipodi-0.dtd"
   xmlns:inkscape="http://www.inkscape.org/namespaces/inkscape"
   width="530mm"
   height="270mm"
   viewBox="-282 -140 530 270"
   version="1.1"
   id="svg2"
   inkscape:version="0.91 r13725"
   sodipodi:docname="CastlegateHoles.svg">
  <metadata
     id="metadata12">
    <rdf:RDF>
      <cc:Work
         rdf:about="">
        <dc:format>image/svg+xml</dc:format>
        <dc:type
           rdf:resource="http://purl.org/dc/dcmitype/StillImage" />
      </cc:Work>
    </rdf:RDF>
  </metadata>
  <defs
     id="defs10" />
  <sodipodi:namedview
     pagecolor="#ffffff"
     bordercolor="#666666"
     borderopacity="1"
     objecttolerance="10"
     gridtolerance="10"
     guidetolerance="10"
     inkscape:pageopacity="0"
     inkscape:pageshadow="2"
     inkscape:window-width="1346"
     inkscape:window-height="786"
     id="namedview8"
     showgrid="false"
     inkscape:zoom="1.66"
     inkscape:cx="938.97638"
     inkscape:cy="478.34646"
     inkscape:window-x="0"
     inkscape:window-y="0"
     inkscape:window-maximized="0"
     inkscape:current-layer="svg2" />
  <title
     id="title4">OpenSCAD Model</title>
  <path
     d=" M 247.777,-139.7 L 247.65,-139.7 L 247.65,-139.827 L -247.65,-139.827 L -247.65,101.6 L 247.777,101.6  z M -247.396,101.346 L -247.396,-139.573 L 247.523,-139.573 L 247.523,101.346 z M -184.532,-100.377 L -184.112,-100.844 L -183.917,-101.442 L -183.983,-102.067 L -184.297,-102.611 L -184.806,-102.981  L -185.42,-103.111 L -186.035,-102.981 L -186.544,-102.611 L -186.858,-102.067 L -186.923,-101.442 L -186.729,-100.844  L -186.309,-100.377 L -185.735,-100.122 L -185.106,-100.122 z M -188.088,-100.377 L -187.668,-100.844 L -187.473,-101.442 L -187.539,-102.067 L -187.853,-102.611 L -188.362,-102.981  L -188.976,-103.111 L -189.591,-102.981 L -190.1,-102.611 L -190.414,-102.067 L -190.479,-101.442 L -190.285,-100.844  L -189.865,-100.377 L -189.291,-100.122 L -188.662,-100.122 z M 194.563,-100.377 L 194.983,-100.844 L 195.178,-101.442 L 195.112,-102.067 L 194.798,-102.611 L 194.29,-102.981  L 193.675,-103.111 L 193.06,-102.981 L 192.552,-102.611 L 192.237,-102.067 L 192.172,-101.442 L 192.366,-100.844  L 192.786,-100.377 L 193.361,-100.121 L 193.989,-100.121 z M -220.092,-100.377 L -219.671,-100.844 L -219.477,-101.442 L -219.543,-102.067 L -219.857,-102.611 L -220.365,-102.981  L -220.98,-103.111 L -221.595,-102.981 L -222.103,-102.611 L -222.417,-102.067 L -222.483,-101.442 L -222.288,-100.844  L -221.868,-100.377 L -221.294,-100.122 L -220.666,-100.122 z M -216.536,-100.377 L -216.115,-100.844 L -215.921,-101.442 L -215.987,-102.067 L -216.301,-102.611 L -216.809,-102.981  L -217.424,-103.111 L -218.039,-102.981 L -218.547,-102.611 L -218.861,-102.067 L -218.927,-101.442 L -218.733,-100.844  L -218.312,-100.377 L -217.738,-100.122 L -217.11,-100.122 z M -212.98,-100.377 L -212.559,-100.844 L -212.365,-101.442 L -212.431,-102.067 L -212.745,-102.611 L -213.253,-102.981  L -213.868,-103.111 L -214.483,-102.981 L -214.991,-102.611 L -215.305,-102.067 L -215.371,-101.442 L -215.177,-100.844  L -214.756,-100.377 L -214.182,-100.122 L -213.554,-100.122 z M -209.424,-100.377 L -209.003,-100.844 L -208.809,-101.442 L -208.875,-102.067 L -209.189,-102.611 L -209.697,-102.981  L -210.312,-103.111 L -210.927,-102.981 L -211.435,-102.611 L -211.749,-102.067 L -211.815,-101.442 L -211.621,-100.844  L -211.2,-100.377 L -210.626,-100.122 L -209.998,-100.122 z M -205.868,-100.377 L -205.447,-100.844 L -205.253,-101.442 L -205.319,-102.067 L -205.633,-102.611 L -206.141,-102.981  L -206.756,-103.111 L -207.371,-102.981 L -207.879,-102.611 L -208.193,-102.067 L -208.259,-101.442 L -208.065,-100.844  L -207.644,-100.377 L -207.07,-100.122 L -206.442,-100.122 z M -202.312,-100.377 L -201.892,-100.844 L -201.697,-101.442 L -201.763,-102.067 L -202.077,-102.611 L -202.586,-102.981  L -203.2,-103.111 L -203.815,-102.981 L -204.323,-102.611 L -204.638,-102.067 L -204.703,-101.442 L -204.509,-100.844  L -204.088,-100.377 L -203.514,-100.122 L -202.886,-100.122 z M -198.756,-100.377 L -198.336,-100.844 L -198.141,-101.442 L -198.207,-102.067 L -198.521,-102.611 L -199.03,-102.981  L -199.644,-103.111 L -200.259,-102.981 L -200.768,-102.611 L -201.082,-102.067 L -201.147,-101.442 L -200.953,-100.844  L -200.533,-100.377 L -199.959,-100.122 L -199.33,-100.122 z M -195.2,-100.377 L -194.78,-100.844 L -194.585,-101.442 L -194.651,-102.067 L -194.965,-102.611 L -195.474,-102.981  L -196.088,-103.111 L -196.703,-102.981 L -197.212,-102.611 L -197.526,-102.067 L -197.591,-101.442 L -197.397,-100.844  L -196.977,-100.377 L -196.403,-100.122 L -195.774,-100.122 z M -191.644,-100.377 L -191.224,-100.844 L -191.029,-101.442 L -191.095,-102.067 L -191.409,-102.611 L -191.918,-102.981  L -192.532,-103.111 L -193.147,-102.981 L -193.656,-102.611 L -193.97,-102.067 L -194.035,-101.442 L -193.841,-100.844  L -193.421,-100.377 L -192.847,-100.122 L -192.218,-100.122 z M -202.54,-91.5091 L -201.909,-91.7146 L -201.334,-92.0463 L -200.841,-92.4905 L -200.451,-93.0273 L -200.18,-93.6338  L -200.042,-94.283 L -200.042,-94.9469 L -200.18,-95.5961 L -200.451,-96.2023 L -200.841,-96.7394 L -201.334,-97.1836  L -201.909,-97.5154 L -202.54,-97.7204 L -203.2,-97.7898 L -203.86,-97.7204 L -204.491,-97.5154 L -205.066,-97.1836  L -205.559,-96.7394 L -205.949,-96.2023 L -206.22,-95.5961 L -206.358,-94.9469 L -206.358,-94.283 L -206.22,-93.6338  L -205.949,-93.0273 L -205.559,-92.4905 L -205.066,-92.0463 L -204.491,-91.7146 L -203.86,-91.5091 L -203.2,-91.4398  z M 194.335,-83.2542 L 194.966,-83.4592 L 195.541,-83.791 L 196.034,-84.2352 L 196.424,-84.7723 L 196.695,-85.3785  L 196.833,-86.0281 L 196.833,-86.6916 L 196.695,-87.3408 L 196.424,-87.9473 L 196.034,-88.4841 L 195.541,-88.9283  L 194.966,-89.2604 L 194.335,-89.4655 L 193.675,-89.5348 L 193.015,-89.4655 L 192.384,-89.2604 L 191.808,-88.9283  L 191.315,-88.4841 L 190.925,-87.9473 L 190.655,-87.3408 L 190.517,-86.6916 L 190.517,-86.0281 L 190.655,-85.3785  L 190.925,-84.7723 L 191.315,-84.2352 L 191.808,-83.791 L 192.384,-83.4592 L 193.015,-83.2542 L 193.675,-83.1848  z M -159.132,-82.5977 L -158.711,-83.0647 L -158.517,-83.6623 L -158.583,-84.2871 L -158.897,-84.8316 L -159.405,-85.201  L -160.02,-85.3316 L -160.635,-85.201 L -161.143,-84.8316 L -161.458,-84.2871 L -161.523,-83.6623 L -161.329,-83.0647  L -160.908,-82.5977 L -160.334,-82.3419 L -159.706,-82.3419 z M -161.672,-74.9776 L -161.251,-75.4446 L -161.057,-76.0423 L -161.123,-76.667 L -161.437,-77.2116 L -161.946,-77.5809  L -162.56,-77.7115 L -163.175,-77.5809 L -163.683,-77.2116 L -163.997,-76.667 L -164.063,-76.0423 L -163.869,-75.4446  L -163.449,-74.9776 L -162.875,-74.7218 L -162.246,-74.7218 z M -220.092,-74.9772 L -219.671,-75.4442 L -219.477,-76.0419 L -219.543,-76.667 L -219.857,-77.2112 L -220.365,-77.5805  L -220.98,-77.7111 L -221.595,-77.5805 L -222.103,-77.2112 L -222.417,-76.667 L -222.483,-76.0419 L -222.288,-75.4442  L -221.868,-74.9772 L -221.294,-74.7218 L -220.666,-74.7218 z M -10.2881,-74.9776 L -9.86761,-75.4446 L -9.67344,-76.0423 L -9.73933,-76.667 L -10.0533,-77.2112 L -10.5618,-77.5805  L -11.1764,-77.7111 L -11.7911,-77.5805 L -12.2996,-77.2112 L -12.614,-76.667 L -12.6795,-76.0423 L -12.4853,-75.4446  L -12.0648,-74.9776 L -11.4908,-74.7222 L -10.8621,-74.7222 z M -6.73215,-74.9776 L -6.31163,-75.4446 L -6.11746,-76.0423 L -6.18334,-76.667 L -6.49728,-77.2112 L -7.00577,-77.5805  L -7.62047,-77.7111 L -8.23516,-77.5805 L -8.74365,-77.2112 L -9.05797,-76.667 L -9.12347,-76.0423 L -8.9293,-75.4446  L -8.50878,-74.9776 L -7.93479,-74.7222 L -7.30614,-74.7222 z M -13.8441,-74.9776 L -13.4236,-75.4446 L -13.2294,-76.0423 L -13.2953,-76.667 L -13.6092,-77.2112 L -14.1177,-77.5805  L -14.7324,-77.7111 L -15.3471,-77.5805 L -15.8556,-77.2112 L -16.1699,-76.667 L -16.2354,-76.0423 L -16.0413,-75.4446  L -15.6208,-74.9776 L -15.0468,-74.7222 L -14.4181,-74.7222 z M -17.4001,-74.9776 L -16.9796,-75.4446 L -16.7854,-76.0423 L -16.8513,-76.667 L -17.1652,-77.2112 L -17.6737,-77.5805  L -18.2884,-77.7111 L -18.9031,-77.5805 L -19.4116,-77.2112 L -19.7259,-76.667 L -19.7914,-76.0423 L -19.5973,-75.4446  L -19.1767,-74.9776 L -18.6027,-74.7222 L -17.9741,-74.7222 z M -20.9561,-74.9776 L -20.5356,-75.4446 L -20.3414,-76.0423 L -20.4073,-76.667 L -20.7212,-77.2112 L -21.2297,-77.5805  L -21.8444,-77.7111 L -22.4591,-77.5805 L -22.9676,-77.2112 L -23.2819,-76.667 L -23.3474,-76.0423 L -23.1532,-75.4446  L -22.7327,-74.9776 L -22.1587,-74.7222 L -21.5305,-74.7222 z M -24.5121,-74.9776 L -24.0916,-75.4446 L -23.8974,-76.0423 L -23.9633,-76.667 L -24.2772,-77.2112 L -24.7857,-77.5805  L -25.4,-77.7111 L -26.0147,-77.5805 L -26.5232,-77.2112 L -26.8375,-76.667 L -26.903,-76.0423 L -26.7088,-75.4446  L -26.2883,-74.9776 L -25.7143,-74.7222 L -25.0865,-74.7222 z M -28.0677,-74.9776 L -27.6471,-75.4446 L -27.453,-76.0423 L -27.5189,-76.667 L -27.8332,-77.2112 L -28.3413,-77.5805  L -28.956,-77.7111 L -29.5707,-77.5805 L -30.0792,-77.2112 L -30.3935,-76.667 L -30.459,-76.0423 L -30.2648,-75.4446  L -29.8443,-74.9776 L -29.2703,-74.7222 L -28.6421,-74.7222 z M -31.6237,-74.9776 L -31.2031,-75.4446 L -31.009,-76.0423 L -31.0748,-76.667 L -31.3892,-77.2112 L -31.8973,-77.5805  L -32.512,-77.7111 L -33.1267,-77.5805 L -33.6352,-77.2112 L -33.9495,-76.667 L -34.015,-76.0423 L -33.8208,-75.4446  L -33.4003,-74.9776 L -32.8263,-74.7222 L -32.198,-74.7222 z M -35.1796,-74.9776 L -34.7591,-75.4446 L -34.5649,-76.0423 L -34.6308,-76.667 L -34.9452,-77.2112 L -35.4533,-77.5805  L -36.068,-77.7111 L -36.6826,-77.5805 L -37.1911,-77.2112 L -37.5055,-76.667 L -37.571,-76.0423 L -37.3768,-75.4446  L -36.9563,-74.9776 L -36.3823,-74.7222 L -35.754,-74.7222 z M -38.7356,-74.9776 L -38.3151,-75.4446 L -38.1209,-76.0423 L -38.1868,-76.667 L -38.5011,-77.2112 L -39.0092,-77.5805  L -39.6239,-77.7111 L -40.2386,-77.5805 L -40.7471,-77.2112 L -41.0614,-76.667 L -41.1269,-76.0423 L -40.9328,-75.4446  L -40.5123,-74.9776 L -39.9383,-74.7222 L -39.31,-74.7222 z M -42.2916,-74.9776 L -41.8715,-75.4446 L -41.6769,-76.0423 L -41.7428,-76.667 L -42.0571,-77.2112 L -42.5652,-77.5805  L -43.1799,-77.7111 L -43.7946,-77.5805 L -44.3027,-77.2112 L -44.617,-76.667 L -44.6829,-76.0423 L -44.4884,-75.4446  L -44.0682,-74.9776 L -43.4939,-74.7222 L -42.866,-74.7222 z M -184.532,-74.9772 L -184.112,-75.4442 L -183.917,-76.0419 L -183.983,-76.667 L -184.297,-77.2112 L -184.806,-77.5805  L -185.42,-77.7111 L -186.035,-77.5805 L -186.544,-77.2112 L -186.858,-76.667 L -186.923,-76.0419 L -186.729,-75.4442  L -186.309,-74.9772 L -185.735,-74.7218 L -185.106,-74.7218 z M -188.088,-74.9772 L -187.668,-75.4442 L -187.473,-76.0419 L -187.539,-76.667 L -187.853,-77.2112 L -188.362,-77.5805  L -188.976,-77.7111 L -189.591,-77.5805 L -190.1,-77.2112 L -190.414,-76.667 L -190.479,-76.0419 L -190.285,-75.4442  L -189.865,-74.9772 L -189.291,-74.7218 L -188.662,-74.7218 z M -191.644,-74.9772 L -191.224,-75.4442 L -191.029,-76.0419 L -191.095,-76.667 L -191.409,-77.2112 L -191.918,-77.5805  L -192.532,-77.7111 L -193.147,-77.5805 L -193.656,-77.2112 L -193.97,-76.667 L -194.035,-76.0419 L -193.841,-75.4442  L -193.421,-74.9772 L -192.847,-74.7218 L -192.218,-74.7218 z M -195.2,-74.9772 L -194.78,-75.4442 L -194.585,-76.0419 L -194.651,-76.667 L -194.965,-77.2112 L -195.474,-77.5805  L -196.088,-77.7111 L -196.703,-77.5805 L -197.212,-77.2112 L -197.526,-76.667 L -197.591,-76.0419 L -197.397,-75.4442  L -196.977,-74.9772 L -196.403,-74.7218 L -195.774,-74.7218 z M -198.756,-74.9772 L -198.336,-75.4442 L -198.141,-76.0419 L -198.207,-76.667 L -198.521,-77.2112 L -199.03,-77.5805  L -199.644,-77.7111 L -200.259,-77.5805 L -200.768,-77.2112 L -201.082,-76.667 L -201.147,-76.0419 L -200.953,-75.4442  L -200.533,-74.9772 L -199.959,-74.7218 L -199.33,-74.7218 z M -202.312,-74.9772 L -201.892,-75.4442 L -201.697,-76.0419 L -201.763,-76.667 L -202.077,-77.2112 L -202.586,-77.5805  L -203.2,-77.7111 L -203.815,-77.5805 L -204.323,-77.2112 L -204.638,-76.667 L -204.703,-76.0419 L -204.509,-75.4442  L -204.088,-74.9772 L -203.514,-74.7218 L -202.886,-74.7218 z M -205.868,-74.9772 L -205.447,-75.4442 L -205.253,-76.0419 L -205.319,-76.667 L -205.633,-77.2112 L -206.141,-77.5805  L -206.756,-77.7111 L -207.371,-77.5805 L -207.879,-77.2112 L -208.193,-76.667 L -208.259,-76.0419 L -208.065,-75.4442  L -207.644,-74.9772 L -207.07,-74.7218 L -206.442,-74.7218 z M -209.424,-74.9772 L -209.003,-75.4442 L -208.809,-76.0419 L -208.875,-76.667 L -209.189,-77.2112 L -209.697,-77.5805  L -210.312,-77.7111 L -210.927,-77.5805 L -211.435,-77.2112 L -211.749,-76.667 L -211.815,-76.0419 L -211.621,-75.4442  L -211.2,-74.9772 L -210.626,-74.7218 L -209.998,-74.7218 z M -212.98,-74.9772 L -212.559,-75.4442 L -212.365,-76.0419 L -212.431,-76.667 L -212.745,-77.2112 L -213.253,-77.5805  L -213.868,-77.7111 L -214.483,-77.5805 L -214.991,-77.2112 L -215.305,-76.667 L -215.371,-76.0419 L -215.177,-75.4442  L -214.756,-74.9772 L -214.182,-74.7218 L -213.554,-74.7218 z M -216.536,-74.9772 L -216.115,-75.4442 L -215.921,-76.0419 L -215.987,-76.667 L -216.301,-77.2112 L -216.809,-77.5805  L -217.424,-77.7111 L -218.039,-77.5805 L -218.547,-77.2112 L -218.861,-76.667 L -218.927,-76.0419 L -218.733,-75.4442  L -218.312,-74.9772 L -217.738,-74.7218 L -217.11,-74.7218 z M -65.4255,-74.8195 L -64.917,-75.1888 L -64.603,-75.7334 L -64.5371,-76.3577 L -64.7313,-76.9554 L -65.1518,-77.4224  L -65.7258,-77.6782 L -66.3545,-77.6782 L -66.9285,-77.4224 L -67.349,-76.9554 L -67.5432,-76.3577 L -67.4777,-75.7334  L -67.1633,-75.1888 L -66.6548,-74.8195 L -66.0402,-74.6889 z M 194.335,-68.0141 L 194.966,-68.2195 L 195.541,-68.5512 L 196.034,-68.9954 L 196.424,-69.5322 L 196.695,-70.1387  L 196.833,-70.7879 L 196.833,-71.4518 L 196.695,-72.101 L 196.424,-72.7072 L 196.034,-73.2444 L 195.541,-73.6885  L 194.966,-74.0203 L 194.335,-74.2253 L 193.675,-74.2947 L 193.015,-74.2253 L 192.384,-74.0203 L 191.808,-73.6885  L 191.315,-73.2444 L 190.925,-72.7072 L 190.655,-72.101 L 190.517,-71.4518 L 190.517,-70.7879 L 190.655,-70.1387  L 190.925,-69.5322 L 191.315,-68.9954 L 191.808,-68.5512 L 192.384,-68.2195 L 193.015,-68.0141 L 193.675,-67.9447  z M -24.74,-66.1095 L -24.109,-66.3149 L -23.5338,-66.6467 L -23.0408,-67.0909 L -22.6506,-67.6277 L -22.3804,-68.2342  L -22.2424,-68.8834 L -22.2424,-69.5473 L -22.3804,-70.1965 L -22.6506,-70.8027 L -23.0408,-71.3398 L -23.5338,-71.784  L -24.109,-72.1158 L -24.74,-72.3208 L -25.4,-72.3902 L -26.06,-72.3208 L -26.691,-72.1158 L -27.2662,-71.784  L -27.7592,-71.3398 L -28.1494,-70.8027 L -28.4196,-70.1965 L -28.5576,-69.5473 L -28.5576,-68.8834 L -28.4196,-68.2342  L -28.1494,-67.6277 L -27.7592,-67.0909 L -27.2662,-66.6467 L -26.691,-66.3149 L -26.06,-66.1095 L -25.4,-66.0402  z M -202.54,-66.1091 L -201.909,-66.3146 L -201.334,-66.6463 L -200.841,-67.0905 L -200.451,-67.6273 L -200.18,-68.2338  L -200.042,-68.883 L -200.042,-69.5469 L -200.18,-70.1961 L -200.451,-70.8023 L -200.841,-71.3394 L -201.334,-71.7836  L -201.909,-72.1154 L -202.54,-72.3204 L -203.2,-72.3898 L -203.86,-72.3204 L -204.491,-72.1154 L -205.066,-71.7836  L -205.559,-71.3394 L -205.949,-70.8023 L -206.22,-70.1961 L -206.358,-69.5469 L -206.358,-68.883 L -206.22,-68.2338  L -205.949,-67.6273 L -205.559,-67.0905 L -205.066,-66.6463 L -204.491,-66.3146 L -203.86,-66.1091 L -203.2,-66.0398  z M -67.9656,-67.1994 L -67.4571,-67.5687 L -67.1428,-68.1133 L -67.0773,-68.7381 L -67.2715,-69.3357 L -67.692,-69.8027  L -68.266,-70.0585 L -68.8942,-70.0585 L -69.4686,-69.8027 L -69.8891,-69.3357 L -70.0833,-68.7381 L -70.0174,-68.1133  L -69.7035,-67.5687 L -69.195,-67.1994 L -68.5803,-67.0688 z M -57.5318,-57.1977 L -57.1112,-57.6647 L -56.9171,-58.2623 L -56.983,-58.8871 L -57.2969,-59.4316 L -57.8054,-59.801  L -58.4201,-59.9316 L -59.0348,-59.801 L -59.5433,-59.4316 L -59.8576,-58.8871 L -59.9231,-58.2623 L -59.7289,-57.6647  L -59.3084,-57.1977 L -58.7344,-56.9419 L -58.1061,-56.9419 z M -60.0719,-49.5776 L -59.6514,-50.0446 L -59.4572,-50.6423 L -59.5227,-51.267 L -59.837,-51.8116 L -60.3455,-52.1809  L -60.9602,-52.3115 L -61.5749,-52.1809 L -62.0834,-51.8116 L -62.3974,-51.267 L -62.4632,-50.6423 L -62.2691,-50.0446  L -61.8486,-49.5776 L -61.2746,-49.3218 L -60.6459,-49.3218 z M -184.532,-49.5772 L -184.112,-50.0442 L -183.917,-50.6419 L -183.983,-51.267 L -184.297,-51.8112 L -184.806,-52.1805  L -185.42,-52.3111 L -186.035,-52.1805 L -186.544,-51.8112 L -186.858,-51.267 L -186.923,-50.6419 L -186.729,-50.0442  L -186.309,-49.5772 L -185.735,-49.3218 L -185.106,-49.3218 z M -188.088,-49.5772 L -187.668,-50.0442 L -187.473,-50.6419 L -187.539,-51.267 L -187.853,-51.8112 L -188.362,-52.1805  L -188.976,-52.3111 L -189.591,-52.1805 L -190.1,-51.8112 L -190.414,-51.267 L -190.479,-50.6419 L -190.285,-50.0442  L -189.865,-49.5772 L -189.291,-49.3218 L -188.662,-49.3218 z M -42.2916,-49.5772 L -41.8715,-50.0442 L -41.6769,-50.6419 L -41.7428,-51.267 L -42.0571,-51.8112 L -42.5652,-52.1805  L -43.1799,-52.3111 L -43.7946,-52.1805 L -44.3027,-51.8112 L -44.617,-51.267 L -44.6829,-50.6419 L -44.4884,-50.0442  L -44.0682,-49.5772 L -43.4939,-49.3218 L -42.866,-49.3218 z M -38.7356,-49.5772 L -38.3151,-50.0442 L -38.1209,-50.6419 L -38.1868,-51.267 L -38.5011,-51.8112 L -39.0092,-52.1805  L -39.6239,-52.3111 L -40.2386,-52.1805 L -40.7471,-51.8112 L -41.0614,-51.267 L -41.1269,-50.6419 L -40.9328,-50.0442  L -40.5123,-49.5772 L -39.9383,-49.3218 L -39.31,-49.3218 z M -35.1796,-49.5772 L -34.7591,-50.0442 L -34.5649,-50.6419 L -34.6308,-51.267 L -34.9452,-51.8112 L -35.4533,-52.1805  L -36.068,-52.3111 L -36.6826,-52.1805 L -37.1911,-51.8112 L -37.5055,-51.267 L -37.571,-50.6419 L -37.3768,-50.0442  L -36.9563,-49.5772 L -36.3823,-49.3218 L -35.754,-49.3218 z M -31.6237,-49.5772 L -31.2031,-50.0442 L -31.009,-50.6419 L -31.0748,-51.267 L -31.3892,-51.8112 L -31.8973,-52.1805  L -32.512,-52.3111 L -33.1267,-52.1805 L -33.6352,-51.8112 L -33.9495,-51.267 L -34.015,-50.6419 L -33.8208,-50.0442  L -33.4003,-49.5772 L -32.8263,-49.3218 L -32.198,-49.3218 z M -28.0677,-49.5772 L -27.6471,-50.0442 L -27.453,-50.6419 L -27.5189,-51.267 L -27.8332,-51.8112 L -28.3413,-52.1805  L -28.956,-52.3111 L -29.5707,-52.1805 L -30.0792,-51.8112 L -30.3935,-51.267 L -30.459,-50.6419 L -30.2648,-50.0442  L -29.8443,-49.5772 L -29.2703,-49.3218 L -28.6421,-49.3218 z M -24.5121,-49.5772 L -24.0916,-50.0442 L -23.8974,-50.6419 L -23.9633,-51.267 L -24.2772,-51.8112 L -24.7857,-52.1805  L -25.4,-52.3111 L -26.0147,-52.1805 L -26.5232,-51.8112 L -26.8375,-51.267 L -26.903,-50.6419 L -26.7088,-50.0442  L -26.2883,-49.5772 L -25.7143,-49.3218 L -25.0865,-49.3218 z M -20.9561,-49.5772 L -20.5356,-50.0442 L -20.3414,-50.6419 L -20.4073,-51.267 L -20.7212,-51.8112 L -21.2297,-52.1805  L -21.8444,-52.3111 L -22.4591,-52.1805 L -22.9676,-51.8112 L -23.2819,-51.267 L -23.3474,-50.6419 L -23.1532,-50.0442  L -22.7327,-49.5772 L -22.1587,-49.3218 L -21.5305,-49.3218 z M -17.4001,-49.5772 L -16.9796,-50.0442 L -16.7854,-50.6419 L -16.8513,-51.267 L -17.1652,-51.8112 L -17.6737,-52.1805  L -18.2884,-52.3111 L -18.9031,-52.1805 L -19.4116,-51.8112 L -19.7259,-51.267 L -19.7914,-50.6419 L -19.5973,-50.0442  L -19.1767,-49.5772 L -18.6027,-49.3218 L -17.9741,-49.3218 z M -13.8441,-49.5772 L -13.4236,-50.0442 L -13.2294,-50.6419 L -13.2953,-51.267 L -13.6092,-51.8112 L -14.1177,-52.1805  L -14.7324,-52.3111 L -15.3471,-52.1805 L -15.8556,-51.8112 L -16.1699,-51.267 L -16.2354,-50.6419 L -16.0413,-50.0442  L -15.6208,-49.5772 L -15.0468,-49.3218 L -14.4181,-49.3218 z M -10.2881,-49.5772 L -9.86761,-50.0442 L -9.67344,-50.6419 L -9.73933,-51.267 L -10.0533,-51.8112 L -10.5618,-52.1805  L -11.1764,-52.3111 L -11.7911,-52.1805 L -12.2996,-51.8112 L -12.614,-51.267 L -12.6795,-50.6419 L -12.4853,-50.0442  L -12.0648,-49.5772 L -11.4908,-49.3218 L -10.8621,-49.3218 z M -6.73215,-49.5772 L -6.31163,-50.0442 L -6.11746,-50.6419 L -6.18334,-51.267 L -6.49728,-51.8112 L -7.00577,-52.1805  L -7.62047,-52.3111 L -8.23516,-52.1805 L -8.74365,-51.8112 L -9.05797,-51.267 L -9.12347,-50.6419 L -8.9293,-50.0442  L -8.50878,-49.5772 L -7.93479,-49.3218 L -7.30614,-49.3218 z M -220.092,-49.5772 L -219.671,-50.0442 L -219.477,-50.6419 L -219.543,-51.267 L -219.857,-51.8112 L -220.365,-52.1805  L -220.98,-52.3111 L -221.595,-52.1805 L -222.103,-51.8112 L -222.417,-51.267 L -222.483,-50.6419 L -222.288,-50.0442  L -221.868,-49.5772 L -221.294,-49.3218 L -220.666,-49.3218 z M -216.536,-49.5772 L -216.115,-50.0442 L -215.921,-50.6419 L -215.987,-51.267 L -216.301,-51.8112 L -216.809,-52.1805  L -217.424,-52.3111 L -218.039,-52.1805 L -218.547,-51.8112 L -218.861,-51.267 L -218.927,-50.6419 L -218.733,-50.0442  L -218.312,-49.5772 L -217.738,-49.3218 L -217.11,-49.3218 z M -191.644,-49.5772 L -191.224,-50.0442 L -191.029,-50.6419 L -191.095,-51.267 L -191.409,-51.8112 L -191.918,-52.1805  L -192.532,-52.3111 L -193.147,-52.1805 L -193.656,-51.8112 L -193.97,-51.267 L -194.035,-50.6419 L -193.841,-50.0442  L -193.421,-49.5772 L -192.847,-49.3218 L -192.218,-49.3218 z M -195.2,-49.5772 L -194.78,-50.0442 L -194.585,-50.6419 L -194.651,-51.267 L -194.965,-51.8112 L -195.474,-52.1805  L -196.088,-52.3111 L -196.703,-52.1805 L -197.212,-51.8112 L -197.526,-51.267 L -197.591,-50.6419 L -197.397,-50.0442  L -196.977,-49.5772 L -196.403,-49.3218 L -195.774,-49.3218 z M -198.756,-49.5772 L -198.336,-50.0442 L -198.141,-50.6419 L -198.207,-51.267 L -198.521,-51.8112 L -199.03,-52.1805  L -199.644,-52.3111 L -200.259,-52.1805 L -200.768,-51.8112 L -201.082,-51.267 L -201.147,-50.6419 L -200.953,-50.0442  L -200.533,-49.5772 L -199.959,-49.3218 L -199.33,-49.3218 z M -202.312,-49.5772 L -201.892,-50.0442 L -201.697,-50.6419 L -201.763,-51.267 L -202.077,-51.8112 L -202.586,-52.1805  L -203.2,-52.3111 L -203.815,-52.1805 L -204.323,-51.8112 L -204.638,-51.267 L -204.703,-50.6419 L -204.509,-50.0442  L -204.088,-49.5772 L -203.514,-49.3218 L -202.886,-49.3218 z M -205.868,-49.5772 L -205.447,-50.0442 L -205.253,-50.6419 L -205.319,-51.267 L -205.633,-51.8112 L -206.141,-52.1805  L -206.756,-52.3111 L -207.371,-52.1805 L -207.879,-51.8112 L -208.193,-51.267 L -208.259,-50.6419 L -208.065,-50.0442  L -207.644,-49.5772 L -207.07,-49.3218 L -206.442,-49.3218 z M -209.424,-49.5772 L -209.003,-50.0442 L -208.809,-50.6419 L -208.875,-51.267 L -209.189,-51.8112 L -209.697,-52.1805  L -210.312,-52.3111 L -210.927,-52.1805 L -211.435,-51.8112 L -211.749,-51.267 L -211.815,-50.6419 L -211.621,-50.0442  L -211.2,-49.5772 L -210.626,-49.3218 L -209.998,-49.3218 z M -212.98,-49.5772 L -212.559,-50.0442 L -212.365,-50.6419 L -212.431,-51.267 L -212.745,-51.8112 L -213.253,-52.1805  L -213.868,-52.3111 L -214.483,-52.1805 L -214.991,-51.8112 L -215.305,-51.267 L -215.371,-50.6419 L -215.177,-50.0442  L -214.756,-49.5772 L -214.182,-49.3218 L -213.554,-49.3218 z M -76.8554,-49.4191 L -76.3469,-49.7884 L -76.0326,-50.333 L -75.9671,-50.9577 L -76.1612,-51.5554 L -76.5818,-52.0224  L -77.1558,-52.2782 L -77.7844,-52.2782 L -78.3584,-52.0224 L -78.7789,-51.5554 L -78.9731,-50.9577 L -78.9072,-50.333  L -78.5933,-49.7884 L -78.0848,-49.4191 L -77.4701,-49.2885 z M -161.946,-49.4191 L -161.437,-49.7884 L -161.123,-50.333 L -161.057,-50.9577 L -161.251,-51.5554 L -161.672,-52.0224  L -162.246,-52.2782 L -162.875,-52.2782 L -163.449,-52.0224 L -163.869,-51.5554 L -164.063,-50.9577 L -163.997,-50.333  L -163.683,-49.7884 L -163.175,-49.4191 L -162.56,-49.2885 z M -24.74,-40.7091 L -24.109,-40.9146 L -23.5338,-41.2463 L -23.0408,-41.6905 L -22.6506,-42.2273 L -22.3804,-42.8338  L -22.2424,-43.483 L -22.2424,-44.1469 L -22.3804,-44.7961 L -22.6506,-45.4023 L -23.0408,-45.9394 L -23.5338,-46.3836  L -24.109,-46.7154 L -24.74,-46.9204 L -25.4,-46.9898 L -26.06,-46.9204 L -26.691,-46.7154 L -27.2662,-46.3836  L -27.7592,-45.9394 L -28.1494,-45.4023 L -28.4196,-44.7961 L -28.5576,-44.1469 L -28.5576,-43.483 L -28.4196,-42.8338  L -28.1494,-42.2273 L -27.7592,-41.6905 L -27.2662,-41.2463 L -26.691,-40.9146 L -26.06,-40.7091 L -25.4,-40.6398  z M -202.54,-40.7091 L -201.909,-40.9146 L -201.334,-41.2463 L -200.841,-41.6905 L -200.451,-42.2273 L -200.18,-42.8338  L -200.042,-43.483 L -200.042,-44.1469 L -200.18,-44.7961 L -200.451,-45.4023 L -200.841,-45.9394 L -201.334,-46.3836  L -201.909,-46.7154 L -202.54,-46.9204 L -203.2,-46.9898 L -203.86,-46.9204 L -204.491,-46.7154 L -205.066,-46.3836  L -205.559,-45.9394 L -205.949,-45.4023 L -206.22,-44.7961 L -206.358,-44.1469 L -206.358,-43.483 L -206.22,-42.8338  L -205.949,-42.2273 L -205.559,-41.6905 L -205.066,-41.2463 L -204.491,-40.9146 L -203.86,-40.7091 L -203.2,-40.6398  z M -74.3152,-41.799 L -73.8067,-42.1684 L -73.4928,-42.7129 L -73.4269,-43.3377 L -73.6211,-43.9353 L -74.0416,-44.4023  L -74.616,-44.6581 L -75.2442,-44.6581 L -75.8182,-44.4023 L -76.2388,-43.9353 L -76.4329,-43.3377 L -76.3674,-42.7129  L -76.0531,-42.1684 L -75.5446,-41.799 L -74.9299,-41.6684 z M -159.405,-41.799 L -158.897,-42.1684 L -158.583,-42.7129 L -158.517,-43.3377 L -158.711,-43.9353 L -159.132,-44.4023  L -159.706,-44.6581 L -160.334,-44.6581 L -160.908,-44.4023 L -161.329,-43.9353 L -161.523,-43.3377 L -161.458,-42.7129  L -161.143,-42.1684 L -160.635,-41.799 L -160.02,-41.6684 z M -216.536,-24.1772 L -216.115,-24.6442 L -215.921,-25.2419 L -215.987,-25.867 L -216.301,-26.4112 L -216.809,-26.7805  L -217.424,-26.9111 L -218.039,-26.7805 L -218.547,-26.4112 L -218.861,-25.867 L -218.927,-25.2419 L -218.733,-24.6442  L -218.312,-24.1772 L -217.738,-23.9218 L -217.11,-23.9218 z M -220.092,-24.1772 L -219.671,-24.6442 L -219.477,-25.2419 L -219.543,-25.867 L -219.857,-26.4112 L -220.365,-26.7805  L -220.98,-26.9111 L -221.595,-26.7805 L -222.103,-26.4112 L -222.417,-25.867 L -222.483,-25.2419 L -222.288,-24.6442  L -221.868,-24.1772 L -221.294,-23.9218 L -220.666,-23.9218 z M -184.532,-24.1772 L -184.112,-24.6442 L -183.917,-25.2419 L -183.983,-25.867 L -184.297,-26.4112 L -184.806,-26.7805  L -185.42,-26.9111 L -186.035,-26.7805 L -186.544,-26.4112 L -186.858,-25.867 L -186.923,-25.2419 L -186.729,-24.6442  L -186.309,-24.1772 L -185.735,-23.9218 L -185.106,-23.9218 z M -188.088,-24.1772 L -187.668,-24.6442 L -187.473,-25.2419 L -187.539,-25.867 L -187.853,-26.4112 L -188.362,-26.7805  L -188.976,-26.9111 L -189.591,-26.7805 L -190.1,-26.4112 L -190.414,-25.867 L -190.479,-25.2419 L -190.285,-24.6442  L -189.865,-24.1772 L -189.291,-23.9218 L -188.662,-23.9218 z M -191.644,-24.1772 L -191.224,-24.6442 L -191.029,-25.2419 L -191.095,-25.867 L -191.409,-26.4112 L -191.918,-26.7805  L -192.532,-26.9111 L -193.147,-26.7805 L -193.656,-26.4112 L -193.97,-25.867 L -194.035,-25.2419 L -193.841,-24.6442  L -193.421,-24.1772 L -192.847,-23.9218 L -192.218,-23.9218 z M -195.2,-24.1772 L -194.78,-24.6442 L -194.585,-25.2419 L -194.651,-25.867 L -194.965,-26.4112 L -195.474,-26.7805  L -196.088,-26.9111 L -196.703,-26.7805 L -197.212,-26.4112 L -197.526,-25.867 L -197.591,-25.2419 L -197.397,-24.6442  L -196.977,-24.1772 L -196.403,-23.9218 L -195.774,-23.9218 z M -198.756,-24.1772 L -198.336,-24.6442 L -198.141,-25.2419 L -198.207,-25.867 L -198.521,-26.4112 L -199.03,-26.7805  L -199.644,-26.9111 L -200.259,-26.7805 L -200.768,-26.4112 L -201.082,-25.867 L -201.147,-25.2419 L -200.953,-24.6442  L -200.533,-24.1772 L -199.959,-23.9218 L -199.33,-23.9218 z M -202.312,-24.1772 L -201.892,-24.6442 L -201.697,-25.2419 L -201.763,-25.867 L -202.077,-26.4112 L -202.586,-26.7805  L -203.2,-26.9111 L -203.815,-26.7805 L -204.323,-26.4112 L -204.638,-25.867 L -204.703,-25.2419 L -204.509,-24.6442  L -204.088,-24.1772 L -203.514,-23.9218 L -202.886,-23.9218 z M -205.868,-24.1772 L -205.447,-24.6442 L -205.253,-25.2419 L -205.319,-25.867 L -205.633,-26.4112 L -206.141,-26.7805  L -206.756,-26.9111 L -207.371,-26.7805 L -207.879,-26.4112 L -208.193,-25.867 L -208.259,-25.2419 L -208.065,-24.6442  L -207.644,-24.1772 L -207.07,-23.9218 L -206.442,-23.9218 z M -209.424,-24.1772 L -209.003,-24.6442 L -208.809,-25.2419 L -208.875,-25.867 L -209.189,-26.4112 L -209.697,-26.7805  L -210.312,-26.9111 L -210.927,-26.7805 L -211.435,-26.4112 L -211.749,-25.867 L -211.815,-25.2419 L -211.621,-24.6442  L -211.2,-24.1772 L -210.626,-23.9218 L -209.998,-23.9218 z M -212.98,-24.1772 L -212.559,-24.6442 L -212.365,-25.2419 L -212.431,-25.867 L -212.745,-26.4112 L -213.253,-26.7805  L -213.868,-26.9111 L -214.483,-26.7805 L -214.991,-26.4112 L -215.305,-25.867 L -215.371,-25.2419 L -215.177,-24.6442  L -214.756,-24.1772 L -214.182,-23.9218 L -213.554,-23.9218 z M -202.54,-15.3091 L -201.909,-15.5146 L -201.334,-15.8463 L -200.841,-16.2905 L -200.451,-16.8273 L -200.18,-17.4338  L -200.042,-18.083 L -200.042,-18.7469 L -200.18,-19.3961 L -200.451,-20.0023 L -200.841,-20.5394 L -201.334,-20.9836  L -201.909,-21.3154 L -202.54,-21.5204 L -203.2,-21.5898 L -203.86,-21.5204 L -204.491,-21.3154 L -205.066,-20.9836  L -205.559,-20.5394 L -205.949,-20.0023 L -206.22,-19.3961 L -206.358,-18.7469 L -206.358,-18.083 L -206.22,-17.4338  L -205.949,-16.8273 L -205.559,-16.2905 L -205.066,-15.8463 L -204.491,-15.5146 L -203.86,-15.3091 L -203.2,-15.2398  z M 44.0682,-6.39767 L 44.4888,-6.8647 L 44.6829,-7.46234 L 44.617,-8.0871 L 44.3031,-8.63164 L 43.7946,-9.001  L 43.1799,-9.13161 L 42.5652,-9.001 L 42.0567,-8.63164 L 41.7424,-8.0871 L 41.6769,-7.46234 L 41.8711,-6.8647  L 42.2916,-6.39767 L 42.8656,-6.14187 L 43.4939,-6.14187 z M -109.602,-6.39728 L -109.181,-6.86431 L -108.987,-7.46195 L -109.053,-8.08672 L -109.367,-8.63126 L -109.875,-9.00061  L -110.49,-9.13123 L -111.105,-9.00061 L -111.613,-8.63126 L -111.927,-8.08672 L -111.993,-7.46195 L -111.799,-6.86431  L -111.378,-6.39728 L -110.804,-6.14149 L -110.176,-6.14149 z M 41.5281,1.22241 L 41.9486,0.75538 L 42.1428,0.157742 L 42.0773,-0.467026 L 41.763,-1.01157 L 41.2545,-1.38092  L 40.6398,-1.51154 L 40.0251,-1.38092 L 39.5166,-1.01157 L 39.2026,-0.467026 L 39.1368,0.157742 L 39.3309,0.75538  L 39.7514,1.22241 L 40.3254,1.4782 L 40.9541,1.4782 z M -107.062,1.22241 L -106.641,0.75538 L -106.447,0.157742 L -106.513,-0.466638 L -106.827,-1.01118 L -107.335,-1.38054  L -107.95,-1.51115 L -108.565,-1.38054 L -109.073,-1.01118 L -109.388,-0.466638 L -109.453,0.157742 L -109.259,0.75538  L -108.838,1.22241 L -108.264,1.4782 L -107.636,1.4782 z M -205.868,1.22241 L -205.447,0.75538 L -205.253,0.157742 L -205.319,-0.467026 L -205.633,-1.01118 L -206.141,-1.38054  L -206.756,-1.51115 L -207.371,-1.38054 L -207.879,-1.01118 L -208.193,-0.467026 L -208.259,0.157742 L -208.065,0.75538  L -207.644,1.22241 L -207.07,1.47782 L -206.442,1.47782 z M -38.7356,1.22241 L -38.3151,0.75538 L -38.1209,0.157742 L -38.1868,-0.467026 L -38.5011,-1.01118 L -39.0092,-1.38054  L -39.6239,-1.51115 L -40.2386,-1.38054 L -40.7471,-1.01118 L -41.0614,-0.467026 L -41.1269,0.157742 L -40.9328,0.75538  L -40.5123,1.22241 L -39.9383,1.47782 L -39.31,1.47782 z M -35.1796,1.22241 L -34.7591,0.75538 L -34.5649,0.157742 L -34.6308,-0.467026 L -34.9452,-1.01118 L -35.4533,-1.38054  L -36.068,-1.51115 L -36.6826,-1.38054 L -37.1911,-1.01118 L -37.5055,-0.467026 L -37.571,0.157742 L -37.3768,0.75538  L -36.9563,1.22241 L -36.3823,1.47782 L -35.754,1.47782 z M -31.6237,1.22241 L -31.2031,0.75538 L -31.009,0.157742 L -31.0748,-0.467026 L -31.3892,-1.01118 L -31.8973,-1.38054  L -32.512,-1.51115 L -33.1267,-1.38054 L -33.6352,-1.01118 L -33.9495,-0.467026 L -34.015,0.157742 L -33.8208,0.75538  L -33.4003,1.22241 L -32.8263,1.47782 L -32.198,1.47782 z M -28.0677,1.22241 L -27.6471,0.75538 L -27.453,0.157742 L -27.5189,-0.467026 L -27.8332,-1.01118 L -28.3413,-1.38054  L -28.956,-1.51115 L -29.5707,-1.38054 L -30.0792,-1.01118 L -30.3935,-0.467026 L -30.459,0.157742 L -30.2648,0.75538  L -29.8443,1.22241 L -29.2703,1.47782 L -28.6421,1.47782 z M -24.5121,1.22241 L -24.0916,0.75538 L -23.8974,0.157742 L -23.9633,-0.467026 L -24.2772,-1.01118 L -24.7857,-1.38054  L -25.4,-1.51115 L -26.0147,-1.38054 L -26.5232,-1.01118 L -26.8375,-0.467026 L -26.903,0.157742 L -26.7088,0.75538  L -26.2883,1.22241 L -25.7143,1.47782 L -25.0865,1.47782 z M -20.9561,1.22241 L -20.5356,0.75538 L -20.3414,0.157742 L -20.4073,-0.467026 L -20.7212,-1.01118 L -21.2297,-1.38054  L -21.8444,-1.51115 L -22.4591,-1.38054 L -22.9676,-1.01118 L -23.2819,-0.467026 L -23.3474,0.157742 L -23.1532,0.75538  L -22.7327,1.22241 L -22.1587,1.47782 L -21.5305,1.47782 z M -17.4001,1.22241 L -16.9796,0.75538 L -16.7854,0.157742 L -16.8513,-0.467026 L -17.1652,-1.01118 L -17.6737,-1.38054  L -18.2884,-1.51115 L -18.9031,-1.38054 L -19.4116,-1.01118 L -19.7259,-0.467026 L -19.7914,0.157742 L -19.5973,0.75538  L -19.1767,1.22241 L -18.6027,1.47782 L -17.9741,1.47782 z M -13.8441,1.22241 L -13.4236,0.75538 L -13.2294,0.157742 L -13.2953,-0.467026 L -13.6092,-1.01118 L -14.1177,-1.38054  L -14.7324,-1.51115 L -15.3471,-1.38054 L -15.8556,-1.01118 L -16.1699,-0.467026 L -16.2354,0.157742 L -16.0413,0.75538  L -15.6208,1.22241 L -15.0468,1.47782 L -14.4181,1.47782 z M -10.2881,1.22241 L -9.86761,0.75538 L -9.67344,0.157742 L -9.73933,-0.467026 L -10.0533,-1.01118 L -10.5618,-1.38054  L -11.1764,-1.51115 L -11.7911,-1.38054 L -12.2996,-1.01118 L -12.614,-0.467026 L -12.6795,0.157742 L -12.4853,0.75538  L -12.0648,1.22241 L -11.4908,1.47782 L -10.8621,1.47782 z M -6.73215,1.22241 L -6.31163,0.75538 L -6.11746,0.157742 L -6.18334,-0.467026 L -6.49728,-1.01118 L -7.00577,-1.38054  L -7.62047,-1.51115 L -8.23516,-1.38054 L -8.74365,-1.01118 L -9.05797,-0.467026 L -9.12347,0.157742 L -8.9293,0.75538  L -8.50878,1.22241 L -7.93479,1.47782 L -7.30614,1.47782 z M -220.092,1.22241 L -219.671,0.75538 L -219.477,0.157742 L -219.543,-0.467026 L -219.857,-1.01118 L -220.365,-1.38054  L -220.98,-1.51115 L -221.595,-1.38054 L -222.103,-1.01118 L -222.417,-0.467026 L -222.483,0.157742 L -222.288,0.75538  L -221.868,1.22241 L -221.294,1.47782 L -220.666,1.47782 z M -216.536,1.22241 L -216.115,0.75538 L -215.921,0.157742 L -215.987,-0.467026 L -216.301,-1.01118 L -216.809,-1.38054  L -217.424,-1.51115 L -218.039,-1.38054 L -218.547,-1.01118 L -218.861,-0.467026 L -218.927,0.157742 L -218.733,0.75538  L -218.312,1.22241 L -217.738,1.47782 L -217.11,1.47782 z M -212.98,1.22241 L -212.559,0.75538 L -212.365,0.157742 L -212.431,-0.467026 L -212.745,-1.01118 L -213.253,-1.38054  L -213.868,-1.51115 L -214.483,-1.38054 L -214.991,-1.01118 L -215.305,-0.467026 L -215.371,0.157742 L -215.177,0.75538  L -214.756,1.22241 L -214.182,1.47782 L -213.554,1.47782 z M -209.424,1.22241 L -209.003,0.75538 L -208.809,0.157742 L -208.875,-0.467026 L -209.189,-1.01118 L -209.697,-1.38054  L -210.312,-1.51115 L -210.927,-1.38054 L -211.435,-1.01118 L -211.749,-0.467026 L -211.815,0.157742 L -211.621,0.75538  L -211.2,1.22241 L -210.626,1.47782 L -209.998,1.47782 z M -42.2916,1.22241 L -41.8715,0.75538 L -41.6769,0.157742 L -41.7428,-0.467026 L -42.0571,-1.01118 L -42.5652,-1.38054  L -43.1799,-1.51115 L -43.7946,-1.38054 L -44.3027,-1.01118 L -44.617,-0.467026 L -44.6829,0.157742 L -44.4884,0.75538  L -44.0682,1.22241 L -43.4939,1.47782 L -42.866,1.47782 z M -202.312,1.22241 L -201.892,0.75538 L -201.697,0.157742 L -201.763,-0.467026 L -202.077,-1.01118 L -202.586,-1.38054  L -203.2,-1.51115 L -203.815,-1.38054 L -204.323,-1.01118 L -204.638,-0.467026 L -204.703,0.157742 L -204.509,0.75538  L -204.088,1.22241 L -203.514,1.47782 L -202.886,1.47782 z M -198.756,1.22241 L -198.336,0.75538 L -198.141,0.157742 L -198.207,-0.467026 L -198.521,-1.01118 L -199.03,-1.38054  L -199.644,-1.51115 L -200.259,-1.38054 L -200.768,-1.01118 L -201.082,-0.467026 L -201.147,0.157742 L -200.953,0.75538  L -200.533,1.22241 L -199.959,1.47782 L -199.33,1.47782 z M -195.2,1.22241 L -194.78,0.75538 L -194.585,0.157742 L -194.651,-0.467026 L -194.965,-1.01118 L -195.474,-1.38054  L -196.088,-1.51115 L -196.703,-1.38054 L -197.212,-1.01118 L -197.526,-0.467026 L -197.591,0.157742 L -197.397,0.75538  L -196.977,1.22241 L -196.403,1.47782 L -195.774,1.47782 z M -191.644,1.22241 L -191.224,0.75538 L -191.029,0.157742 L -191.095,-0.467026 L -191.409,-1.01118 L -191.918,-1.38054  L -192.532,-1.51115 L -193.147,-1.38054 L -193.656,-1.01118 L -193.97,-0.467026 L -194.035,0.157742 L -193.841,0.75538  L -193.421,1.22241 L -192.847,1.47782 L -192.218,1.47782 z M -188.088,1.22241 L -187.668,0.75538 L -187.473,0.157742 L -187.539,-0.467026 L -187.853,-1.01118 L -188.362,-1.38054  L -188.976,-1.51115 L -189.591,-1.38054 L -190.1,-1.01118 L -190.414,-0.467026 L -190.479,0.157742 L -190.285,0.75538  L -189.865,1.22241 L -189.291,1.47782 L -188.662,1.47782 z M -184.532,1.22241 L -184.112,0.75538 L -183.917,0.157742 L -183.983,-0.467026 L -184.297,-1.01118 L -184.806,-1.38054  L -185.42,-1.51115 L -186.035,-1.38054 L -186.544,-1.01118 L -186.858,-0.467026 L -186.923,0.157742 L -186.729,0.75538  L -186.309,1.22241 L -185.735,1.47782 L -185.106,1.47782 z M 117.454,1.38092 L 117.963,1.01157 L 118.277,0.467026 L 118.343,-0.157742 L 118.149,-0.75538 L 117.728,-1.22241  L 117.154,-1.4782 L 116.525,-1.4782 L 115.951,-1.22241 L 115.531,-0.75538 L 115.337,-0.157742 L 115.403,0.467026  L 115.717,1.01157 L 116.225,1.38092 L 116.84,1.51154 z M -73.0455,1.38092 L -72.537,1.01157 L -72.2227,0.467026 L -72.1572,-0.157742 L -72.3514,-0.75538 L -72.7719,-1.22241  L -73.3459,-1.4782 L -73.9746,-1.4782 L -74.5486,-1.22241 L -74.9691,-0.75538 L -75.1632,-0.157742 L -75.0974,0.467026  L -74.7834,1.01157 L -74.2749,1.38092 L -73.6602,1.51154 z M 188.575,1.38054 L 189.083,1.01118 L 189.397,0.466638 L 189.463,-0.157742 L 189.269,-0.75538 L 188.848,-1.22241  L 188.274,-1.4782 L 187.646,-1.4782 L 187.072,-1.22241 L 186.651,-0.75538 L 186.457,-0.157742 L 186.522,0.466638  L 186.837,1.01118 L 187.345,1.38054 L 187.96,1.51115 z M -161.946,1.38092 L -161.437,1.01157 L -161.123,0.467026 L -161.057,-0.157742 L -161.251,-0.75538 L -161.672,-1.22241  L -162.246,-1.4782 L -162.875,-1.4782 L -163.449,-1.22241 L -163.869,-0.75538 L -164.063,-0.157742 L -163.997,0.467026  L -163.683,1.01157 L -163.175,1.38092 L -162.56,1.51154 z M -136.546,1.38092 L -136.037,1.01157 L -135.723,0.467026 L -135.657,-0.157742 L -135.851,-0.75538 L -136.272,-1.22241  L -136.846,-1.4782 L -137.475,-1.4782 L -138.049,-1.22241 L -138.469,-0.75538 L -138.663,-0.157742 L -138.597,0.467026  L -138.283,1.01157 L -137.775,1.38092 L -137.16,1.51154 z M -98.4455,1.38092 L -97.937,1.01157 L -97.6227,0.467026 L -97.5572,-0.157742 L -97.7514,-0.75538 L -98.1719,-1.22241  L -98.7459,-1.4782 L -99.3746,-1.4782 L -99.9486,-1.22241 L -100.369,-0.75538 L -100.563,-0.157742 L -100.497,0.467026  L -100.183,1.01157 L -99.6749,1.38092 L -99.0602,1.51154 z M -202.54,10.0905 L -201.909,9.88506 L -201.334,9.55329 L -200.841,9.10913 L -200.451,8.57234 L -200.18,7.96579  L -200.042,7.31661 L -200.042,6.65269 L -200.18,6.00351 L -200.451,5.39734 L -200.841,4.86017 L -201.334,4.41601  L -201.909,4.08425 L -202.54,3.87922 L -203.2,3.80984 L -203.86,3.87922 L -204.491,4.08425 L -205.066,4.41601  L -205.559,4.86017 L -205.949,5.39734 L -206.22,6.00351 L -206.358,6.65269 L -206.358,7.31661 L -206.22,7.96579  L -205.949,8.57234 L -205.559,9.10913 L -205.066,9.55329 L -204.491,9.88506 L -203.86,10.0905 L -203.2,10.1598  z M -24.74,10.0905 L -24.109,9.88506 L -23.5338,9.55329 L -23.0408,9.10913 L -22.6506,8.57234 L -22.3804,7.96579  L -22.2424,7.31661 L -22.2424,6.65269 L -22.3804,6.00351 L -22.6506,5.39734 L -23.0408,4.86017 L -23.5338,4.41601  L -24.109,4.08425 L -24.74,3.87922 L -25.4,3.80984 L -26.06,3.87922 L -26.691,4.08425 L -27.2662,4.41601  L -27.7592,4.86017 L -28.1494,5.39734 L -28.4196,6.00351 L -28.5576,6.65269 L -28.5576,7.31661 L -28.4196,7.96579  L -28.1494,8.57234 L -27.7592,9.10913 L -27.2662,9.55329 L -26.691,9.88506 L -26.06,10.0905 L -25.4,10.1598  z M 186.034,9.00061 L 186.543,8.63126 L 186.857,8.08672 L 186.923,7.46195 L 186.729,6.86431 L 186.308,6.39728  L 185.734,6.14149 L 185.106,6.14149 L 184.531,6.39728 L 184.111,6.86431 L 183.917,7.46195 L 183.983,8.08672  L 184.297,8.63126 L 184.805,9.00061 L 185.42,9.13123 z M 119.995,9.001 L 120.503,8.63164 L 120.817,8.0871 L 120.883,7.46234 L 120.689,6.8647 L 120.268,6.39767  L 119.694,6.14187 L 119.066,6.14187 L 118.492,6.39767 L 118.071,6.8647 L 117.877,7.46234 L 117.942,8.0871  L 118.257,8.63164 L 118.765,9.001 L 119.38,9.13161 z M -95.9054,9.001 L -95.3969,8.63164 L -95.083,8.0871 L -95.0171,7.46234 L -95.2112,6.8647 L -95.6318,6.39767  L -96.2061,6.14187 L -96.8344,6.14187 L -97.4084,6.39767 L -97.8289,6.8647 L -98.0231,7.46234 L -97.9576,8.0871  L -97.6433,8.63164 L -97.1348,9.001 L -96.5201,9.13161 z M -134.005,9.001 L -133.497,8.63164 L -133.183,8.0871 L -133.117,7.46234 L -133.311,6.8647 L -133.732,6.39767  L -134.306,6.14187 L -134.934,6.14187 L -135.508,6.39767 L -135.929,6.8647 L -136.123,7.46234 L -136.058,8.0871  L -135.743,8.63164 L -135.235,9.001 L -134.62,9.13161 z M -159.405,9.001 L -158.897,8.63164 L -158.583,8.0871 L -158.517,7.46234 L -158.711,6.8647 L -159.132,6.39767  L -159.706,6.14187 L -160.334,6.14187 L -160.908,6.39767 L -161.329,6.8647 L -161.523,7.46234 L -161.458,8.0871  L -161.143,8.63164 L -160.635,9.001 L -160.02,9.13161 z M -70.5054,9.001 L -69.9969,8.63164 L -69.683,8.0871 L -69.6171,7.46234 L -69.8112,6.8647 L -70.2318,6.39767  L -70.8061,6.14187 L -71.4344,6.14187 L -72.0084,6.39767 L -72.4289,6.8647 L -72.6231,7.46234 L -72.5576,8.0871  L -72.2433,8.63164 L -71.7348,9.001 L -71.1201,9.13161 z M 196.468,19.0023 L 196.889,18.5353 L 197.083,17.9377 L 197.017,17.3129 L 196.703,16.7684 L 196.195,16.399  L 195.58,16.2684 L 194.965,16.399 L 194.457,16.7684 L 194.142,17.3129 L 194.077,17.9377 L 194.271,18.5353  L 194.692,19.0023 L 195.266,19.2581 L 195.894,19.2581 z M 110.108,19.0027 L 110.529,18.5357 L 110.723,17.9381 L 110.657,17.3133 L 110.343,16.7687 L 109.834,16.3994  L 109.22,16.2688 L 108.605,16.3994 L 108.097,16.7687 L 107.783,17.3133 L 107.717,17.9381 L 107.911,18.5357  L 108.331,19.0027 L 108.906,19.2585 L 109.534,19.2585 z M -184.532,26.6224 L -184.112,26.1554 L -183.917,25.5577 L -183.983,24.9326 L -184.297,24.3884 L -184.806,24.0191  L -185.42,23.8885 L -186.035,24.0191 L -186.544,24.3884 L -186.858,24.9326 L -186.923,25.5577 L -186.729,26.1554  L -186.309,26.6224 L -185.735,26.8778 L -185.106,26.8778 z M -188.088,26.6224 L -187.668,26.1554 L -187.473,25.5577 L -187.539,24.9326 L -187.853,24.3884 L -188.362,24.0191  L -188.976,23.8885 L -189.591,24.0191 L -190.1,24.3884 L -190.414,24.9326 L -190.479,25.5577 L -190.285,26.1554  L -189.865,26.6224 L -189.291,26.8778 L -188.662,26.8778 z M -191.644,26.6224 L -191.224,26.1554 L -191.029,25.5577 L -191.095,24.9326 L -191.409,24.3884 L -191.918,24.0191  L -192.532,23.8885 L -193.147,24.0191 L -193.656,24.3884 L -193.97,24.9326 L -194.035,25.5577 L -193.841,26.1554  L -193.421,26.6224 L -192.847,26.8778 L -192.218,26.8778 z M -195.2,26.6224 L -194.78,26.1554 L -194.585,25.5577 L -194.651,24.9326 L -194.965,24.3884 L -195.474,24.0191  L -196.088,23.8885 L -196.703,24.0191 L -197.212,24.3884 L -197.526,24.9326 L -197.591,25.5577 L -197.397,26.1554  L -196.977,26.6224 L -196.403,26.8778 L -195.774,26.8778 z M -198.756,26.6224 L -198.336,26.1554 L -198.141,25.5577 L -198.207,24.9326 L -198.521,24.3884 L -199.03,24.0191  L -199.644,23.8885 L -200.259,24.0191 L -200.768,24.3884 L -201.082,24.9326 L -201.147,25.5577 L -200.953,26.1554  L -200.533,26.6224 L -199.959,26.8778 L -199.33,26.8778 z M -205.868,26.6224 L -205.447,26.1554 L -205.253,25.5577 L -205.319,24.9326 L -205.633,24.3884 L -206.141,24.0191  L -206.756,23.8885 L -207.371,24.0191 L -207.879,24.3884 L -208.193,24.9326 L -208.259,25.5577 L -208.065,26.1554  L -207.644,26.6224 L -207.07,26.8778 L -206.442,26.8778 z M -209.424,26.6224 L -209.003,26.1554 L -208.809,25.5577 L -208.875,24.9326 L -209.189,24.3884 L -209.697,24.0191  L -210.312,23.8885 L -210.927,24.0191 L -211.435,24.3884 L -211.749,24.9326 L -211.815,25.5577 L -211.621,26.1554  L -211.2,26.6224 L -210.626,26.8778 L -209.998,26.8778 z M -212.98,26.6224 L -212.559,26.1554 L -212.365,25.5577 L -212.431,24.9326 L -212.745,24.3884 L -213.253,24.0191  L -213.868,23.8885 L -214.483,24.0191 L -214.991,24.3884 L -215.305,24.9326 L -215.371,25.5577 L -215.177,26.1554  L -214.756,26.6224 L -214.182,26.8778 L -213.554,26.8778 z M -216.536,26.6224 L -216.115,26.1554 L -215.921,25.5577 L -215.987,24.9326 L -216.301,24.3884 L -216.809,24.0191  L -217.424,23.8885 L -218.039,24.0191 L -218.547,24.3884 L -218.861,24.9326 L -218.927,25.5577 L -218.733,26.1554  L -218.312,26.6224 L -217.738,26.8778 L -217.11,26.8778 z M -220.092,26.6224 L -219.671,26.1554 L -219.477,25.5577 L -219.543,24.9326 L -219.857,24.3884 L -220.365,24.0191  L -220.98,23.8885 L -221.595,24.0191 L -222.103,24.3884 L -222.417,24.9326 L -222.483,25.5577 L -222.288,26.1554  L -221.868,26.6224 L -221.294,26.8778 L -220.666,26.8778 z M 193.928,26.6224 L 194.349,26.1554 L 194.543,25.5577 L 194.477,24.933 L 194.163,24.3884 L 193.654,24.0191  L 193.04,23.8885 L 192.425,24.0191 L 191.917,24.3884 L 191.603,24.933 L 191.537,25.5577 L 191.731,26.1554  L 192.151,26.6224 L 192.725,26.8782 L 193.354,26.8782 z M -202.312,26.6224 L -201.892,26.1554 L -201.697,25.5577 L -201.763,24.9326 L -202.077,24.3884 L -202.586,24.0191  L -203.2,23.8885 L -203.815,24.0191 L -204.323,24.3884 L -204.638,24.9326 L -204.703,25.5577 L -204.509,26.1554  L -204.088,26.6224 L -203.514,26.8778 L -202.886,26.8778 z M 112.648,26.6224 L 113.069,26.1554 L 113.263,25.5577 L 113.197,24.9334 L 112.883,24.3888 L 112.375,24.0195  L 111.76,23.8889 L 111.145,24.0195 L 110.637,24.3888 L 110.322,24.9334 L 110.257,25.5577 L 110.451,26.1554  L 110.872,26.6224 L 111.446,26.8782 L 112.074,26.8782 z M -88.2051,26.7949 L -87.7605,26.3507 L -87.5354,25.7639 L -87.5679,25.1365 L -87.8536,24.5764 L -88.3419,24.1811  L -88.9488,24.0183 L -89.5693,24.1167 L -90.0964,24.459 L -90.4387,24.9861 L -90.5371,25.6066 L -90.3747,26.2139  L -89.979,26.7022 L -89.419,26.9875 L -88.7915,27.0204 z M -90.7197,29.3095 L -90.2751,28.8649 L -90.0495,28.2785 L -90.0825,27.651 L -90.3677,27.091 L -90.8565,26.6957  L -91.4634,26.5329 L -92.0839,26.6313 L -92.611,26.9735 L -92.9532,27.5006 L -93.0517,28.1212 L -92.8893,28.7281  L -92.4936,29.2164 L -91.9335,29.5021 L -91.3061,29.5346 z M -93.2338,31.824 L -92.7893,31.3795 L -92.5641,30.7931 L -92.5971,30.1652 L -92.8823,29.6056 L -93.371,29.2102  L -93.9776,29.0471 L -94.5985,29.1455 L -95.1256,29.4881 L -95.4678,30.0148 L -95.5663,30.6357 L -95.4035,31.2427  L -95.0078,31.731 L -94.4481,32.0163 L -93.8202,32.0492 z M -202.54,35.4905 L -201.909,35.2851 L -201.334,34.9533 L -200.841,34.5091 L -200.451,33.9723 L -200.18,33.3658  L -200.042,32.7166 L -200.042,32.0527 L -200.18,31.4035 L -200.451,30.7973 L -200.841,30.2602 L -201.334,29.816  L -201.909,29.4842 L -202.54,29.2792 L -203.2,29.2098 L -203.86,29.2792 L -204.491,29.4842 L -205.066,29.816  L -205.559,30.2602 L -205.949,30.7973 L -206.22,31.4035 L -206.358,32.0527 L -206.358,32.7166 L -206.22,33.3658  L -205.949,33.9723 L -205.559,34.5091 L -205.066,34.9533 L -204.491,35.2851 L -203.86,35.4905 L -203.2,35.5598  z M -95.7484,34.3386 L -95.3039,33.8941 L -95.0787,33.3073 L -95.1116,32.6798 L -95.3969,32.1201 L -95.8852,31.7244  L -96.4922,31.5616 L -97.1131,31.6601 L -97.6398,32.0023 L -97.9824,32.5294 L -98.0804,33.1503 L -97.9181,33.7572  L -97.5223,34.2456 L -96.9623,34.5308 L -96.3348,34.5638 z M 72.0596,32.6139 L 65.1003,32.6139 L 65.1003,43.5861 L 72.0596,43.5861 z M 155.88,32.6139 L 148.92,32.6139 L 148.92,43.5861 L 155.88,43.5861 z M -98.263,36.8528 L -97.8184,36.4086 L -97.5929,35.8218 L -97.6258,35.1944 L -97.9111,34.6343 L -98.3998,34.239  L -99.0067,34.0762 L -99.6273,34.1747 L -100.154,34.5169 L -100.497,35.044 L -100.595,35.6645 L -100.433,36.2718  L -100.037,36.7602 L -99.4769,37.0454 L -98.8494,37.0784 z M -100.777,39.367 L -100.333,38.9232 L -100.107,38.3364 L -100.14,37.7089 L -100.426,37.1489 L -100.914,36.7536  L -101.521,36.5908 L -102.142,36.6888 L -102.669,37.0311 L -103.011,37.5582 L -103.109,38.1787 L -102.947,38.786  L -102.551,39.2743 L -101.991,39.5596 L -101.364,39.5925 z M -103.291,41.8816 L -102.847,41.4374 L -102.622,40.8506 L -102.655,40.2231 L -102.94,39.6631 L -103.429,39.2678  L -104.036,39.105 L -104.656,39.203 L -105.183,39.5456 L -105.525,40.0724 L -105.624,40.6933 L -105.461,41.3002  L -105.065,41.7885 L -104.506,42.0738 L -103.878,42.1067 z M -96.1643,46.1747 L -95.5229,46.0026 L -94.9314,45.7015 L -94.4156,45.2841 L -93.9981,44.7682 L -93.697,44.1768  L -93.5249,43.5353 L -93.4904,42.873 L -93.5939,42.2172 L -93.8319,41.5975 L -94.1935,41.0409 L -94.6628,40.5712  L -95.2194,40.2099 L -95.8391,39.9724 L -96.4949,39.8685 L -97.1576,39.903 L -97.7987,40.0751 L -98.3901,40.3762  L -98.9056,40.794 L -99.3234,41.3095 L -99.6245,41.9009 L -99.7966,42.542 L -99.8311,43.2047 L -99.7272,43.8605  L -99.4897,44.4802 L -99.1284,45.0368 L -98.6587,45.5061 L -98.1022,45.8677 L -97.4824,46.1057 L -96.8266,46.2092  z M -105.806,44.3961 L -105.362,43.9516 L -105.136,43.3652 L -105.169,42.7373 L -105.454,42.1777 L -105.943,41.7819  L -106.55,41.6196 L -107.171,41.7176 L -107.697,42.0598 L -108.04,42.5869 L -108.138,43.2078 L -107.976,43.8148  L -107.58,44.3031 L -107.02,44.5884 L -106.392,44.6213 z M -108.321,46.9103 L -107.876,46.4662 L -107.651,45.8794 L -107.683,45.2519 L -107.969,44.6918 L -108.457,44.2965  L -109.065,44.1341 L -109.685,44.2322 L -110.212,44.5744 L -110.554,45.1015 L -110.653,45.722 L -110.49,46.3293  L -110.094,46.8177 L -109.534,47.1029 L -108.907,47.1359 z M 146.176,46.9425 L 146.597,46.4755 L 146.791,45.8778 L 146.725,45.2527 L 146.411,44.7085 L 145.903,44.3392  L 145.288,44.2085 L 144.673,44.3392 L 144.165,44.7085 L 143.851,45.2527 L 143.785,45.8778 L 143.979,46.4755  L 144.4,46.9425 L 144.974,47.1979 L 145.602,47.1979 z M 167.512,46.9425 L 167.932,46.4755 L 168.127,45.8778 L 168.061,45.2527 L 167.747,44.7085 L 167.238,44.3392  L 166.624,44.2085 L 166.009,44.3392 L 165.5,44.7085 L 165.186,45.2527 L 165.121,45.8778 L 165.315,46.4755  L 165.735,46.9425 L 166.309,47.1979 L 166.938,47.1979 z M 135.508,46.9425 L 135.929,46.4755 L 136.123,45.8778 L 136.057,45.2527 L 135.743,44.7085 L 135.235,44.3392  L 134.62,44.2085 L 134.005,44.3392 L 133.497,44.7085 L 133.183,45.2527 L 133.117,45.8778 L 133.312,46.4755  L 133.732,46.9425 L 134.306,47.1979 L 134.934,47.1979 z M 139.064,46.9425 L 139.485,46.4755 L 139.679,45.8778 L 139.613,45.2527 L 139.299,44.7085 L 138.791,44.3392  L 138.176,44.2085 L 137.561,44.3392 L 137.053,44.7085 L 136.739,45.2527 L 136.673,45.8778 L 136.867,46.4755  L 137.288,46.9425 L 137.862,47.1979 L 138.49,47.1979 z M 149.732,46.9425 L 150.153,46.4755 L 150.347,45.8778 L 150.281,45.2527 L 149.967,44.7085 L 149.459,44.3392  L 148.844,44.2085 L 148.229,44.3392 L 147.721,44.7085 L 147.407,45.2527 L 147.341,45.8778 L 147.535,46.4755  L 147.956,46.9425 L 148.53,47.1979 L 149.158,47.1979 z M 87.2478,46.9425 L 87.6683,46.4755 L 87.8625,45.8778 L 87.7966,45.2527 L 87.4826,44.7085 L 86.9741,44.3392  L 86.3595,44.2085 L 85.7448,44.3392 L 85.2363,44.7085 L 84.9219,45.2527 L 84.8564,45.8778 L 85.0506,46.4755  L 85.4711,46.9425 L 86.0451,47.1979 L 86.6738,47.1979 z M 83.6918,46.9425 L 84.1123,46.4755 L 84.3065,45.8778 L 84.2406,45.2527 L 83.9267,44.7085 L 83.4182,44.3392  L 82.8035,44.2085 L 82.1888,44.3392 L 81.6803,44.7085 L 81.366,45.2527 L 81.3005,45.8778 L 81.4946,46.4755  L 81.9152,46.9425 L 82.4892,47.1979 L 83.1178,47.1979 z M 80.1358,46.9425 L 80.5563,46.4755 L 80.7505,45.8778 L 80.6846,45.2527 L 80.3707,44.7085 L 79.8622,44.3392  L 79.2475,44.2085 L 78.6328,44.3392 L 78.1243,44.7085 L 77.81,45.2527 L 77.7445,45.8778 L 77.9387,46.4755  L 78.3592,46.9425 L 78.9332,47.1979 L 79.5618,47.1979 z M 76.5798,46.9425 L 77.0003,46.4755 L 77.1945,45.8778 L 77.1286,45.2527 L 76.8147,44.7085 L 76.3062,44.3392  L 75.6915,44.2085 L 75.0768,44.3392 L 74.5683,44.7085 L 74.254,45.2527 L 74.1885,45.8778 L 74.3827,46.4755  L 74.8032,46.9425 L 75.3772,47.1979 L 76.0058,47.1979 z M 73.0238,46.9425 L 73.4444,46.4755 L 73.6385,45.8778 L 73.5726,45.2527 L 73.2587,44.7085 L 72.7502,44.3392  L 72.1355,44.2085 L 71.5208,44.3392 L 71.0123,44.7085 L 70.698,45.2527 L 70.6325,45.8778 L 70.8267,46.4755  L 71.2472,46.9425 L 71.8212,47.1979 L 72.4495,47.1979 z M 69.4679,46.9425 L 69.8884,46.4755 L 70.0825,45.8778 L 70.0167,45.2527 L 69.7027,44.7085 L 69.1942,44.3392  L 68.5799,44.2085 L 67.9652,44.3392 L 67.4567,44.7085 L 67.1424,45.2527 L 67.0769,45.8778 L 67.2711,46.4755  L 67.6916,46.9425 L 68.2656,47.1979 L 68.8935,47.1979 z M 65.9123,46.9425 L 66.3328,46.4755 L 66.5269,45.8778 L 66.4611,45.2527 L 66.1467,44.7085 L 65.6386,44.3392  L 65.0239,44.2085 L 64.4092,44.3392 L 63.9008,44.7085 L 63.5864,45.2527 L 63.5209,45.8778 L 63.7151,46.4755  L 64.1356,46.9425 L 64.7096,47.1979 L 65.3379,47.1979 z M 62.3563,46.9425 L 62.7768,46.4755 L 62.971,45.8778 L 62.9051,45.2527 L 62.5908,44.7085 L 62.0826,44.3392  L 61.468,44.2085 L 60.8533,44.3392 L 60.3448,44.7085 L 60.0304,45.2527 L 59.9649,45.8778 L 60.1591,46.4755  L 60.5796,46.9425 L 61.1536,47.1979 L 61.7819,47.1979 z M 58.8003,46.9425 L 59.2208,46.4755 L 59.415,45.8778 L 59.3491,45.2527 L 59.0348,44.7085 L 58.5267,44.3392  L 57.912,44.2085 L 57.2973,44.3392 L 56.7888,44.7085 L 56.4745,45.2527 L 56.409,45.8778 L 56.6031,46.4755  L 57.0237,46.9425 L 57.5976,47.1979 L 58.2259,47.1979 z M 55.2443,46.9425 L 55.6648,46.4755 L 55.859,45.8778 L 55.7931,45.2527 L 55.4788,44.7085 L 54.9707,44.3392  L 54.356,44.2085 L 53.7413,44.3392 L 53.2328,44.7085 L 52.9185,45.2527 L 52.853,45.8778 L 53.0471,46.4755  L 53.4677,46.9425 L 54.0417,47.1979 L 54.6699,47.1979 z M 51.6883,46.9425 L 52.1084,46.4755 L 52.303,45.8778 L 52.2371,45.2527 L 51.9228,44.7085 L 51.4147,44.3392  L 50.8,44.2085 L 50.1853,44.3392 L 49.6772,44.7085 L 49.3629,45.2527 L 49.297,45.8778 L 49.4916,46.4755  L 49.9117,46.9425 L 50.4861,47.1979 L 51.1139,47.1979 z M 153.288,46.9425 L 153.708,46.4755 L 153.903,45.8778 L 153.837,45.2527 L 153.523,44.7085 L 153.014,44.3392  L 152.4,44.2085 L 151.785,44.3392 L 151.277,44.7085 L 150.962,45.2527 L 150.897,45.8778 L 151.091,46.4755  L 151.512,46.9425 L 152.086,47.1979 L 152.714,47.1979 z M 171.068,46.9425 L 171.488,46.4755 L 171.683,45.8778 L 171.617,45.2527 L 171.303,44.7085 L 170.794,44.3392  L 170.18,44.2085 L 169.565,44.3392 L 169.056,44.7085 L 168.742,45.2527 L 168.677,45.8778 L 168.871,46.4755  L 169.291,46.9425 L 169.865,47.1979 L 170.494,47.1979 z M 156.844,46.9425 L 157.264,46.4755 L 157.459,45.8778 L 157.393,45.2527 L 157.079,44.7085 L 156.57,44.3392  L 155.956,44.2085 L 155.341,44.3392 L 154.832,44.7085 L 154.518,45.2527 L 154.453,45.8778 L 154.647,46.4755  L 155.067,46.9425 L 155.641,47.1979 L 156.27,47.1979 z M 163.956,46.9425 L 164.376,46.4755 L 164.571,45.8778 L 164.505,45.2527 L 164.191,44.7085 L 163.682,44.3392  L 163.068,44.2085 L 162.453,44.3392 L 161.944,44.7085 L 161.63,45.2527 L 161.565,45.8778 L 161.759,46.4755  L 162.179,46.9425 L 162.753,47.1979 L 163.382,47.1979 z M 142.62,46.9425 L 143.041,46.4755 L 143.235,45.8778 L 143.169,45.2527 L 142.855,44.7085 L 142.347,44.3392  L 141.732,44.2085 L 141.117,44.3392 L 140.609,44.7085 L 140.295,45.2527 L 140.229,45.8778 L 140.423,46.4755  L 140.844,46.9425 L 141.418,47.1979 L 142.046,47.1979 z M 160.4,46.9425 L 160.82,46.4755 L 161.015,45.8778 L 160.949,45.2527 L 160.635,44.7085 L 160.126,44.3392  L 159.512,44.2085 L 158.897,44.3392 L 158.388,44.7085 L 158.074,45.2527 L 158.009,45.8778 L 158.203,46.4755  L 158.623,46.9425 L 159.197,47.1979 L 159.826,47.1979 z M -110.835,49.4249 L -110.391,48.9807 L -110.165,48.3939 L -110.198,47.7665 L -110.483,47.2064 L -110.972,46.8111  L -111.579,46.6483 L -112.199,46.7468 L -112.726,47.089 L -113.069,47.6161 L -113.167,48.2366 L -113.005,48.8435  L -112.609,49.3319 L -112.049,49.6175 L -111.421,49.6501 z M -113.349,51.9391 L -112.905,51.4953 L -112.68,50.9085 L -112.713,50.281 L -112.998,49.721 L -113.486,49.3253  L -114.093,49.1629 L -114.714,49.2609 L -115.241,49.6032 L -115.583,50.1303 L -115.681,50.7508 L -115.519,51.3577  L -115.123,51.8464 L -114.563,52.1317 L -113.936,52.1646 z M -205.868,52.0224 L -205.447,51.5554 L -205.253,50.9577 L -205.319,50.3326 L -205.633,49.7884 L -206.141,49.4191  L -206.756,49.2885 L -207.371,49.4191 L -207.879,49.7884 L -208.193,50.3326 L -208.259,50.9577 L -208.065,51.5554  L -207.644,52.0224 L -207.07,52.2778 L -206.442,52.2778 z M -202.312,52.0224 L -201.892,51.5554 L -201.697,50.9577 L -201.763,50.3326 L -202.077,49.7884 L -202.586,49.4191  L -203.2,49.2885 L -203.815,49.4191 L -204.323,49.7884 L -204.638,50.3326 L -204.703,50.9577 L -204.509,51.5554  L -204.088,52.0224 L -203.514,52.2778 L -202.886,52.2778 z M -198.756,52.0224 L -198.336,51.5554 L -198.141,50.9577 L -198.207,50.3326 L -198.521,49.7884 L -199.03,49.4191  L -199.644,49.2885 L -200.259,49.4191 L -200.768,49.7884 L -201.082,50.3326 L -201.147,50.9577 L -200.953,51.5554  L -200.533,52.0224 L -199.959,52.2778 L -199.33,52.2778 z M -195.2,52.0224 L -194.78,51.5554 L -194.585,50.9577 L -194.651,50.3326 L -194.965,49.7884 L -195.474,49.4191  L -196.088,49.2885 L -196.703,49.4191 L -197.212,49.7884 L -197.526,50.3326 L -197.591,50.9577 L -197.397,51.5554  L -196.977,52.0224 L -196.403,52.2778 L -195.774,52.2778 z M -191.644,52.0224 L -191.224,51.5554 L -191.029,50.9577 L -191.095,50.3326 L -191.409,49.7884 L -191.918,49.4191  L -192.532,49.2885 L -193.147,49.4191 L -193.656,49.7884 L -193.97,50.3326 L -194.035,50.9577 L -193.841,51.5554  L -193.421,52.0224 L -192.847,52.2778 L -192.218,52.2778 z M -188.088,52.0224 L -187.668,51.5554 L -187.473,50.9577 L -187.539,50.3326 L -187.853,49.7884 L -188.362,49.4191  L -188.976,49.2885 L -189.591,49.4191 L -190.1,49.7884 L -190.414,50.3326 L -190.479,50.9577 L -190.285,51.5554  L -189.865,52.0224 L -189.291,52.2778 L -188.662,52.2778 z M -184.532,52.0224 L -184.112,51.5554 L -183.917,50.9577 L -183.983,50.3326 L -184.297,49.7884 L -184.806,49.4191  L -185.42,49.2885 L -186.035,49.4191 L -186.544,49.7884 L -186.858,50.3326 L -186.923,50.9577 L -186.729,51.5554  L -186.309,52.0224 L -185.735,52.2778 L -185.106,52.2778 z M -209.424,52.0224 L -209.003,51.5554 L -208.809,50.9577 L -208.875,50.3326 L -209.189,49.7884 L -209.697,49.4191  L -210.312,49.2885 L -210.927,49.4191 L -211.435,49.7884 L -211.749,50.3326 L -211.815,50.9577 L -211.621,51.5554  L -211.2,52.0224 L -210.626,52.2778 L -209.998,52.2778 z M -212.98,52.0224 L -212.559,51.5554 L -212.365,50.9577 L -212.431,50.3326 L -212.745,49.7884 L -213.253,49.4191  L -213.868,49.2885 L -214.483,49.4191 L -214.991,49.7884 L -215.305,50.3326 L -215.371,50.9577 L -215.177,51.5554  L -214.756,52.0224 L -214.182,52.2778 L -213.554,52.2778 z M -220.092,52.0224 L -219.671,51.5554 L -219.477,50.9577 L -219.543,50.3326 L -219.857,49.7884 L -220.365,49.4191  L -220.98,49.2885 L -221.595,49.4191 L -222.103,49.7884 L -222.417,50.3326 L -222.483,50.9577 L -222.288,51.5554  L -221.868,52.0224 L -221.294,52.2778 L -220.666,52.2778 z M -216.536,52.0224 L -216.115,51.5554 L -215.921,50.9577 L -215.987,50.3326 L -216.301,49.7884 L -216.809,49.4191  L -217.424,49.2885 L -218.039,49.4191 L -218.547,49.7884 L -218.861,50.3326 L -218.927,50.9577 L -218.733,51.5554  L -218.312,52.0224 L -217.738,52.2778 L -217.11,52.2778 z M 153.06,55.8105 L 153.691,55.6051 L 154.266,55.2734 L 154.759,54.8292 L 155.149,54.2924 L 155.42,53.6859  L 155.558,53.0367 L 155.558,52.3728 L 155.42,51.7236 L 155.149,51.1174 L 154.759,50.5802 L 154.266,50.1361  L 153.691,49.8043 L 153.06,49.5993 L 152.4,49.5299 L 151.74,49.5993 L 151.109,49.8043 L 150.534,50.1361  L 150.041,50.5802 L 149.651,51.1174 L 149.38,51.7236 L 149.242,52.3728 L 149.242,53.0367 L 149.38,53.6859  L 149.651,54.2924 L 150.041,54.8292 L 150.534,55.2734 L 151.109,55.6051 L 151.74,55.8105 L 152.4,55.8799  z M 69.24,55.8105 L 69.8709,55.6051 L 70.4461,55.2734 L 70.9391,54.8292 L 71.3294,54.2924 L 71.5995,53.6859  L 71.7375,53.0367 L 71.7375,52.3728 L 71.5995,51.7236 L 71.3294,51.1174 L 70.9391,50.5802 L 70.4461,50.1361  L 69.8709,49.8043 L 69.24,49.5993 L 68.5799,49.5299 L 67.9199,49.5993 L 67.2889,49.8043 L 66.7138,50.1361  L 66.2208,50.5802 L 65.8305,51.1174 L 65.5603,51.7236 L 65.4224,52.3728 L 65.4224,53.0367 L 65.5603,53.6859  L 65.8305,54.2924 L 66.2208,54.8292 L 66.7138,55.2734 L 67.2889,55.6051 L 67.9199,55.8105 L 68.5799,55.8799  z M -202.54,60.8905 L -201.909,60.6851 L -201.334,60.3533 L -200.841,59.9091 L -200.451,59.3723 L -200.18,58.7658  L -200.042,58.1166 L -200.042,57.4527 L -200.18,56.8035 L -200.451,56.1973 L -200.841,55.6602 L -201.334,55.216  L -201.909,54.8842 L -202.54,54.6792 L -203.2,54.6098 L -203.86,54.6792 L -204.491,54.8842 L -205.066,55.216  L -205.559,55.6602 L -205.949,56.1973 L -206.22,56.8035 L -206.358,57.4527 L -206.358,58.1166 L -206.22,58.7658  L -205.949,59.3723 L -205.559,59.9091 L -205.066,60.3533 L -204.491,60.6851 L -203.86,60.8905 L -203.2,60.9598  z M -184.532,77.4224 L -184.112,76.9554 L -183.917,76.3577 L -183.983,75.7326 L -184.297,75.1884 L -184.806,74.8191  L -185.42,74.6885 L -186.035,74.8191 L -186.544,75.1884 L -186.858,75.7326 L -186.923,76.3577 L -186.729,76.9554  L -186.309,77.4224 L -185.735,77.6778 L -185.106,77.6778 z M -220.092,77.4224 L -219.671,76.9554 L -219.477,76.3577 L -219.543,75.7326 L -219.857,75.1884 L -220.365,74.8191  L -220.98,74.6885 L -221.595,74.8191 L -222.103,75.1884 L -222.417,75.7326 L -222.483,76.3577 L -222.288,76.9554  L -221.868,77.4224 L -221.294,77.6778 L -220.666,77.6778 z M -216.536,77.4224 L -216.115,76.9554 L -215.921,76.3577 L -215.987,75.7326 L -216.301,75.1884 L -216.809,74.8191  L -217.424,74.6885 L -218.039,74.8191 L -218.547,75.1884 L -218.861,75.7326 L -218.927,76.3577 L -218.733,76.9554  L -218.312,77.4224 L -217.738,77.6778 L -217.11,77.6778 z M -212.98,77.4224 L -212.559,76.9554 L -212.365,76.3577 L -212.431,75.7326 L -212.745,75.1884 L -213.253,74.8191  L -213.868,74.6885 L -214.483,74.8191 L -214.991,75.1884 L -215.305,75.7326 L -215.371,76.3577 L -215.177,76.9554  L -214.756,77.4224 L -214.182,77.6778 L -213.554,77.6778 z M -209.424,77.4224 L -209.003,76.9554 L -208.809,76.3577 L -208.875,75.7326 L -209.189,75.1884 L -209.697,74.8191  L -210.312,74.6885 L -210.927,74.8191 L -211.435,75.1884 L -211.749,75.7326 L -211.815,76.3577 L -211.621,76.9554  L -211.2,77.4224 L -210.626,77.6778 L -209.998,77.6778 z M -205.868,77.4224 L -205.447,76.9554 L -205.253,76.3577 L -205.319,75.7326 L -205.633,75.1884 L -206.141,74.8191  L -206.756,74.6885 L -207.371,74.8191 L -207.879,75.1884 L -208.193,75.7326 L -208.259,76.3577 L -208.065,76.9554  L -207.644,77.4224 L -207.07,77.6778 L -206.442,77.6778 z M -202.312,77.4224 L -201.892,76.9554 L -201.697,76.3577 L -201.763,75.7326 L -202.077,75.1884 L -202.586,74.8191  L -203.2,74.6885 L -203.815,74.8191 L -204.323,75.1884 L -204.638,75.7326 L -204.703,76.3577 L -204.509,76.9554  L -204.088,77.4224 L -203.514,77.6778 L -202.886,77.6778 z M -198.756,77.4224 L -198.336,76.9554 L -198.141,76.3577 L -198.207,75.7326 L -198.521,75.1884 L -199.03,74.8191  L -199.644,74.6885 L -200.259,74.8191 L -200.768,75.1884 L -201.082,75.7326 L -201.147,76.3577 L -200.953,76.9554  L -200.533,77.4224 L -199.959,77.6778 L -199.33,77.6778 z M -195.2,77.4224 L -194.78,76.9554 L -194.585,76.3577 L -194.651,75.7326 L -194.965,75.1884 L -195.474,74.8191  L -196.088,74.6885 L -196.703,74.8191 L -197.212,75.1884 L -197.526,75.7326 L -197.591,76.3577 L -197.397,76.9554  L -196.977,77.4224 L -196.403,77.6778 L -195.774,77.6778 z M -191.644,77.4224 L -191.224,76.9554 L -191.029,76.3577 L -191.095,75.7326 L -191.409,75.1884 L -191.918,74.8191  L -192.532,74.6885 L -193.147,74.8191 L -193.656,75.1884 L -193.97,75.7326 L -194.035,76.3577 L -193.841,76.9554  L -193.421,77.4224 L -192.847,77.6778 L -192.218,77.6778 z M -188.088,77.4224 L -187.668,76.9554 L -187.473,76.3577 L -187.539,75.7326 L -187.853,75.1884 L -188.362,74.8191  L -188.976,74.6885 L -189.591,74.8191 L -190.1,75.1884 L -190.414,75.7326 L -190.479,76.3577 L -190.285,76.9554  L -189.865,77.4224 L -189.291,77.6778 L -188.662,77.6778 z M -202.54,86.2905 L -201.909,86.0851 L -201.334,85.7533 L -200.841,85.3091 L -200.451,84.7723 L -200.18,84.1658  L -200.042,83.5166 L -200.042,82.8527 L -200.18,82.2035 L -200.451,81.5973 L -200.841,81.0602 L -201.334,80.616  L -201.909,80.2842 L -202.54,80.0792 L -203.2,80.0098 L -203.86,80.0792 L -204.491,80.2842 L -205.066,80.616  L -205.559,81.0602 L -205.949,81.5973 L -206.22,82.2035 L -206.358,82.8527 L -206.358,83.5166 L -206.22,84.1658  L -205.949,84.7723 L -205.559,85.3091 L -205.066,85.7533 L -204.491,86.0851 L -203.86,86.2905 L -203.2,86.3598  z M -279.146,127 L -276.86,127 L -276.86,126.746 L -279.146,126.746 L -279.146,124.46 L -279.4,124.46  L -279.4,126.746 L -281.94,126.746 L -281.94,127 L -279.4,127 L -279.4,129.54 L -279.146,129.54  z "
     stroke="black"
     fill="lightgray"
     stroke-width="0.5"
     id="path6"
     style="fill:none;stroke:#ff0000;stroke-opacity:1;stroke-width:0.0254;stroke-miterlimit:4;stroke-dasharray:none" />
</svg>
