<?xml version="1.0" encoding="UTF-8" standalone="no"?>
<svg
   xmlns:dc="http://purl.org/dc/elements/1.1/"
   xmlns:cc="http://creativecommons.org/ns#"
   xmlns:rdf="http://www.w3.org/1999/02/22-rdf-syntax-ns#"
   xmlns:svg="http://www.w3.org/2000/svg"
   xmlns="http://www.w3.org/2000/svg"
   xmlns:sodipodi="http://sodipodi.sourceforge.net/DTD/sodipodi-0.dtd"
   xmlns:inkscape="http://www.inkscape.org/namespaces/inkscape"
   width="513mm"
   height="256mm"
   viewBox="-282 -126 513 256"
   version="1.1"
   id="svg2"
   inkscape:version="0.91 r13725"
   sodipodi:docname="CastlegateLines.svg">
  <metadata
     id="metadata12">
    <rdf:RDF>
      <cc:Work
         rdf:about="">
        <dc:format>image/svg+xml</dc:format>
        <dc:type
           rdf:resource="http://purl.org/dc/dcmitype/StillImage" />
      </cc:Work>
    </rdf:RDF>
  </metadata>
  <defs
     id="defs10" />
  <sodipodi:namedview
     pagecolor="#ffffff"
     bordercolor="#666666"
     borderopacity="1"
     objecttolerance="10"
     gridtolerance="10"
     guidetolerance="10"
     inkscape:pageopacity="0"
     inkscape:pageshadow="2"
     inkscape:window-width="1365"
     inkscape:window-height="779"
     id="namedview8"
     showgrid="false"
     inkscape:zoom="0.30009657"
     inkscape:cx="908.85827"
     inkscape:cy="453.54331"
     inkscape:window-x="0"
     inkscape:window-y="0"
     inkscape:window-maximized="0"
     inkscape:current-layer="svg2" />
  <title
     id="title4">OpenSCAD Model</title>
  <path
     d=" M -5.76476,-125.984 L -8.63513,-125.984 L -8.63513,-101.6 L -5.76476,-101.6 z M -62.1846,-101.686 L -60.732,-101.943 L -59.3778,-102.371 L -58.122,-102.971 L -57.5294,-103.334 L -56.9713,-103.737  L -56.4469,-104.179 L -55.9567,-104.661 L -55.5009,-105.182 L -55.0788,-105.743 L -54.3374,-106.985 L -56.8268,-108.102  L -57.4267,-107.162 L -58.0968,-106.347 L -58.8367,-105.657 L -59.646,-105.092 L -60.5258,-104.653 L -61.4749,-104.34  L -62.4942,-104.152 L -63.5833,-104.089 L -64.443,-104.127 L -65.2565,-104.243 L -66.0239,-104.435 L -66.7455,-104.705  L -67.4211,-105.051 L -68.0505,-105.475 L -68.6338,-105.975 L -69.171,-106.553 L -69.6535,-107.193 L -70.0713,-107.883  L -70.4248,-108.622 L -70.7143,-109.41 L -70.9391,-110.248 L -71.0999,-111.134 L -71.1964,-112.07 L -71.2286,-113.055  L -71.198,-114.056 L -71.1061,-115.002 L -70.9534,-115.891 L -70.7395,-116.725 L -70.4647,-117.504 L -70.1283,-118.227  L -69.731,-118.895 L -69.2729,-119.507 L -68.7528,-120.061 L -68.1838,-120.54 L -67.5653,-120.946 L -66.8979,-121.279  L -66.1812,-121.537 L -65.415,-121.721 L -64.5999,-121.832 L -63.1799,-121.853 L -62.1257,-121.722 L -61.1478,-121.462  L -60.2463,-121.072 L -59.4254,-120.559 L -58.7142,-119.933 L -58.1174,-119.19 L -57.6349,-118.33 L -57.4364,-117.856  L -54.5409,-118.821 L -54.8331,-119.486 L -55.1645,-120.109 L -55.535,-120.689 L -55.9443,-121.227 L -56.3923,-121.724  L -56.8791,-122.179 L -57.405,-122.591 L -57.9697,-122.961 L -58.5654,-123.289 L -59.1968,-123.572 L -59.8642,-123.813  L -60.5668,-124.009 L -62.0799,-124.271 L -63.7356,-124.358 L -64.9406,-124.311 L -66.0785,-124.171 L -67.1502,-123.937  L -68.1551,-123.609 L -69.0935,-123.187 L -69.9647,-122.672 L -70.7697,-122.063 L -71.508,-121.361 L -72.1626,-120.576  L -72.7304,-119.719 L -73.2106,-118.792 L -73.6033,-117.792 L -73.9091,-116.722 L -74.1273,-115.579 L -74.2583,-114.365  L -74.3021,-113.081 L -74.2242,-111.374 L -73.9908,-109.785 L -73.6017,-108.313 L -73.0572,-106.959 L -72.3526,-105.739  L -71.508,-104.667 L -71.0333,-104.187 L -70.5236,-103.744 L -69.3996,-102.971 L -68.1505,-102.371 L -66.7897,-101.943  L -65.3181,-101.686 L -63.7356,-101.6 z M -11.1009,-101.749 L -9.94707,-101.981 L -9.94707,-104.089 L -11.852,-103.86 L -12.6163,-103.932 L -13.1949,-104.146  L -13.4779,-104.368 L -13.7561,-104.872 L -13.9061,-105.583 L -13.9348,-106.172 L -13.9348,-117.399 L -10.2265,-117.399  L -10.2265,-119.481 L -13.9348,-119.481 L -13.9348,-122.732 L -15.8397,-122.732 L -16.6781,-119.481 L -18.7865,-119.481  L -18.7865,-117.399 L -16.7796,-117.399 L -16.7796,-105.613 L -16.7218,-104.672 L -16.5478,-103.857 L -16.2583,-103.167  L -15.8525,-102.603 L -15.3312,-102.164 L -14.6937,-101.851 L -13.9406,-101.662 L -13.0713,-101.6 z M 57.7566,-101.749 L 58.9104,-101.981 L 58.9104,-104.089 L 57.0054,-103.86 L 56.2411,-103.932 L 55.6625,-104.146  L 55.3796,-104.368 L 55.1013,-104.872 L 54.9513,-105.583 L 54.9226,-106.172 L 54.9226,-117.399 L 58.6309,-117.399  L 58.6309,-119.481 L 54.9226,-119.481 L 54.9226,-122.732 L 53.0177,-122.732 L 52.1794,-119.481 L 50.071,-119.481  L 50.071,-117.399 L 52.0778,-117.399 L 52.0778,-105.613 L 52.1356,-104.672 L 52.3096,-103.857 L 52.5991,-103.167  L 53.0049,-102.603 L 53.5262,-102.164 L 54.1637,-101.851 L 54.9168,-101.662 L 55.7861,-101.6 z M 6.78757,-101.664 L 7.95804,-101.859 L 9.00681,-102.182 L 9.93428,-102.635 L 10.7404,-103.217 L 11.4249,-103.929  L 11.988,-104.77 L 12.4299,-105.74 L 9.91529,-106.476 L 9.67887,-105.905 L 9.3502,-105.384 L 8.92969,-104.915  L 8.41654,-104.496 L 7.82627,-104.162 L 7.14685,-103.924 L 6.37829,-103.781 L 5.52098,-103.734 L 4.96094,-103.758  L 4.43539,-103.832 L 3.94472,-103.955 L 3.48932,-104.127 L 3.06842,-104.349 L 2.68278,-104.619 L 2.33203,-104.939  L 2.01577,-105.308 L 1.73633,-105.723 L 1.49371,-106.178 L 1.12047,-107.213 L 0.896844,-108.414 L 0.822043,-109.779  L 12.8872,-109.779 L 12.7702,-112.344 L 12.419,-114.238 L 11.8334,-115.84 L 11.0141,-117.151 L 9.96024,-118.171  L 8.67234,-118.899 L 7.15034,-119.336 L 5.39424,-119.481 L 4.50593,-119.446 L 3.66993,-119.338 L 2.88665,-119.16  L 2.15568,-118.91 L 1.47704,-118.588 L 0.850723,-118.195 L 0.276727,-117.731 L -0.244171,-117.196 L -0.70267,-116.599  L -1.09993,-115.938 L -1.43596,-115.214 L -1.71114,-114.427 L -1.92508,-113.576 L -2.07778,-112.661 L -2.16964,-111.683  L -2.20025,-110.642 L -2.16964,-109.553 L -2.07778,-108.533 L -1.92508,-107.581 L -1.71114,-106.699 L -1.43596,-105.886  L -1.09993,-105.142 L -0.70267,-104.466 L -0.244171,-103.86 L 0.278278,-103.331 L 0.856924,-102.871 L 1.49138,-102.483  L 2.18087,-102.165 L 2.92618,-101.918 L 3.72729,-101.741 L 4.58383,-101.635 L 5.49579,-101.6 z M 0.847623,-111.963 L 0.965057,-113.154 L 1.21582,-114.211 L 1.5999,-115.135 L 2.1177,-115.925 L 2.42931,-116.265  L 2.76844,-116.559 L 3.1343,-116.808 L 3.5273,-117.011 L 3.94705,-117.17 L 4.86792,-117.351 L 5.88026,-117.353  L 6.81044,-117.191 L 7.61698,-116.867 L 7.97393,-116.644 L 8.59444,-116.078 L 9.09789,-115.335 L 9.48973,-114.402  L 9.77072,-113.278 L 9.94087,-111.963 z M 68.6009,-101.664 L 69.7713,-101.859 L 70.8201,-102.182 L 71.7476,-102.635 L 72.5537,-103.217 L 73.2382,-103.929  L 73.8013,-104.77 L 74.2431,-105.74 L 71.7286,-106.476 L 71.4921,-105.905 L 71.1635,-105.384 L 70.743,-104.915  L 70.2298,-104.496 L 69.6395,-104.162 L 68.9601,-103.924 L 68.1916,-103.781 L 67.3343,-103.734 L 66.7742,-103.758  L 66.2487,-103.832 L 65.758,-103.955 L 65.3026,-104.127 L 64.8817,-104.349 L 64.4961,-104.619 L 64.1453,-104.939  L 63.829,-105.308 L 63.5496,-105.723 L 63.307,-106.178 L 62.9338,-107.213 L 62.7101,-108.414 L 62.6353,-109.779  L 74.7005,-109.779 L 74.5834,-112.344 L 74.2323,-114.238 L 73.6467,-115.84 L 72.8273,-117.151 L 71.7735,-118.171  L 70.4856,-118.899 L 68.9636,-119.336 L 67.2075,-119.481 L 66.3192,-119.446 L 65.4832,-119.338 L 64.6999,-119.16  L 63.969,-118.91 L 63.2903,-118.588 L 62.664,-118.195 L 62.09,-117.731 L 61.5687,-117.196 L 61.1102,-116.599  L 60.713,-115.938 L 60.3769,-115.214 L 60.1018,-114.427 L 59.8878,-113.576 L 59.7351,-112.661 L 59.6433,-111.683  L 59.6126,-110.642 L 59.6433,-109.553 L 59.7351,-108.533 L 59.8878,-107.581 L 60.1018,-106.699 L 60.3769,-105.886  L 60.713,-105.142 L 61.1102,-104.466 L 61.5687,-103.86 L 62.0916,-103.331 L 62.6702,-102.871 L 63.3047,-102.483  L 63.9942,-102.165 L 64.7395,-101.918 L 65.5406,-101.741 L 66.3971,-101.635 L 67.3091,-101.6 z M 62.6609,-111.963 L 62.7783,-113.154 L 63.0291,-114.211 L 63.4132,-115.135 L 63.931,-115.925 L 64.2426,-116.265  L 64.5817,-116.559 L 64.9476,-116.808 L 65.3406,-117.011 L 65.7603,-117.17 L 66.6812,-117.351 L 67.6935,-117.353  L 68.6237,-117.191 L 69.4303,-116.867 L 69.7872,-116.644 L 70.4077,-116.078 L 70.9112,-115.335 L 71.303,-114.402  L 71.584,-113.278 L 71.7541,-111.963 z M 24.3663,-95.2128 L 25.8108,-95.5581 L 27.0332,-96.1337 L 28.0336,-96.9394 L 28.8114,-97.975 L 29.3668,-99.2412  L 29.7005,-100.737 L 29.8114,-102.464 L 29.8877,-119.481 L 27.1952,-119.481 L 26.9922,-116.23 L 26.3441,-117.292  L 25.8294,-117.889 L 25.2361,-118.397 L 24.5714,-118.82 L 23.8509,-119.144 L 23.0699,-119.36 L 22.2285,-119.468  L 21.0103,-119.447 L 20.2864,-119.343 L 19.6135,-119.171 L 18.9911,-118.929 L 18.4194,-118.618 L 17.8989,-118.239  L 17.4288,-117.79 L 17.0098,-117.272 L 16.6408,-116.682 L 16.3207,-116.016 L 16.0502,-115.275 L 15.8289,-114.459  L 15.6564,-113.567 L 15.5335,-112.6 L 15.4595,-111.557 L 15.4576,-109.334 L 15.5254,-108.305 L 15.6386,-107.353  L 15.7971,-106.476 L 16.0006,-105.676 L 16.2494,-104.953 L 16.5436,-104.305 L 16.8827,-103.734 L 17.2769,-103.233  L 17.7226,-102.8 L 18.2198,-102.433 L 18.769,-102.133 L 19.3694,-101.9 L 20.0213,-101.733 L 20.7251,-101.633  L 21.9421,-101.613 L 22.8184,-101.718 L 23.6315,-101.927 L 24.3807,-102.241 L 25.0717,-102.667 L 25.6969,-103.2  L 26.2496,-103.835 L 26.9666,-104.978 L 26.9666,-102.235 L 26.9011,-101.074 L 26.7046,-100.068 L 26.3775,-99.2168  L 25.919,-98.5203 L 25.3295,-97.9785 L 24.6094,-97.5917 L 23.7579,-97.3596 L 22.7757,-97.282 L 21.696,-97.3716  L 20.7801,-97.6394 L 20.2612,-97.9173 L 19.8213,-98.2696 L 19.4674,-98.692 L 19.1992,-99.1839 L 19.0163,-99.7458  L 16.1463,-99.3397 L 16.4591,-98.3824 L 16.9145,-97.5425 L 17.5133,-96.8201 L 18.2543,-96.2154 L 19.1515,-95.7263  L 20.1914,-95.3771 L 21.3739,-95.1678 L 22.6994,-95.0977 z M 21.913,-103.732 L 21.42,-103.806 L 20.9665,-103.929 L 20.553,-104.102 L 20.1794,-104.323 L 19.8453,-104.594  L 19.5507,-104.914 L 19.2957,-105.283 L 19.0814,-105.708 L 18.7388,-106.75 L 18.5101,-108.045 L 18.3958,-109.594  L 18.3966,-111.341 L 18.5171,-112.906 L 18.7585,-114.221 L 19.1205,-115.284 L 19.3465,-115.722 L 19.6128,-116.103  L 19.9151,-116.434 L 20.2538,-116.713 L 20.6294,-116.941 L 21.0414,-117.119 L 21.4898,-117.246 L 21.9746,-117.322  L 22.8157,-117.335 L 23.4284,-117.23 L 24.0063,-117.02 L 24.5493,-116.706 L 25.2981,-116.057 L 25.7283,-115.513  L 26.2608,-114.523 L 26.6522,-113.336 L 26.8883,-111.982 L 26.9666,-110.465 L 26.8883,-108.965 L 26.6522,-107.631  L 26.2608,-106.468 L 25.7283,-105.505 L 25.2981,-104.97 L 24.5485,-104.33 L 23.9993,-104.025 L 23.4086,-103.822  L 22.7769,-103.721 z M 39.6805,-101.714 L 40.5506,-101.917 L 41.3413,-102.222 L 42.0625,-102.634 L 42.7389,-103.186 L 43.3675,-103.885  L 43.9485,-104.73 L 44.2213,-105.207 L 44.3229,-105.207 L 44.4849,-103.952 L 44.688,-103.266 L 44.9674,-102.701  L 45.3275,-102.261 L 45.7941,-101.937 L 46.372,-101.721 L 47.0607,-101.613 L 48.8242,-101.699 L 49.6315,-101.854  L 49.6315,-103.657 L 48.6916,-103.53 L 48.0882,-103.62 L 47.7769,-103.778 L 47.5386,-104.017 L 47.3025,-104.535  L 47.1374,-105.513 L 47.0913,-114.304 L 47.0153,-114.952 L 46.8882,-115.558 L 46.7103,-116.122 L 46.4817,-116.644  L 46.2022,-117.124 L 45.8724,-117.562 L 45.491,-117.958 L 45.0659,-118.314 L 44.5895,-118.624 L 44.0624,-118.886  L 43.4846,-119.1 L 42.8559,-119.267 L 42.1765,-119.386 L 40.6653,-119.481 L 39.2255,-119.409 L 37.9539,-119.194  L 36.8505,-118.835 L 35.9152,-118.332 L 35.1486,-117.685 L 34.5502,-116.895 L 34.12,-115.962 L 33.858,-114.884  L 36.8551,-114.605 L 36.9853,-115.255 L 37.1981,-115.811 L 37.4934,-116.272 L 37.8713,-116.637 L 38.3667,-116.925  L 38.9887,-117.132 L 40.1603,-117.287 L 41.4796,-117.246 L 42.2211,-117.094 L 42.8385,-116.84 L 43.3322,-116.484  L 43.721,-116.013 L 43.9989,-115.411 L 44.1655,-114.679 L 44.2213,-113.817 L 44.2213,-112.979 L 39.4852,-112.856  L 38.6252,-112.765 L 37.831,-112.63 L 37.1028,-112.452 L 36.4404,-112.23 L 35.8439,-111.964 L 35.3133,-111.656  L 34.8486,-111.303 L 34.4436,-110.907 L 34.0929,-110.471 L 33.796,-109.993 L 33.5534,-109.474 L 33.3642,-108.914  L 33.2294,-108.312 L 33.1484,-107.669 L 33.1414,-106.373 L 33.2999,-105.249 L 33.6173,-104.258 L 34.0937,-103.401  L 34.3913,-103.022 L 34.7347,-102.689 L 35.1168,-102.4 L 35.5381,-102.155 L 35.9978,-101.955 L 36.497,-101.8  L 37.6113,-101.622 L 38.7314,-101.612 z M 38.2667,-103.784 L 37.6996,-103.937 L 37.2125,-104.191 L 36.8043,-104.546 L 36.4823,-105.008 L 36.2521,-105.556  L 36.1137,-106.189 L 36.0761,-107.249 L 36.2013,-108.172 L 36.4761,-108.945 L 36.9094,-109.572 L 37.4783,-110.07  L 38.176,-110.439 L 39.0736,-110.706 L 40.6929,-110.884 L 44.2213,-110.972 L 44.2105,-109.068 L 44.0496,-108.013  L 43.6962,-106.973 L 43.159,-105.991 L 42.4699,-105.165 L 41.6304,-104.496 L 41.013,-104.162 L 40.3541,-103.924  L 39.2883,-103.745 L 38.9127,-103.734 z M -45.0519,-101.714 L -44.1818,-101.917 L -43.3911,-102.222 L -42.6699,-102.634 L -41.9936,-103.186 L -41.3649,-103.885  L -40.7839,-104.73 L -40.5111,-105.207 L -40.4095,-105.207 L -40.2475,-103.952 L -40.0445,-103.266 L -39.765,-102.701  L -39.405,-102.261 L -38.9383,-101.937 L -38.3604,-101.721 L -37.6717,-101.613 L -35.9083,-101.699 L -35.101,-101.854  L -35.101,-103.657 L -36.0408,-103.53 L -36.6443,-103.62 L -36.9555,-103.778 L -37.1939,-104.017 L -37.4299,-104.535  L -37.595,-105.513 L -37.6411,-114.304 L -37.7171,-114.952 L -37.8442,-115.558 L -38.0221,-116.122 L -38.2508,-116.644  L -38.5302,-117.124 L -38.86,-117.562 L -39.2414,-117.958 L -39.6666,-118.314 L -40.1429,-118.624 L -40.67,-118.886  L -41.2479,-119.1 L -41.8765,-119.267 L -42.5559,-119.386 L -44.0671,-119.481 L -45.5069,-119.409 L -46.7785,-119.194  L -47.882,-118.835 L -48.8172,-118.332 L -49.5838,-117.685 L -50.1822,-116.895 L -50.6124,-115.962 L -50.8744,-114.884  L -47.8773,-114.605 L -47.7471,-115.255 L -47.5343,-115.811 L -47.239,-116.272 L -46.8611,-116.637 L -46.3658,-116.925  L -45.7437,-117.132 L -44.5721,-117.287 L -43.2528,-117.246 L -42.5114,-117.094 L -41.894,-116.84 L -41.4002,-116.484  L -41.0115,-116.013 L -40.7336,-115.411 L -40.5669,-114.679 L -40.5111,-113.817 L -40.5111,-112.979 L -45.2472,-112.856  L -46.1073,-112.765 L -46.9014,-112.63 L -47.6297,-112.452 L -48.292,-112.23 L -48.8885,-111.964 L -49.4191,-111.656  L -49.8838,-111.303 L -50.2888,-110.907 L -50.6395,-110.471 L -50.9364,-109.993 L -51.179,-109.474 L -51.3682,-108.914  L -51.5031,-108.312 L -51.5841,-107.669 L -51.591,-106.373 L -51.4325,-105.249 L -51.1151,-104.258 L -50.6388,-103.401  L -50.3411,-103.022 L -49.9977,-102.689 L -49.6156,-102.4 L -49.1943,-102.155 L -48.7346,-101.955 L -48.2354,-101.8  L -47.1212,-101.622 L -46.0011,-101.612 z M -46.4658,-103.784 L -47.0328,-103.937 L -47.52,-104.191 L -47.9281,-104.546 L -48.2502,-105.008 L -48.4804,-105.556  L -48.6187,-106.189 L -48.6563,-107.249 L -48.5311,-108.172 L -48.2564,-108.945 L -47.8234,-109.572 L -47.2541,-110.07  L -46.5565,-110.439 L -45.6588,-110.706 L -44.0396,-110.884 L -40.5111,-110.972 L -40.5219,-109.068 L -40.6828,-108.013  L -41.0363,-106.973 L -41.5734,-105.991 L -42.2625,-105.165 L -43.102,-104.496 L -43.7194,-104.162 L -44.3783,-103.924  L -45.4441,-103.745 L -45.8197,-103.734 z M -25.6349,-101.682 L -24.2601,-101.93 L -23.6416,-102.116 L -23.0695,-102.343 L -22.5432,-102.611 L -22.063,-102.92  L -21.6343,-103.269 L -21.2627,-103.653 L -20.9483,-104.072 L -20.6914,-104.527 L -20.4914,-105.018 L -20.3484,-105.545  L -20.2627,-106.107 L -20.2805,-107.416 L -20.6449,-108.652 L -21.1786,-109.525 L -21.9521,-110.253 L -23.3211,-111.024  L -25.2539,-111.701 L -29.4796,-112.903 L -30.3846,-113.484 L -30.764,-113.973 L -30.9543,-114.583 L -30.964,-115.224  L -30.8497,-115.744 L -30.621,-116.189 L -30.2784,-116.557 L -29.8133,-116.856 L -29.2199,-117.084 L -28.0971,-117.284  L -26.7666,-117.313 L -25.619,-117.17 L -24.671,-116.856 L -24.1462,-116.552 L -23.7175,-116.181 L -23.3935,-115.743  L -23.1746,-115.238 L -23.1044,-114.96 L -20.5391,-115.265 L -20.8437,-116.294 L -21.0534,-116.751 L -21.301,-117.17  L -21.5867,-117.551 L -21.9103,-117.894 L -22.2723,-118.199 L -23.1098,-118.704 L -24.0943,-119.085 L -25.2244,-119.338  L -26.5007,-119.466 L -27.97,-119.462 L -29.3796,-119.306 L -30.5989,-118.995 L -31.1369,-118.782 L -31.6275,-118.528  L -32.0705,-118.237 L -32.4635,-117.914 L -32.8038,-117.554 L -33.0922,-117.158 L -33.3278,-116.725 L -33.5111,-116.256  L -33.6421,-115.751 L -33.7208,-115.208 L -33.7103,-114.019 L -33.5185,-113.191 L -33.1627,-112.471 L -32.4643,-111.665  L -31.5372,-110.972 L -30.5559,-110.511 L -28.032,-109.728 L -25.2539,-108.976 L -24.3753,-108.587 L -23.7392,-108.128  L -23.3059,-107.598 L -23.0726,-106.961 L -23.0281,-106.476 L -23.0916,-105.845 L -23.2819,-105.296 L -23.5997,-104.829  L -24.0443,-104.445 L -24.614,-104.156 L -25.3329,-103.949 L -26.6918,-103.794 L -28.1797,-103.824 L -29.4118,-104.032  L -30.0943,-104.27 L -30.6675,-104.596 L -31.1407,-105.015 L -31.5151,-105.523 L -31.7915,-106.119 L -31.8926,-106.451  L -34.4072,-105.969 L -34.0661,-104.913 L -33.5755,-104.006 L -33.2743,-103.609 L -32.9356,-103.249 L -32.5596,-102.927  L -32.1469,-102.641 L -31.1896,-102.186 L -30.0447,-101.86 L -28.713,-101.665 L -27.1937,-101.6 z M 209.55,-114.3 L 177.8,-114.3 L 177.8,-63.5 L 209.55,-63.5 z M 179.07,-64.7697 L 179.07,-113.03 L 208.28,-113.03 L 208.28,-64.7697 z M 183.849,-107.594 L 185.92,-107.623 L 186.462,-107.772 L 186.897,-108.051 L 187.222,-108.456 L 187.397,-108.946  L 187.397,-109.693 L 187.222,-110.167 L 186.763,-110.648 L 186.281,-110.884 L 185.449,-110.997 L 183.086,-110.997  L 183.086,-105.41 L 183.849,-105.41 z M 183.849,-108.178 L 183.849,-110.388 L 185.657,-110.372 L 186.152,-110.238 L 186.338,-110.121 L 186.482,-109.971  L 186.648,-109.571 L 186.648,-109.053 L 186.489,-108.625 L 186.351,-108.464 L 185.954,-108.25 L 185.398,-108.178  z M 190.388,-105.367 L 190.951,-105.542 L 191.393,-105.867 L 191.702,-106.368 L 191.869,-107.034 L 191.87,-108.102  L 191.712,-108.759 L 191.418,-109.245 L 191,-109.57 L 190.432,-109.745 L 189.97,-109.779 L 189.518,-109.744  L 189.126,-109.64 L 188.794,-109.468 L 188.523,-109.226 L 188.311,-108.915 L 188.161,-108.536 L 188.07,-108.086  L 188.07,-107.054 L 188.228,-106.402 L 188.523,-105.892 L 188.949,-105.552 L 189.504,-105.369 L 189.717,-105.342  z M 189.672,-105.892 L 189.24,-106.095 L 188.959,-106.516 L 188.806,-107.359 L 188.911,-108.47 L 189.157,-108.934  L 189.569,-109.188 L 190.278,-109.22 L 190.71,-109.017 L 190.981,-108.616 L 191.134,-107.783 L 191.029,-106.646  L 190.784,-106.178 L 190.371,-105.924 L 190.24,-105.892 z M 200.764,-105.397 L 201.264,-105.587 L 201.64,-105.905 L 201.893,-106.349 L 201.283,-106.527 L 200.902,-106.045  L 200.14,-105.867 L 199.626,-105.968 L 199.251,-106.273 L 199.023,-106.762 L 198.947,-107.416 L 202.02,-107.416  L 201.99,-108.028 L 201.901,-108.493 L 201.752,-108.886 L 201.544,-109.207 L 201.276,-109.457 L 200.949,-109.636  L 200.561,-109.743 L 199.893,-109.77 L 199.302,-109.639 L 198.826,-109.351 L 198.481,-108.908 L 198.278,-108.323  L 198.217,-107.323 L 198.331,-106.61 L 198.579,-106.047 L 198.974,-105.648 L 199.496,-105.412 L 199.912,-105.342  z M 198.947,-107.95 L 199.087,-108.603 L 199.444,-109.045 L 199.863,-109.223 L 200.585,-109.169 L 200.994,-108.858  L 201.261,-108.115 L 201.283,-107.95 z M 203.597,-108.274 L 203.768,-108.737 L 204.155,-109.065 L 204.835,-109.093 L 204.835,-109.753 L 204.117,-109.699  L 203.76,-109.376 L 203.514,-108.88 L 203.489,-109.702 L 202.803,-109.702 L 202.828,-105.41 L 203.54,-105.41  z M 195.071,-109.118 L 195.198,-108.458 L 195.96,-105.41 L 196.773,-105.41 L 198.017,-109.702 L 197.306,-109.702  L 196.493,-106.553 L 196.392,-105.994 L 195.452,-109.702 L 194.69,-109.702 L 193.775,-106.299 L 193.725,-105.994  L 192.811,-109.702 L 192.125,-109.702 L 193.319,-105.41 L 194.131,-105.41 z M 192.621,-91.6429 L 193.24,-92.2141 L 193.593,-93.0335 L 193.645,-94.0431 L 193.449,-94.7892 L 193.066,-95.3701  L 192.367,-95.829 L 191.453,-95.986 L 190.721,-95.9003 L 190.124,-95.6434 L 189.665,-95.2171 L 189.364,-94.6527  L 189.226,-93.9598 L 189.317,-92.8808 L 189.624,-92.2141 L 190.233,-91.6429 L 190.786,-91.4336 L 191.759,-91.3812  z M 191.078,-91.9014 L 190.626,-92.0599 L 190.259,-92.3541 L 189.935,-92.9447 L 189.827,-93.7001 L 189.929,-94.4431  L 190.233,-94.9958 L 190.607,-95.2895 L 191.081,-95.448 L 191.812,-95.448 L 192.266,-95.2895 L 192.722,-94.8752  L 192.945,-94.4431 L 193.053,-93.7001 L 192.945,-92.9319 L 192.722,-92.4804 L 192.394,-92.1428 L 191.964,-91.9393  L 191.797,-91.9014 z M 194.89,-95.2496 L 197.277,-91.4398 L 198.014,-91.4398 L 198.014,-95.91 L 197.481,-95.91 L 197.506,-92.0746  L 195.093,-95.91 L 194.382,-95.91 L 194.382,-91.4398 L 194.915,-91.4398 z M 191.046,-76.4031 L 191.665,-76.9744 L 192.018,-77.7937 L 192.07,-78.8033 L 191.874,-79.5494 L 191.491,-80.1304  L 190.792,-80.5893 L 189.878,-80.7462 L 189.145,-80.6606 L 188.549,-80.4036 L 188.09,-79.9773 L 187.789,-79.413  L 187.651,-78.72 L 187.742,-77.641 L 188.049,-76.9744 L 188.658,-76.4031 L 189.211,-76.1934 L 190.184,-76.1411  z M 189.503,-76.6616 L 189.05,-76.8201 L 188.684,-77.1143 L 188.36,-77.7049 L 188.252,-78.4603 L 188.354,-79.2033  L 188.658,-79.756 L 189.032,-80.0498 L 189.506,-80.2083 L 190.236,-80.2083 L 190.691,-80.0498 L 191.147,-79.6354  L 191.37,-79.2033 L 191.478,-78.4603 L 191.37,-77.6922 L 191.147,-77.2406 L 190.819,-76.9031 L 190.389,-76.6996  L 190.222,-76.6616 z M 197.286,-78.0034 L 199.775,-78.0034 L 199.775,-78.5111 L 197.286,-78.5111 L 197.286,-80.1877 L 199.851,-80.1877  L 199.851,-80.6703 L 196.676,-80.6703 L 196.676,-76.1996 L 197.286,-76.1996 z M 193.417,-78.0034 L 195.905,-78.0034 L 195.905,-78.5111 L 193.417,-78.5111 L 193.417,-80.1877 L 195.982,-80.1877  L 195.982,-80.6703 L 192.807,-80.6703 L 192.807,-76.1996 L 193.417,-76.1996 z M -202.607,-105.638 L -201.779,-106.052 L -201.08,-106.649 L -200.783,-107.01 L -200.783,-110.286 L -203.831,-110.286  L -203.831,-109.398 L -201.749,-109.398 L -201.749,-107.467 L -202.292,-106.858 L -203.012,-106.445 L -203.983,-106.273  L -204.548,-106.327 L -205.05,-106.489 L -205.488,-106.759 L -205.863,-107.137 L -206.152,-107.608 L -206.358,-108.159  L -206.513,-109.134 L -206.484,-110.217 L -206.275,-111.126 L -206.037,-111.621 L -205.721,-112.032 L -205.334,-112.347  L -204.876,-112.556 L -204.349,-112.661 L -202.896,-112.538 L -202.209,-112.185 L -201.952,-111.912 L -200.936,-112.141  L -201.425,-112.776 L -202.079,-113.207 L -202.929,-113.455 L -204.009,-113.538 L -204.812,-113.471 L -205.52,-113.271  L -206.133,-112.938 L -206.65,-112.471 L -207.061,-111.895 L -207.355,-111.207 L -207.532,-110.409 L -207.583,-109.193  L -207.421,-108.062 L -207.158,-107.315 L -206.631,-106.502 L -206.111,-106.026 L -205.488,-105.681 L -204.523,-105.44  L -203.509,-105.435 z M -211.263,-105.452 L -210.497,-105.678 L -209.81,-106.095 L -209.216,-106.699 L -208.729,-107.481 L -208.464,-108.102  L -209.328,-108.661 L -209.543,-108.101 L -209.785,-107.616 L -210.052,-107.206 L -210.344,-106.87 L -210.661,-106.609  L -211.004,-106.423 L -211.372,-106.311 L -212.075,-106.287 L -212.644,-106.398 L -213.145,-106.621 L -213.58,-106.954  L -213.945,-107.393 L -214.221,-107.908 L -214.406,-108.492 L -214.509,-109.499 L -214.409,-110.515 L -214.231,-111.092  L -213.965,-111.591 L -213.611,-112.013 L -213.186,-112.337 L -212.691,-112.552 L -212.126,-112.661 L -210.726,-112.56  L -209.912,-112.242 L -209.556,-111.912 L -208.54,-112.141 L -208.89,-112.609 L -209.557,-113.088 L -210.43,-113.399  L -211.817,-113.538 L -212.647,-113.471 L -213.385,-113.271 L -214.032,-112.938 L -214.585,-112.471 L -215.019,-111.885  L -215.328,-111.194 L -215.514,-110.399 L -215.569,-109.193 L -215.407,-108.062 L -215.144,-107.315 L -214.592,-106.502  L -214.052,-106.026 L -213.398,-105.681 L -212.382,-105.44 L -212.104,-105.417 z M -192.543,-105.449 L -191.752,-105.658 L -191.32,-105.896 L -190.966,-106.211 L -190.7,-106.592 L -190.522,-107.037  L -190.428,-108.021 L -190.59,-108.729 L -190.967,-109.302 L -191.368,-109.62 L -192.047,-109.88 L -191.457,-110.096  L -191.006,-110.49 L -190.72,-111.01 L -190.625,-111.607 L -190.721,-112.22 L -191.011,-112.726 L -191.49,-113.129  L -192.124,-113.404 L -192.9,-113.53 L -193.744,-113.504 L -194.462,-113.329 L -195.045,-113.004 L -195.462,-112.558  L -195.687,-112.018 L -195.707,-111.299 L -195.516,-110.741 L -195.141,-110.27 L -194.621,-109.966 L -194.308,-109.855  L -194.956,-109.62 L -195.476,-109.169 L -195.8,-108.565 L -195.908,-107.822 L -195.808,-107.021 L -195.63,-106.571  L -195.364,-106.186 L -195.004,-105.876 L -194.321,-105.562 L -193.48,-105.419 z M -194.227,-110.52 L -194.566,-110.878 L -194.708,-111.383 L -194.661,-111.93 L -194.423,-112.34 L -193.982,-112.606  L -193.19,-112.725 L -192.524,-112.65 L -192.262,-112.557 L -192.047,-112.426 L -191.881,-112.259 L -191.762,-112.053  L -191.69,-111.811 L -191.692,-111.223 L -191.895,-110.741 L -192.286,-110.444 L -192.543,-110.356 L -193.538,-110.306  z M -193.544,-106.249 L -193.895,-106.329 L -194.192,-106.462 L -194.435,-106.648 L -194.624,-106.887 L -194.759,-107.18  L -194.84,-107.525 L -194.84,-108.261 L -194.624,-108.82 L -194.186,-109.231 L -193.563,-109.447 L -192.631,-109.42  L -192.04,-109.182 L -191.72,-108.878 L -191.527,-108.467 L -191.47,-107.729 L -191.632,-107.005 L -191.895,-106.629  L -192.26,-106.381 L -192.937,-106.229 z M -62.8702,1.5875 L 123.171,1.5875 L 100.97,23.8129 L 76.0341,23.8214 L 75.5547,23.9501 L 75.138,24.2206  L 74.8253,24.6062 L 74.6474,25.0702 L 74.6214,25.5663 L 74.7501,26.0457 L 75.0206,26.4623 L 75.4062,26.7751  L 75.8702,26.953 L 76.2,26.9875 L 228.6,26.9875 L 229.09,26.91 L 229.533,26.6844 L 229.884,26.3333  L 230.11,25.8907 L 230.188,25.4 L 230.11,24.9097 L 229.884,24.4671 L 229.533,24.116 L 229.09,23.8904  L 228.6,23.8125 L 203.839,23.821 L 181.629,1.5875 L 228.6,1.5875 L 228.6,3.175 L 230.188,3.175  L 230.188,-3.175 L 228.6,-3.175 L 228.6,-1.5875 L 51.4387,-1.57859 L 0.933276,-52.084 L 0.490668,-52.3096  L 0,-52.3875 L -50.1609,-52.3786 L -72.3712,-74.6125 L 0,-74.6125 L 0,-73.025 L 1.5875,-73.025  L 1.5875,-79.375 L 0,-79.375 L 0,-77.7875 L -151.77,-77.7875 L -176.867,-102.884 L -177.31,-103.11  L -177.8,-103.188 L -228.766,-103.179 L -229.245,-103.05 L -229.662,-102.779 L -229.975,-102.393 L -230.153,-101.93  L -230.179,-101.434 L -230.05,-100.955 L -229.779,-100.538 L -229.394,-100.225 L -228.93,-100.047 L -228.6,-100.012  L -178.43,-100.012 L -156.229,-77.7875 L -228.766,-77.7786 L -229.245,-77.6499 L -229.662,-77.3794 L -229.975,-76.9934  L -230.153,-76.5298 L -230.179,-76.0341 L -230.05,-75.5547 L -229.779,-75.138 L -229.394,-74.8253 L -228.93,-74.6474  L -228.6,-74.6125 L -76.8302,-74.6125 L -54.6292,-52.3875 L -228.766,-52.3786 L -229.245,-52.2499 L -229.662,-51.9794  L -229.975,-51.5934 L -230.153,-51.1298 L -230.179,-50.6341 L -230.05,-50.1547 L -229.779,-49.738 L -229.394,-49.4253  L -228.93,-49.2474 L -228.6,-49.2125 L -156.229,-49.2125 L -178.43,-26.9875 L -228.766,-26.9786 L -229.245,-26.8499  L -229.662,-26.5794 L -229.975,-26.1934 L -230.153,-25.7298 L -230.179,-25.2341 L -230.05,-24.7547 L -229.779,-24.338  L -229.394,-24.0253 L -228.93,-23.8474 L -228.6,-23.8125 L -177.8,-23.8125 L -177.31,-23.8904 L -176.867,-24.116  L -151.77,-49.2125 L -71.1391,-49.2125 L -118.739,-1.5875 L -228.766,-1.57859 L -229.245,-1.44991 L -229.662,-1.17939  L -229.975,-0.793362 L -230.153,-0.329825 L -230.179,0.165881 L -230.05,0.645309 L -229.779,1.06195 L -229.394,1.37472  L -228.93,1.55262 L -228.6,1.5875 L -156.229,1.5875 L -178.43,23.8125 L -228.766,23.8214 L -229.245,23.9501  L -229.662,24.2206 L -229.975,24.6066 L -230.153,25.0702 L -230.179,25.5659 L -230.05,26.0453 L -229.779,26.462  L -229.394,26.7747 L -228.93,26.9526 L -228.6,26.9875 L -177.8,26.9875 L -177.31,26.9096 L -176.867,26.684  L -151.762,1.57936 L -130.829,1.5875 L -178.43,49.2125 L -228.766,49.2214 L -229.245,49.3501 L -229.662,49.6206  L -229.975,50.0066 L -230.153,50.4702 L -230.179,50.9659 L -230.05,51.4453 L -229.779,51.862 L -229.394,52.1747  L -228.93,52.3526 L -228.6,52.3875 L -177.8,52.3875 L -177.31,52.3096 L -176.738,51.9794 L -126.37,1.5875  L -92.7292,1.5875 L -165.73,74.6125 L -228.766,74.6214 L -229.245,74.7501 L -229.662,75.0206 L -229.975,75.4066  L -230.153,75.8702 L -230.179,76.3659 L -230.05,76.8453 L -229.779,77.262 L -229.394,77.5747 L -228.93,77.7526  L -228.6,77.7875 L -165.1,77.7875 L -164.61,77.7096 L -164.038,77.3794 L -88.2617,1.57936 L -67.3292,1.5875  L -120.683,54.9377 L -121.805,53.8153 L -122.928,54.9377 L -118.438,59.4278 L -117.315,58.3054 L -118.438,57.1829  z M -114.281,-1.5875 L -66.68,-49.2125 L -0.630194,-49.2125 L 46.9708,-1.5875 z M -13.4073,-6.22249 L -9.49554,-6.22249 L -8.50529,-3.80984 L -7.41311,-3.80984 L -10.842,-11.9376 L -12.0357,-11.9376  L -15.4901,-3.80984 L -14.398,-3.80984 z M -13.0519,-7.06081 L -11.4516,-11.1501 L -10.9435,-9.75328 L -9.82576,-7.06081 z M -18.4574,-11.9376 L -19.448,-11.9376 L -19.448,-9.21998 L -19.8767,-9.7994 L -20.6042,-10.2029 L -21.4037,-10.3122  L -21.9394,-10.261 L -22.4041,-10.1071 L -22.7967,-9.85134 L -23.1184,-9.49283 L -23.3683,-9.03201 L -23.547,-8.46886  L -23.654,-7.8034 L -23.6811,-6.64184 L -23.5501,-5.61322 L -23.2618,-4.81288 L -22.9815,-4.41252 L -22.6261,-4.11719  L -22.1944,-3.9203 L -21.6863,-3.82186 L -20.6042,-3.90906 L -19.9813,-4.21292 L -19.5209,-4.78033 L -19.448,-4.92722  L -19.3717,-3.80984 L -18.4318,-3.80984 z M -21.5165,-4.65747 L -21.9653,-4.84079 L -22.2928,-5.18108 L -22.5095,-5.7074 L -22.6428,-6.74261 L -22.5595,-8.17198  L -22.3762,-8.76381 L -22.0878,-9.17076 L -21.6797,-9.41725 L -21.1499,-9.49942 L -20.5507,-9.41725 L -20.0875,-9.17076  L -19.7593,-8.76458 L -19.5496,-8.18477 L -19.448,-7.11158 L -19.5496,-6.00661 L -19.7593,-5.39463 L -20.0875,-4.9652  L -20.5507,-4.70824 L -20.9352,-4.63189 z M -36.5796,-4.67336 L -40.6692,-4.67336 L -40.6692,-11.9376 L -41.7358,-11.9376 L -41.7358,-3.80984 L -36.5796,-3.80984  z M -32.3321,-3.8955 L -31.9523,-4.00247 L -31.6163,-4.15246 L -31.3237,-4.34547 L -31.0748,-4.58112 L -30.8698,-4.85978  L -30.7082,-5.18108 L -31.5973,-5.43533 L -31.9686,-4.97334 L -32.6259,-4.67956 L -33.629,-4.64778 L -34.2894,-4.85087  L -34.6448,-5.14232 L -34.9145,-5.7074 L -34.9754,-6.24807 L -30.5303,-6.24807 L -30.5729,-7.31738 L -30.7001,-8.11191  L -30.9125,-8.78396 L -31.2097,-9.33431 L -31.5919,-9.76181 L -32.0589,-10.0676 L -32.6112,-10.2509 L -33.248,-10.3122  L -33.8817,-10.2598 L -34.4355,-10.1025 L -34.9103,-9.84048 L -35.3056,-9.47384 L -35.6168,-9.02154 L -35.8389,-8.477  L -35.9722,-7.84022 L -36.0056,-6.71161 L -35.9168,-5.98762 L -35.7389,-5.36556 L -35.4723,-4.84467 L -35.1172,-4.4319  L -34.6793,-4.12727 L -34.1584,-3.92379 L -33.5553,-3.82225 L -33.2228,-3.80984 z M -34.9498,-7.06081 L -34.8231,-8.07703 L -34.5944,-8.67234 L -34.2436,-9.12774 L -33.7921,-9.4064 L -33.248,-9.49942  L -32.7112,-9.41725 L -32.2814,-9.17076 L -31.9519,-8.75838 L -31.7112,-8.15958 L -31.5461,-7.06081 z M -27.2623,-3.88581 L -26.5592,-4.19703 L -25.962,-4.80009 L -25.7256,-5.13031 L -25.5589,-4.30168 L -25.3004,-3.98115  L -25.1163,-3.88581 L -23.8462,-3.91139 L -23.8462,-4.67336 L -24.4749,-4.67956 L -24.7035,-4.97954 L -24.7609,-5.53687  L -24.7973,-8.70722 L -24.9888,-9.31067 L -25.345,-9.77847 L -25.8647,-10.1036 L -26.5495,-10.2788 L -27.0972,-10.3122  L -27.6251,-10.2881 L -28.0909,-10.2168 L -28.4948,-10.0978 L -28.837,-9.93118 L -29.1172,-9.71685 L -29.3354,-9.45485  L -29.492,-9.14518 L -29.5862,-8.78822 L -28.5448,-8.68629 L -28.3021,-9.1913 L -27.8626,-9.41997 L -26.9565,-9.49206  L -26.5255,-9.38509 L -26.1945,-9.14905 L -25.962,-8.77698 L -25.7969,-8.0278 L -25.7763,-7.06081 L -27.8243,-7.01159  L -28.6219,-6.84842 L -29.2052,-6.57828 L -29.5924,-6.20427 L -29.8005,-5.73066 L -29.8117,-5.01132 L -29.6618,-4.56716  L -29.3831,-4.21602 L -28.9568,-3.96836 L -28.1886,-3.81605 z M -28.5851,-4.85319 L -28.7948,-5.25317 L -28.6432,-5.78918 L -27.9111,-6.14497 L -26.9193,-6.22249 L -25.7763,-6.24807  L -25.8756,-5.51129 L -26.4271,-4.95164 L -26.8518,-4.75862 L -28.0909,-4.64739 z M 199.371,23.8125 L 105.429,23.8125 L 127.631,1.5875 L 177.17,1.5875 z M 157.321,20.3499 L 157.712,20.2123 L 158.044,19.9821 L 158.316,19.66 L 158.61,19.0147 L 158.768,18.1834  L 158.768,16.8594 L 158.61,16.0262 L 158.316,15.3929 L 158.055,15.0704 L 157.731,14.8402 L 157.344,14.7022  L 156.648,14.6673 L 156.206,14.7561 L 155.832,14.934 L 155.524,15.2006 L 155.288,15.5564 L 155.052,16.2626  L 154.937,17.5264 L 155.058,18.7582 L 155.307,19.4655 L 155.548,19.8325 L 155.85,20.1089 L 156.212,20.2929  L 156.634,20.3844 z M 156.571,19.779 L 156.203,19.6038 L 155.928,19.2791 L 155.719,18.5613 L 155.666,16.9594 L 155.863,15.9176  L 156.103,15.5293 L 156.448,15.2936 L 156.894,15.215 L 157.32,15.2936 L 157.646,15.5293 L 157.93,16.0831  L 158.083,17.2323 L 158.011,18.5423 L 157.783,19.2535 L 157.523,19.5942 L 157.163,19.7775 L 157.021,19.8034  z M 152.654,18.4787 L 153.426,16.7273 L 154.307,15.3165 L 154.307,14.7324 L 150.599,14.7324 L 150.599,15.3417  L 153.621,15.3417 L 152.526,17.1397 L 151.898,18.6628 L 151.669,19.7806 L 151.64,20.3201 L 152.377,20.3201  z M 149.892,19.7108 L 148.546,19.7108 L 148.546,14.7324 L 147.886,14.7324 L 146.565,15.6467 L 146.565,16.3071  L 147.809,15.4181 L 147.809,19.7108 L 146.387,19.7108 L 146.387,20.3201 L 149.892,20.3201 z M 69.364,-95.8593 L 69.7705,-94.1067 L 71.2437,-88.9 L 72.5138,-88.9 L 74.9776,-97.0278 L 73.8854,-97.0278  L 71.8534,-89.8395 L 71.3197,-91.9479 L 69.8721,-97.0278 L 68.8559,-97.0278 L 66.8494,-89.8395 L 66.3413,-91.8463  L 64.8174,-97.0278 L 63.7,-97.0278 L 66.189,-88.9 L 67.4591,-88.9 z M 88.8504,-89.0267 L 88.8504,-89.7887 L 87.9357,-89.7569 L 87.666,-90.0081 L 87.5803,-90.5507 L 87.5803,-94.5896  L 88.7485,-94.5896 L 88.7485,-95.4023 L 87.5803,-95.4023 L 87.5803,-97.0278 L 86.8943,-97.0278 L 86.6149,-95.4023  L 85.8785,-95.4023 L 85.8785,-94.5896 L 86.5641,-94.5896 L 86.5835,-90.0085 L 86.7393,-89.4655 L 86.8753,-89.2616  L 87.0505,-89.1035 L 87.2644,-88.9903 L 87.5171,-88.9225 z M 78.1352,-88.9857 L 78.515,-89.0926 L 78.851,-89.2426 L 79.1436,-89.4356 L 79.3924,-89.6713 L 79.5975,-89.9499  L 79.7591,-90.2712 L 78.87,-90.5255 L 78.4987,-90.0635 L 77.8414,-89.7697 L 76.8383,-89.7379 L 76.1783,-89.941  L 75.8229,-90.2325 L 75.5531,-90.7976 L 75.4923,-91.3382 L 79.937,-91.3382 L 79.8943,-92.4075 L 79.7672,-93.2021  L 79.5548,-93.8741 L 79.2576,-94.4245 L 78.8754,-94.852 L 78.4084,-95.1578 L 77.8561,-95.3411 L 77.2193,-95.4023  L 76.5856,-95.35 L 76.0322,-95.1926 L 75.5574,-94.9306 L 75.1621,-94.564 L 74.8509,-94.1117 L 74.6288,-93.5672  L 74.4955,-92.9304 L 74.4621,-91.8018 L 74.5509,-91.0778 L 74.7288,-90.4557 L 74.9954,-89.9348 L 75.3504,-89.5221  L 75.7884,-89.2174 L 76.3089,-89.0139 L 76.912,-88.9124 L 77.2445,-88.9 z M 75.5179,-92.151 L 75.6446,-93.1672 L 75.8733,-93.7625 L 76.2236,-94.2179 L 76.6752,-94.4966 L 77.2193,-94.5896  L 77.7561,-94.5074 L 78.1859,-94.2609 L 78.5154,-93.8485 L 78.756,-93.2497 L 78.9212,-92.151 z M 84.7677,-89.0884 L 85.4022,-89.3825 L 85.851,-89.8015 L 86.0351,-90.1445 L 86.0672,-91.2444 L 85.4308,-92.0359  L 81.8714,-93.2939 L 81.719,-93.7513 L 81.8144,-94.126 L 82.1,-94.3861 L 82.967,-94.5768 L 84.3177,-94.4752  L 84.9324,-94.145 L 85.1227,-93.8272 L 86.037,-93.9292 L 85.8324,-94.4551 L 85.4847,-94.8531 L 84.813,-95.2023  L 83.9115,-95.3798 L 82.7717,-95.3736 L 82.0109,-95.2236 L 81.4144,-94.945 L 81.0121,-94.5605 L 80.7951,-94.0543  L 80.811,-93.2052 L 81.1206,-92.6893 L 81.7853,-92.2521 L 84.7068,-91.3971 L 85.0975,-91.0208 L 85.1669,-90.5608  L 85.0049,-90.1639 L 84.6258,-89.8875 L 83.5972,-89.7162 L 82.2748,-89.8271 L 81.683,-90.1038 L 81.4067,-90.4658  L 81.3636,-90.5763 L 80.4745,-90.3984 L 80.6947,-89.8806 L 81.0509,-89.4697 L 81.5501,-89.1721 L 82.4709,-88.95  L 83.9685,-88.9298 z M -193.098,-81.907 L -192.514,-83.7833 L -191.331,-86.0103 L -190.498,-87.3249 L -190.498,-88.1376 L -195.807,-88.1376  L -195.807,-87.2993 L -191.463,-87.2993 L -192.79,-85.1723 L -193.494,-83.7519 L -193.962,-82.4578 L -194.24,-81.2121  L -194.333,-80.0098 L -193.292,-80.0098 z M -202.607,-80.2381 L -201.779,-80.6524 L -201.08,-81.2493 L -200.783,-81.6097 L -200.783,-84.8863 L -203.831,-84.8863  L -203.831,-83.9976 L -201.749,-83.9976 L -201.749,-82.0671 L -202.292,-81.4578 L -203.012,-81.0447 L -203.983,-80.8734  L -204.548,-80.9272 L -205.05,-81.0892 L -205.488,-81.359 L -205.863,-81.7369 L -206.152,-82.2082 L -206.358,-82.7593  L -206.513,-83.7344 L -206.484,-84.8165 L -206.275,-85.7262 L -206.037,-86.2215 L -205.721,-86.6323 L -205.334,-86.9466  L -204.876,-87.1563 L -204.349,-87.261 L -202.896,-87.1381 L -202.209,-86.7846 L -201.952,-86.5122 L -200.936,-86.7408  L -201.425,-87.3757 L -202.079,-87.8074 L -202.929,-88.0551 L -204.009,-88.1376 L -204.812,-88.071 L -205.52,-87.871  L -206.133,-87.5377 L -206.65,-87.071 L -207.061,-86.4947 L -207.355,-85.8072 L -207.532,-85.0088 L -207.583,-83.7926  L -207.421,-82.6624 L -207.158,-81.9148 L -206.631,-81.102 L -206.111,-80.6257 L -205.488,-80.2811 L -204.523,-80.0397  L -203.509,-80.035 z M -211.263,-80.0525 L -210.497,-80.2777 L -209.81,-80.6955 L -209.216,-81.2989 L -208.729,-82.0814 L -208.464,-82.7019  L -209.328,-83.2608 L -209.543,-82.7012 L -209.785,-82.2163 L -210.052,-81.8059 L -210.344,-81.4702 L -210.661,-81.209  L -211.004,-81.0226 L -211.372,-80.9106 L -212.075,-80.8873 L -212.644,-80.9982 L -213.145,-81.2206 L -213.58,-81.5539  L -213.945,-81.9931 L -214.221,-82.5078 L -214.406,-83.0918 L -214.509,-84.0991 L -214.409,-85.1146 L -214.231,-85.6924  L -213.965,-86.1909 L -213.611,-86.6129 L -213.186,-86.9366 L -212.691,-87.1524 L -212.126,-87.2606 L -210.726,-87.1598  L -209.912,-86.8424 L -209.556,-86.5122 L -208.54,-86.7408 L -208.89,-87.2086 L -209.557,-87.6881 L -210.43,-87.9989  L -211.817,-88.1376 L -212.647,-88.071 L -213.385,-87.871 L -214.032,-87.5377 L -214.585,-87.071 L -215.019,-86.485  L -215.328,-85.7944 L -215.514,-84.9991 L -215.569,-83.7926 L -215.407,-82.6624 L -215.144,-81.9148 L -214.592,-81.102  L -214.052,-80.6257 L -213.398,-80.2811 L -212.382,-80.0397 L -212.104,-80.0172 z M -14.9347,-80.0781 L -14.3553,-80.2827 L -13.8554,-80.6241 L -13.4345,-81.102 L -13.1011,-81.7066 L -12.8632,-82.4291  L -12.7202,-83.2689 L -12.6833,-84.6995 L -12.8438,-85.9343 L -13.0581,-86.6025 L -13.3585,-87.147 L -13.7426,-87.5803  L -14.2092,-87.89 L -14.7584,-88.0756 L -15.3901,-88.1376 L -16.2486,-88.0446 L -16.9571,-87.7663 L -17.5129,-87.3106  L -17.7795,-86.9296 L -17.9574,-86.485 L -18.0574,-85.6994 L -17.9679,-84.9371 L -17.7001,-84.2894 L -17.4222,-83.9212  L -16.8664,-83.5189 L -16.1889,-83.3023 L -15.1886,-83.3038 L -14.4507,-83.5658 L -13.8809,-84.048 L -13.6631,-84.4038  L -13.7499,-83.2193 L -13.9728,-82.2558 L -14.3235,-81.5225 L -14.6158,-81.1795 L -14.9584,-80.9509 L -15.3522,-80.8369  L -15.8231,-80.8377 L -16.261,-80.9582 L -16.604,-81.1993 L -16.8517,-81.5613 L -16.9397,-81.7876 L -17.9047,-81.6353  L -17.5749,-80.8923 L -17.2269,-80.4935 L -16.6195,-80.1587 L -15.8227,-80.0157 z M -16.3746,-84.3166 L -16.7106,-84.6243 L -16.9807,-85.1863 L -17.0346,-85.8847 L -16.8726,-86.5226 L -16.4963,-86.9943  L -15.9409,-87.2641 L -15.2305,-87.3168 L -14.7363,-87.1978 L -14.3352,-86.9358 L -13.9433,-86.3893 L -13.772,-85.675  L -13.8933,-84.9037 L -14.422,-84.3483 L -14.7983,-84.1735 L -15.7905,-84.1007 z M -24.8074,-80.2381 L -23.9788,-80.6524 L -23.2804,-81.2493 L -22.9835,-81.6097 L -22.9835,-84.8863 L -26.031,-84.8863  L -26.031,-83.9976 L -23.9485,-83.9976 L -23.9485,-82.0671 L -24.4923,-81.4578 L -25.212,-81.0447 L -26.1833,-80.8734  L -26.7484,-80.9272 L -27.2503,-81.0892 L -27.6882,-81.359 L -28.063,-81.7369 L -28.3518,-82.2082 L -28.5583,-82.7593  L -28.713,-83.7344 L -28.6835,-84.8165 L -28.4754,-85.7262 L -28.237,-86.2215 L -27.9208,-86.6323 L -27.5336,-86.9466  L -27.0763,-87.1563 L -26.5492,-87.261 L -25.0958,-87.1381 L -24.409,-86.7846 L -24.1516,-86.5122 L -23.1358,-86.7408  L -23.6245,-87.3757 L -24.2788,-87.8074 L -25.1295,-88.0551 L -26.2089,-88.1376 L -27.0119,-88.071 L -27.72,-87.871  L -28.3328,-87.5377 L -28.8502,-87.071 L -29.2614,-86.4947 L -29.5552,-85.8072 L -29.7315,-85.0088 L -29.7835,-83.7926  L -29.6214,-82.6624 L -29.3583,-81.9148 L -28.8312,-81.102 L -28.3111,-80.6257 L -27.6882,-80.2811 L -26.7232,-80.0397  L -25.7085,-80.035 z M -33.4627,-80.0525 L -32.6972,-80.2777 L -32.0104,-80.6955 L -31.4163,-81.2989 L -30.9291,-82.0814 L -30.664,-82.7019  L -31.5275,-83.2608 L -31.7434,-82.7012 L -31.9849,-82.2163 L -32.2515,-81.8059 L -32.5437,-81.4702 L -32.8612,-81.209  L -33.2042,-81.0226 L -33.5724,-80.9106 L -34.275,-80.8873 L -34.8436,-80.9982 L -35.3451,-81.2206 L -35.78,-81.5539  L -36.1455,-81.9931 L -36.4214,-82.5078 L -36.6055,-83.0918 L -36.7094,-84.0991 L -36.6094,-85.1146 L -36.4315,-85.6924  L -36.1648,-86.1909 L -35.8114,-86.6129 L -35.3862,-86.9366 L -34.8909,-87.1524 L -34.3258,-87.2606 L -32.9263,-87.1598  L -32.112,-86.8424 L -31.7562,-86.5122 L -30.7404,-86.7408 L -31.0904,-87.2086 L -31.757,-87.6881 L -32.6298,-87.9989  L -34.0169,-88.1376 L -34.8471,-88.071 L -35.5854,-87.871 L -36.2315,-87.5377 L -36.7854,-87.071 L -37.2187,-86.485  L -37.5283,-85.7944 L -37.714,-84.9991 L -37.7694,-83.7926 L -37.6074,-82.6624 L -37.3442,-81.9148 L -36.7919,-81.102  L -36.2524,-80.6257 L -35.5978,-80.2811 L -34.582,-80.0397 L -34.3041,-80.0172 z M -36.8772,-55.4734 L -40.9669,-55.4734 L -40.9669,-62.7376 L -42.0335,-62.7376 L -42.0335,-54.6098 L -36.8772,-54.6098  z M -18.7551,-62.7376 L -19.7457,-62.7376 L -19.7457,-60.02 L -20.1743,-60.5994 L -20.9018,-61.0029 L -21.7014,-61.1122  L -22.237,-61.061 L -22.7017,-60.9071 L -23.0943,-60.6513 L -23.416,-60.2928 L -23.666,-59.832 L -23.8447,-59.2689  L -23.9516,-58.6034 L -23.9788,-57.4418 L -23.8478,-56.4132 L -23.5594,-55.6129 L -23.2792,-55.2125 L -22.9238,-54.9172  L -22.492,-54.7203 L -21.9839,-54.6219 L -20.9018,-54.7091 L -20.279,-55.0129 L -19.8186,-55.5803 L -19.7457,-55.7272  L -19.6693,-54.6098 L -18.7295,-54.6098 z M -21.8142,-55.4575 L -22.263,-55.6408 L -22.5905,-55.9811 L -22.8071,-56.5074 L -22.9405,-57.5426 L -22.8571,-58.972  L -22.6738,-59.5638 L -22.3855,-59.9708 L -21.9773,-60.2173 L -21.4475,-60.2994 L -20.8483,-60.2173 L -20.3852,-59.9708  L -20.0569,-59.5646 L -19.8472,-58.9848 L -19.7457,-57.9116 L -19.8472,-56.8066 L -20.0569,-56.1946 L -20.3852,-55.7652  L -20.8483,-55.5082 L -21.2328,-55.4319 z M -202.607,-54.8381 L -201.779,-55.2524 L -201.08,-55.8493 L -200.783,-56.2097 L -200.783,-59.4863 L -203.831,-59.4863  L -203.831,-58.5976 L -201.749,-58.5976 L -201.749,-56.6671 L -202.292,-56.0578 L -203.012,-55.6447 L -203.983,-55.4734  L -204.548,-55.5272 L -205.05,-55.6892 L -205.488,-55.959 L -205.863,-56.3369 L -206.152,-56.8082 L -206.358,-57.3593  L -206.513,-58.3344 L -206.484,-59.4165 L -206.275,-60.3262 L -206.037,-60.8215 L -205.721,-61.2323 L -205.334,-61.5466  L -204.876,-61.7563 L -204.349,-61.861 L -202.896,-61.7381 L -202.209,-61.3846 L -201.952,-61.1122 L -200.936,-61.3408  L -201.425,-61.9757 L -202.079,-62.4074 L -202.929,-62.6551 L -204.009,-62.7376 L -204.812,-62.671 L -205.52,-62.471  L -206.133,-62.1377 L -206.65,-61.671 L -207.061,-61.0947 L -207.355,-60.4072 L -207.532,-59.6088 L -207.583,-58.3926  L -207.421,-57.2624 L -207.158,-56.5148 L -206.631,-55.702 L -206.111,-55.2257 L -205.488,-54.8811 L -204.523,-54.6397  L -203.509,-54.635 z M -9.8118,-54.699 L -8.9855,-54.9668 L -8.53785,-55.2447 L -8.18206,-55.5939 L -7.9282,-56.0067 L -7.77549,-56.483  L -7.73364,-57.2279 L -7.86464,-57.791 L -8.1526,-58.2755 L -8.59172,-58.672 L -9.16068,-58.9495 L -9.85831,-59.1053  L -9.16649,-59.334 L -8.66459,-59.715 L -8.34096,-60.2483 L -8.23283,-60.8835 L -8.27895,-61.318 L -8.41693,-61.6947  L -8.64715,-62.0133 L -8.96961,-62.2741 L -9.38392,-62.4768 L -9.89009,-62.6218 L -10.4889,-62.7086 L -14.2274,-62.7376  L -14.2274,-54.6098 L -10.8238,-54.6098 z M -13.1604,-59.4863 L -13.1604,-61.8993 L -10.554,-61.8602 L -9.78235,-61.6199 L -9.48818,-61.3796 L -9.32966,-61.0389  L -9.32966,-60.4486 L -9.48818,-60.07 L -9.90405,-59.72 L -10.5424,-59.5293 L -11.1792,-59.4863 z M -13.1604,-58.6484 L -10.4447,-58.6236 L -10.006,-58.5499 L -9.63507,-58.4267 L -9.3316,-58.2546 L -9.09518,-58.0333  L -8.92659,-57.7624 L -8.82543,-57.4426 L -8.82349,-56.6923 L -8.99015,-56.2163 L -9.29982,-55.8543 L -9.74747,-55.6067  L -10.611,-55.4544 L -13.1604,-55.4478 z M -211.263,-54.6525 L -210.497,-54.8777 L -209.81,-55.2955 L -209.216,-55.8989 L -208.729,-56.6814 L -208.464,-57.3019  L -209.328,-57.8608 L -209.543,-57.3012 L -209.785,-56.8163 L -210.052,-56.4059 L -210.344,-56.0702 L -210.661,-55.809  L -211.004,-55.6226 L -211.372,-55.5106 L -212.075,-55.4873 L -212.644,-55.5982 L -213.145,-55.8206 L -213.58,-56.1539  L -213.945,-56.5931 L -214.221,-57.1078 L -214.406,-57.6918 L -214.509,-58.6991 L -214.409,-59.7146 L -214.231,-60.2924  L -213.965,-60.7909 L -213.611,-61.2129 L -213.186,-61.5366 L -212.691,-61.7524 L -212.126,-61.8606 L -210.726,-61.7598  L -209.912,-61.4424 L -209.556,-61.1122 L -208.54,-61.3408 L -208.89,-61.8086 L -209.557,-62.2881 L -210.43,-62.5989  L -211.817,-62.7376 L -212.647,-62.671 L -213.385,-62.471 L -214.032,-62.1377 L -214.585,-61.671 L -215.019,-61.085  L -215.328,-60.3944 L -215.514,-59.5991 L -215.569,-58.3926 L -215.407,-57.2624 L -215.144,-56.5148 L -214.592,-55.702  L -214.052,-55.2257 L -213.398,-54.8811 L -212.382,-54.6397 L -212.104,-54.6172 z M -192.462,-54.6509 L -191.722,-54.8676 L -191.313,-55.1152 L -190.966,-55.4489 L -190.7,-55.8524 L -190.522,-56.3159  L -190.422,-57.1244 L -190.515,-57.879 L -190.793,-58.5053 L -191.254,-59.0003 L -191.857,-59.3278 L -192.588,-59.4766  L -193.636,-59.3774 L -194.403,-58.9774 L -194.841,-58.4197 L -194.773,-59.5816 L -194.57,-60.5153 L -194.359,-61.0106  L -194.081,-61.4106 L -193.756,-61.6962 L -193.382,-61.8675 L -192.962,-61.9249 L -192.487,-61.8644 L -192.105,-61.6834  L -191.814,-61.3819 L -191.615,-60.9598 L -190.65,-61.1374 L -190.792,-61.5125 L -190.976,-61.8377 L -191.202,-62.1125  L -191.469,-62.3377 L -191.779,-62.5125 L -192.131,-62.6376 L -192.525,-62.7128 L -193.295,-62.7202 L -193.905,-62.5807  L -194.438,-62.3012 L -194.895,-61.8819 L -195.268,-61.3323 L -195.544,-60.6688 L -195.728,-59.8878 L -195.832,-58.496  L -195.732,-57.1957 L -195.554,-56.4717 L -195.287,-55.8621 L -194.927,-55.3679 L -194.483,-54.9966 L -193.962,-54.749  L -193.365,-54.625 z M -193.416,-55.4544 L -193.885,-55.621 L -194.282,-55.9303 L -194.625,-56.5338 L -194.74,-57.2767 L -194.625,-57.8608  L -194.39,-58.1992 L -193.9,-58.5247 L -193.268,-58.6677 L -192.564,-58.6131 L -192.008,-58.343 L -191.616,-57.8872  L -191.445,-57.2585 L -191.498,-56.545 L -191.768,-55.9733 L -192.106,-55.6652 L -192.703,-55.4493 z M -32.6298,-54.6955 L -32.25,-54.8025 L -31.9139,-54.9525 L -31.6213,-55.1455 L -31.3725,-55.3811 L -31.1675,-55.6598  L -31.0059,-55.9811 L -31.895,-56.2353 L -32.2662,-55.7733 L -32.9236,-55.4796 L -33.9266,-55.4478 L -34.587,-55.6509  L -34.9424,-55.9423 L -35.2122,-56.5074 L -35.273,-57.0481 L -30.828,-57.0481 L -30.8706,-58.1174 L -30.9977,-58.9119  L -31.2101,-59.584 L -31.5074,-60.1343 L -31.8895,-60.5618 L -32.3566,-60.8676 L -32.9088,-61.0509 L -33.5456,-61.1122  L -34.1793,-61.0598 L -34.7332,-60.9025 L -35.2079,-60.6405 L -35.6033,-60.2738 L -35.9145,-59.8215 L -36.1366,-59.277  L -36.2699,-58.6402 L -36.3032,-57.5116 L -36.2145,-56.7876 L -36.0366,-56.1656 L -35.7699,-55.6447 L -35.4149,-55.2319  L -34.9769,-54.9273 L -34.456,-54.7238 L -33.853,-54.6222 L -33.5204,-54.6098 z M -35.2475,-57.8608 L -35.1207,-58.877 L -34.8921,-59.4723 L -34.5413,-59.9277 L -34.0898,-60.2064 L -33.5456,-60.2994  L -33.0088,-60.2173 L -32.579,-59.9708 L -32.2496,-59.5584 L -32.0089,-58.9596 L -31.8438,-57.8608 z M -27.5599,-54.6858 L -26.8569,-54.997 L -26.2596,-55.6001 L -26.0232,-55.9303 L -25.8566,-55.1017 L -25.5977,-54.7812  L -25.4136,-54.6858 L -24.1439,-54.7114 L -24.1439,-55.4734 L -24.7725,-55.4796 L -25.0012,-55.7795 L -25.0585,-56.3369  L -25.095,-59.5072 L -25.2864,-60.1107 L -25.6422,-60.5785 L -26.1624,-60.9036 L -26.8472,-61.0788 L -27.3948,-61.1122  L -27.9227,-61.0881 L -28.3886,-61.0168 L -28.7924,-60.8978 L -29.1347,-60.7312 L -29.4149,-60.5168 L -29.6331,-60.2548  L -29.7897,-59.9452 L -29.8838,-59.5882 L -28.8424,-59.4863 L -28.5998,-59.9913 L -28.1603,-60.22 L -27.2542,-60.2921  L -26.8232,-60.1851 L -26.4922,-59.9491 L -26.2596,-59.577 L -26.0945,-58.8278 L -26.074,-57.8608 L -28.1219,-57.8116  L -28.9196,-57.6484 L -29.5029,-57.3783 L -29.89,-57.0043 L -30.0982,-56.5307 L -30.1094,-55.8113 L -29.9594,-55.3672  L -29.6807,-55.016 L -29.2544,-54.7684 L -28.4862,-54.616 z M -28.8827,-55.6532 L -29.0924,-56.0532 L -28.9409,-56.5892 L -28.2087,-56.945 L -27.2169,-57.0225 L -26.074,-57.0481  L -26.1732,-56.3113 L -26.7247,-55.7516 L -27.1495,-55.5586 L -28.3886,-55.4474 z M -211.263,-29.2525 L -210.497,-29.4777 L -209.81,-29.8955 L -209.216,-30.4989 L -208.729,-31.2814 L -208.464,-31.9019  L -209.328,-32.4608 L -209.543,-31.9012 L -209.785,-31.4163 L -210.052,-31.0059 L -210.344,-30.6702 L -210.661,-30.409  L -211.004,-30.2226 L -211.372,-30.1106 L -212.075,-30.0873 L -212.644,-30.1982 L -213.145,-30.4206 L -213.58,-30.7539  L -213.945,-31.1931 L -214.221,-31.7078 L -214.406,-32.2918 L -214.509,-33.2991 L -214.409,-34.3146 L -214.231,-34.8924  L -213.965,-35.3909 L -213.611,-35.8129 L -213.186,-36.1366 L -212.691,-36.3524 L -212.126,-36.4606 L -210.726,-36.3598  L -209.912,-36.0424 L -209.556,-35.7122 L -208.54,-35.9408 L -208.89,-36.4086 L -209.557,-36.8881 L -210.43,-37.1989  L -211.817,-37.3376 L -212.647,-37.271 L -213.385,-37.071 L -214.032,-36.7377 L -214.585,-36.271 L -215.019,-35.685  L -215.328,-34.9944 L -215.514,-34.1991 L -215.569,-32.9926 L -215.407,-31.8624 L -215.144,-31.1148 L -214.592,-30.302  L -214.052,-29.8257 L -213.398,-29.4811 L -212.382,-29.2397 L -212.104,-29.2172 z M -192.63,-29.2509 L -191.812,-29.4676 L -191.358,-29.7152 L -190.98,-30.0493 L -190.694,-30.4559 L -190.503,-30.9256  L -190.408,-31.4593 L -190.441,-32.2449 L -190.674,-32.8926 L -191.107,-33.4259 L -191.493,-33.715 L -192.185,-33.9937  L -193.013,-34.0863 L -193.713,-34.015 L -194.327,-33.8007 L -194.689,-33.5786 L -194.511,-36.4993 L -190.879,-36.4993  L -190.879,-37.3376 L -195.426,-37.3376 L -195.705,-32.6895 L -194.74,-32.6895 L -193.735,-33.2143 L -193.018,-33.267  L -192.329,-33.105 L -191.807,-32.7298 L -191.558,-32.3465 L -191.438,-31.7244 L -191.558,-31.0194 L -191.807,-30.5993  L -192.184,-30.2795 L -192.844,-30.0509 L -193.568,-30.0408 L -194.123,-30.1869 L -194.549,-30.4788 L -194.844,-30.9171  L -194.943,-31.1907 L -195.959,-31.064 L -195.754,-30.4543 L -195.406,-29.959 L -194.911,-29.5792 L -194.282,-29.3304  L -193.8,-29.2397 z M -202.607,-29.4381 L -201.779,-29.8524 L -201.08,-30.4493 L -200.783,-30.8097 L -200.783,-34.0863 L -203.831,-34.0863  L -203.831,-33.1976 L -201.749,-33.1976 L -201.749,-31.2671 L -202.292,-30.6578 L -203.012,-30.2447 L -203.983,-30.0734  L -204.548,-30.1272 L -205.05,-30.2892 L -205.488,-30.559 L -205.863,-30.9369 L -206.152,-31.4082 L -206.358,-31.9593  L -206.513,-32.9344 L -206.484,-34.0165 L -206.275,-34.9262 L -206.037,-35.4215 L -205.721,-35.8323 L -205.334,-36.1466  L -204.876,-36.3563 L -204.349,-36.461 L -202.896,-36.3381 L -202.209,-35.9846 L -201.952,-35.7122 L -200.936,-35.9408  L -201.425,-36.5757 L -202.079,-37.0074 L -202.929,-37.2551 L -204.009,-37.3376 L -204.812,-37.271 L -205.52,-37.071  L -206.133,-36.7377 L -206.65,-36.271 L -207.061,-35.6947 L -207.355,-35.0072 L -207.532,-34.2088 L -207.583,-32.9926  L -207.421,-31.8624 L -207.158,-31.1148 L -206.631,-30.302 L -206.111,-29.8257 L -205.488,-29.4811 L -204.523,-29.2397  L -203.509,-29.235 z M -211.263,-3.85248 L -210.497,-4.07766 L -209.81,-4.49546 L -209.216,-5.09891 L -208.729,-5.88142 L -208.464,-6.50193  L -209.328,-7.06081 L -209.543,-6.50115 L -209.785,-6.0163 L -210.052,-5.60586 L -210.344,-5.27022 L -210.661,-5.009  L -211.004,-4.82257 L -211.372,-4.71057 L -212.075,-4.68731 L -212.644,-4.79816 L -213.145,-5.02062 L -213.58,-5.35394  L -213.945,-5.79306 L -214.221,-6.30775 L -214.406,-6.89183 L -214.509,-7.89913 L -214.409,-8.91457 L -214.231,-9.49244  L -213.965,-9.99086 L -213.611,-10.4129 L -213.186,-10.7366 L -212.691,-10.9524 L -212.126,-11.0606 L -210.726,-10.9598  L -209.912,-10.6424 L -209.556,-10.3122 L -208.54,-10.5408 L -208.89,-11.0086 L -209.557,-11.4881 L -210.43,-11.7989  L -211.817,-11.9376 L -212.647,-11.871 L -213.385,-11.671 L -214.032,-11.3377 L -214.585,-10.871 L -215.019,-10.285  L -215.328,-9.59438 L -215.514,-8.79908 L -215.569,-7.59256 L -215.407,-6.4624 L -215.144,-5.71477 L -214.592,-4.90203  L -214.052,-4.4257 L -213.398,-4.08115 L -212.382,-3.83969 L -212.104,-3.81721 z M -202.607,-4.03813 L -201.779,-4.45244 L -201.08,-5.0493 L -200.783,-5.40975 L -200.783,-8.68629 L -203.831,-8.68629  L -203.831,-7.79759 L -201.749,-7.79759 L -201.749,-5.86708 L -202.292,-5.25782 L -203.012,-4.84467 L -203.983,-4.67336  L -204.548,-4.72723 L -205.05,-4.88924 L -205.488,-5.15899 L -205.863,-5.53687 L -206.152,-6.00816 L -206.358,-6.55929  L -206.513,-7.53442 L -206.484,-8.61653 L -206.275,-9.52616 L -206.037,-10.0215 L -205.721,-10.4323 L -205.334,-10.7466  L -204.876,-10.9563 L -204.349,-11.061 L -202.896,-10.9381 L -202.209,-10.5846 L -201.952,-10.3122 L -200.936,-10.5408  L -201.425,-11.1757 L -202.079,-11.6074 L -202.929,-11.8551 L -204.009,-11.9376 L -204.812,-11.871 L -205.52,-11.671  L -206.133,-11.3377 L -206.65,-10.871 L -207.061,-10.2947 L -207.355,-9.60717 L -207.532,-8.80876 L -207.583,-7.59256  L -207.421,-6.4624 L -207.158,-5.71477 L -206.631,-4.90203 L -206.111,-4.4257 L -205.488,-4.08115 L -204.523,-3.83969  L -203.509,-3.83504 z M -191.387,-6.24807 L -190.295,-6.24807 L -190.295,-7.06081 L -191.387,-7.06081 L -191.387,-11.9376 L -192.454,-11.9376  L -196.137,-6.98484 L -196.137,-6.24807 L -192.327,-6.24807 L -192.327,-3.80984 L -191.387,-3.80984 z M -195.197,-7.06081 L -192.327,-10.8199 L -192.327,-7.06081 z M 79.0297,-4.67336 L 74.9404,-4.67336 L 74.9404,-11.9376 L 73.8738,-11.9376 L 73.8738,-3.80984 L 79.0297,-3.80984  z M 70.0639,-7.18793 L 73.3405,-11.9376 L 72.172,-11.9376 L 69.5306,-8.02587 L 66.9401,-11.9376 L 65.7716,-11.9376  L 68.997,-7.18793 L 68.997,-3.80984 L 70.0639,-3.80984 z M 63.3217,-3.89162 L 64.2383,-4.13812 L 64.7305,-4.39392 L 65.1305,-4.72878 L 65.4162,-5.12411 L 65.5879,-5.57989  L 65.5181,-6.83214 L 64.8367,-7.66891 L 62.4191,-8.45801 L 60.5583,-9.00488 L 60.1111,-9.47539 L 60.0316,-9.8804  L 60.1064,-10.2947 L 60.3316,-10.6234 L 60.8761,-10.9393 L 61.6889,-11.1044 L 63.0287,-11.0551 L 63.6636,-10.8455  L 64.1147,-10.4835 L 64.4003,-9.95637 L 65.4417,-10.1343 L 65.1487,-10.7951 L 64.7274,-11.2916 L 64.1798,-11.6264  L 63.4605,-11.8361 L 62.1904,-11.9376 L 61.1439,-11.859 L 60.2901,-11.6233 L 59.6378,-11.2381 L 59.3332,-10.911  L 59.1297,-10.5238 L 59.0282,-10.0757 L 59.1681,-9.0165 L 59.7917,-8.3088 L 61.3087,-7.72123 L 64.1085,-6.93214  L 64.5526,-6.38759 L 64.5941,-5.87871 L 64.4511,-5.44153 L 64.1368,-5.09736 L 63.6558,-4.84777 L 62.7795,-4.67026  L 61.4866,-4.69429 L 60.68,-4.90048 L 60.0987,-5.27565 L 59.8045,-5.6733 L 59.6758,-5.99421 L 58.6344,-5.79073  L 58.7956,-5.32642 L 59.0379,-4.92412 L 59.3607,-4.58344 L 59.765,-4.30478 L 60.2498,-4.08812 L 60.8157,-3.93348  L 61.4625,-3.84046 L 62.1904,-3.80984 z M 161.33,-4.64778 L 159.425,-4.64778 L 159.425,-11.9376 L 158.51,-11.9376 L 156.656,-11.252 L 156.656,-10.3122  L 158.435,-10.9978 L 158.435,-4.64778 L 156.428,-4.64778 L 156.428,-3.80984 L 161.33,-3.80984 z M 152.63,-5.70702 L 153.214,-7.58326 L 154.396,-9.81025 L 155.23,-11.1249 L 155.23,-11.9376 L 149.921,-11.9376  L 149.921,-11.0993 L 154.265,-11.0993 L 152.938,-8.97232 L 152.234,-7.55186 L 151.766,-6.25776 L 151.488,-5.0121  L 151.395,-3.80984 L 152.436,-3.80984 z M 148.978,-4.64778 L 147.073,-4.64778 L 147.073,-11.9376 L 146.158,-11.9376 L 144.304,-11.252 L 144.304,-10.3122  L 146.082,-10.9978 L 146.082,-4.64778 L 144.075,-4.64778 L 144.075,-3.80984 L 148.978,-3.80984 z M 205.35,-6.60386 L 205.858,-7.03562 L 207.332,-5.07992 L 208.144,-5.07992 L 206.316,-7.51815 L 208.068,-9.3723  L 207.23,-9.3723 L 205.35,-7.28948 L 205.35,-10.9726 L 204.639,-10.9726 L 204.639,-5.07992 L 205.35,-5.07992  z M 197.27,-5.12604 L 198.101,-5.40975 L 198.66,-5.8353 L 199.15,-6.56898 L 199.4,-7.50536 L 199.41,-8.24523  L 199.311,-8.82931 L 199.115,-9.33741 L 198.819,-9.76917 L 198.434,-10.123 L 197.97,-10.3901 L 197.424,-10.5676  L 196.45,-10.6676 L 194.596,-10.6676 L 194.596,-5.07992 z M 195.358,-10.0583 L 196.938,-10.023 L 197.582,-9.83971 L 198.076,-9.49942 L 198.432,-9.02774 L 198.624,-8.41344  L 198.596,-7.28328 L 198.265,-6.49108 L 197.669,-5.94344 L 196.898,-5.70508 L 195.358,-5.68919 z M 202.575,-5.06752 L 203.076,-5.25743 L 203.451,-5.57485 L 203.704,-6.0194 L 203.095,-6.1973 L 202.714,-5.71477  L 201.952,-5.53687 L 201.437,-5.63842 L 201.063,-5.94344 L 200.834,-6.43217 L 200.758,-7.08639 L 203.831,-7.08639  L 203.801,-7.69837 L 203.712,-8.16268 L 203.563,-8.55568 L 203.355,-8.87698 L 203.087,-9.12696 L 202.76,-9.30563  L 202.373,-9.41299 L 201.704,-9.43973 L 201.113,-9.30873 L 200.637,-9.02077 L 200.292,-8.57855 L 200.089,-7.99292  L 200.028,-6.99298 L 200.142,-6.27985 L 200.39,-5.71671 L 200.785,-5.31789 L 201.307,-5.08225 L 201.723,-5.01248  z M 200.758,-7.61969 L 200.899,-8.27275 L 201.255,-8.71497 L 201.674,-8.89287 L 202.396,-8.839 L 202.805,-8.52816  L 203.072,-7.78518 L 203.095,-7.61969 z M 212.57,-5.10511 L 212.57,-5.53687 L 212.039,-5.62834 L 211.936,-6.1721 L 211.91,-8.33399 L 211.707,-8.86768  L 211.3,-9.23432 L 210.691,-9.42462 L 209.944,-9.43082 L 209.341,-9.28781 L 209.103,-9.16262 L 208.909,-9.00216  L 208.757,-8.80566 L 208.649,-8.57351 L 208.583,-8.30569 L 209.319,-8.22934 L 209.573,-8.73745 L 210.168,-8.91225  L 210.865,-8.78667 L 211.135,-8.47235 L 211.224,-7.92471 L 211.224,-7.69604 L 209.798,-7.66116 L 209.087,-7.45768  L 208.648,-7.09259 L 208.432,-6.58487 L 208.448,-5.86747 L 208.709,-5.33378 L 209.122,-5.08612 L 210.17,-5.05473  L 210.835,-5.39851 L 211.224,-5.89266 L 211.427,-5.23224 L 211.919,-5.03264 z M 209.278,-5.76786 L 209.191,-6.61471 L 209.649,-7.08639 L 210.437,-7.18793 L 211.224,-7.18793 L 211.088,-6.27985  L 210.564,-5.71477 L 210.486,-5.67291 L 209.611,-5.56206 z M -202.607,21.3619 L -201.779,20.9476 L -201.08,20.3507 L -200.783,19.9903 L -200.783,16.7137 L -203.831,16.7137  L -203.831,17.6024 L -201.749,17.6024 L -201.749,19.5329 L -202.292,20.1422 L -203.012,20.5553 L -203.983,20.7266  L -204.548,20.6728 L -205.05,20.5108 L -205.488,20.241 L -205.863,19.8631 L -206.152,19.3918 L -206.358,18.8407  L -206.513,17.8656 L -206.484,16.7835 L -206.275,15.8738 L -206.037,15.3785 L -205.721,14.9677 L -205.334,14.6534  L -204.876,14.4437 L -204.349,14.339 L -202.896,14.4619 L -202.209,14.8154 L -201.952,15.0878 L -200.936,14.8592  L -201.425,14.2243 L -202.079,13.7926 L -202.929,13.5449 L -204.009,13.4624 L -204.812,13.529 L -205.52,13.729  L -206.133,14.0623 L -206.65,14.529 L -207.061,15.1053 L -207.355,15.7928 L -207.532,16.5912 L -207.583,17.8074  L -207.421,18.9376 L -207.158,19.6852 L -206.631,20.498 L -206.111,20.9743 L -205.488,21.3189 L -204.523,21.5603  L -203.509,21.565 z M -211.263,21.5475 L -210.497,21.3223 L -209.81,20.9045 L -209.216,20.3011 L -208.729,19.5186 L -208.464,18.8981  L -209.328,18.3392 L -209.543,18.8988 L -209.785,19.3837 L -210.052,19.7941 L -210.344,20.1298 L -210.661,20.391  L -211.004,20.5774 L -211.372,20.6894 L -212.075,20.7127 L -212.644,20.6018 L -213.145,20.3794 L -213.58,20.0461  L -213.945,19.6069 L -214.221,19.0922 L -214.406,18.5082 L -214.509,17.5009 L -214.409,16.4854 L -214.231,15.9076  L -213.965,15.4091 L -213.611,14.9871 L -213.186,14.6634 L -212.691,14.4476 L -212.126,14.3394 L -210.726,14.4402  L -209.912,14.7576 L -209.556,15.0878 L -208.54,14.8592 L -208.89,14.3914 L -209.557,13.9119 L -210.43,13.6011  L -211.817,13.4624 L -212.647,13.529 L -213.385,13.729 L -214.032,14.0623 L -214.585,14.529 L -215.019,15.115  L -215.328,15.8056 L -215.514,16.6009 L -215.569,17.8074 L -215.407,18.9376 L -215.144,19.6852 L -214.592,20.498  L -214.052,20.9743 L -213.398,21.3189 L -212.382,21.5603 L -212.104,21.5828 z M -192.528,21.5506 L -191.748,21.3421 L -191.32,21.1041 L -190.966,20.7825 L -190.7,20.3887 L -190.522,19.9313  L -190.422,19.1267 L -190.493,18.5562 L -190.707,18.0644 L -191.063,17.6536 L -191.533,17.3548 L -192.327,17.1199  L -191.46,16.8203 L -190.981,16.418 L -190.711,15.875 L -190.65,15.3929 L -190.747,14.7642 L -191.036,14.2499  L -191.51,13.8511 L -192.13,13.5895 L -192.9,13.4701 L -193.724,13.4972 L -194.428,13.6806 L -195.019,14.0212  L -195.467,14.4821 L -195.743,15.0642 L -195.832,15.5196 L -194.816,15.5959 L -194.657,15.0371 L -194.333,14.6309  L -193.838,14.3642 L -193.031,14.2801 L -192.412,14.4042 L -191.983,14.6914 L -191.745,15.1072 L -191.699,15.6363  L -191.88,16.1254 L -192.295,16.48 L -193.089,16.6943 L -194.054,16.7137 L -194.054,17.5772 L -192.785,17.6342  L -192.105,17.8884 L -191.738,18.2059 L -191.513,18.6105 L -191.438,19.1012 L -191.552,19.8186 L -191.788,20.2317  L -192.144,20.5236 L -192.767,20.7266 L -193.512,20.7309 L -193.841,20.6666 L -194.128,20.5592 L -194.371,20.4092  L -194.572,20.2162 L -194.73,19.9806 L -194.845,19.7019 L -194.918,19.3806 L -195.959,19.4821 L -195.778,20.1918  L -195.426,20.7584 L -194.904,21.182 L -194.238,21.4568 L -193.437,21.582 z M 216.451,20.3643 L 216.963,20.198 L 217.375,19.8883 L 217.669,19.4539 L 217.828,18.912 L 217.829,18.1059  L 217.679,17.6044 L 217.401,17.1962 L 217.015,16.9021 L 216.543,16.7436 L 215.553,16.8133 L 214.984,17.1927  L 214.81,17.4501 L 214.939,16.2932 L 215.14,15.799 L 215.443,15.4432 L 215.817,15.2514 L 216.275,15.2254  L 216.567,15.3115 L 216.796,15.4828 L 217.02,15.9006 L 217.705,15.7738 L 217.482,15.2847 L 217.14,14.9355  L 216.681,14.7258 L 216.105,14.6561 L 215.65,14.7053 L 215.248,14.853 L 214.901,15.0991 L 214.607,15.4436  L 214.297,16.1114 L 214.131,16.9722 L 214.131,18.2869 L 214.297,19.088 L 214.607,19.7108 L 215.049,20.1286  L 215.612,20.3534 L 215.827,20.3852 z M 215.367,19.5837 L 215.058,19.1868 L 214.891,18.5 L 214.962,17.8881 L 215.271,17.4803 L 215.763,17.266  L 216.368,17.2931 L 216.743,17.4997 L 217.045,17.9772 L 217.102,18.8058 L 216.888,19.3891 L 216.48,19.7298  L 216.378,19.7658 L 215.786,19.7868 z M 89.3829,20.3689 L 89.9271,20.2278 L 90.4689,19.8515 L 90.7309,19.4504 L 90.8499,18.9562 L 90.7817,18.2628  L 90.3976,17.685 L 89.7403,17.3737 L 90.3115,17.0784 L 90.6611,16.5292 L 90.7231,15.9176 L 90.61,15.4878  L 90.3612,15.1367 L 89.8364,14.8049 L 89.1314,14.6619 L 88.3803,14.7131 L 87.783,14.9673 L 87.3637,15.3839  L 87.1827,15.9238 L 87.2745,16.6319 L 87.6636,17.1478 L 88.1659,17.3993 L 87.6222,17.6137 L 87.2195,18.047  L 87.0528,18.6345 L 87.1195,19.3112 L 87.3338,19.7519 L 87.6892,20.0852 L 88.34,20.3391 L 88.5326,20.3708  z M 88.1659,16.866 L 87.9473,16.4591 L 87.9753,15.7103 L 88.2388,15.3584 L 88.8105,15.1681 L 89.3829,15.2243  L 89.7085,15.4053 L 89.9038,15.7072 L 89.9329,16.4746 L 89.7147,16.8912 L 89.4887,17.0307 L 88.7136,17.104  z M 88.4419,19.7918 L 88.0768,19.5775 L 87.8578,19.2201 L 87.8039,18.4803 L 88.0183,18.0063 L 88.4516,17.7229  L 89.3108,17.6888 L 89.8685,17.9753 L 90.0747,18.3338 L 90.0782,19.1054 L 89.8879,19.5085 L 89.4608,19.7934  L 89.2259,19.8457 z M 220.821,20.3499 L 221.212,20.2123 L 221.544,19.9821 L 221.816,19.66 L 222.11,19.0147 L 222.268,18.1834  L 222.268,16.8594 L 222.11,16.0262 L 221.816,15.3929 L 221.555,15.0704 L 221.231,14.8402 L 220.844,14.7022  L 220.148,14.6673 L 219.706,14.7561 L 219.332,14.934 L 219.024,15.2006 L 218.788,15.5564 L 218.552,16.2626  L 218.437,17.5264 L 218.558,18.7582 L 218.807,19.4655 L 219.048,19.8325 L 219.35,20.1089 L 219.712,20.2929  L 220.134,20.3844 z M 220.071,19.779 L 219.703,19.6038 L 219.428,19.2791 L 219.219,18.5613 L 219.166,16.9594 L 219.363,15.9176  L 219.603,15.5293 L 219.948,15.2936 L 220.394,15.215 L 220.82,15.2936 L 221.146,15.5293 L 221.43,16.0831  L 221.583,17.2323 L 221.511,18.5423 L 221.283,19.2535 L 221.023,19.5942 L 220.663,19.7775 L 220.521,19.8034  z M 93.8206,20.3499 L 94.2125,20.2123 L 94.5442,19.9821 L 94.8159,19.66 L 95.1101,19.0147 L 95.2682,18.1834  L 95.2682,16.8594 L 95.1101,16.0262 L 94.8159,15.3929 L 94.5555,15.0704 L 94.2315,14.8402 L 93.8443,14.7022  L 93.1478,14.6673 L 92.7064,14.7561 L 92.332,14.934 L 92.0238,15.2006 L 91.7878,15.5564 L 91.5518,16.2626  L 91.4374,17.5264 L 91.5584,18.7582 L 91.8072,19.4655 L 92.0483,19.8325 L 92.3502,20.1089 L 92.7122,20.2929  L 93.1342,20.3844 z M 93.0711,19.779 L 92.7033,19.6038 L 92.4281,19.2791 L 92.2188,18.5613 L 92.1665,16.9594 L 92.3626,15.9176  L 92.6029,15.5293 L 92.9482,15.2936 L 93.3935,15.215 L 93.8199,15.2936 L 94.1458,15.5293 L 94.4299,16.0831  L 94.583,17.2323 L 94.5109,18.5423 L 94.2826,19.2535 L 94.0229,19.5942 L 93.6633,19.7775 L 93.521,19.8034  z M 213.392,19.7108 L 212.046,19.7108 L 212.046,14.7324 L 211.386,14.7324 L 210.065,15.6467 L 210.065,16.3071  L 211.309,15.4181 L 211.309,19.7108 L 209.887,19.7108 L 209.887,20.3201 L 213.392,20.3201 z M 86.392,19.7108 L 85.046,19.7108 L 85.046,14.7324 L 84.3855,14.7324 L 83.0647,15.6467 L 83.0647,16.3071  L 84.3092,15.4181 L 84.3092,19.7108 L 82.8868,19.7108 L 82.8868,20.3201 L 86.392,20.3201 z M -96.0689,26.8135 L -95.5337,26.5542 L -95.0322,26.1441 L -94.6144,25.6349 L -94.3493,25.0938 L -94.2373,24.521  L -94.2776,23.9175 L -94.4675,23.2873 L -94.8031,22.6378 L -95.2849,21.9677 L -96.2635,20.941 L -97.277,20.1542  L -97.9192,19.8155 L -98.5343,19.6248 L -99.1238,19.5693 L -99.6881,19.6744 L -100.228,19.9379 L -100.743,20.3612  L -101.185,20.8921 L -101.467,21.4433 L -101.589,22.0145 L -101.552,22.606 L -101.352,23.2145 L -101.004,23.8544  L -100.204,24.8729 L -99.1742,25.8569 L -98.5076,26.3418 L -97.8634,26.6833 L -97.241,26.8809 L -96.6383,26.922  z M -97.1154,25.9651 L -97.8076,25.6449 L -98.8719,24.8097 L -99.9423,23.6675 L -100.449,22.9184 L -100.636,22.4804  L -100.695,22.0684 L -100.64,21.6766 L -100.471,21.3053 L -100.014,20.798 L -99.6521,20.5759 L -99.2703,20.4724  L -98.8684,20.4883 L -98.2235,20.7259 L -97.4801,21.227 L -96.3526,22.2831 L -95.5221,23.3428 L -95.1934,24.0431  L -95.124,24.4605 L -95.1671,24.8512 L -95.3217,25.2147 L -95.4411,25.3868 L -95.9333,25.8263 L -96.303,25.9872  L -96.6968,26.0333 z M -97.5495,28.6614 L -98.1421,28.0692 L -99.4889,29.416 L -104.644,24.2613 L -105.29,24.9082 L -106.117,26.7042  L -105.452,27.3685 L -104.68,25.6263 L -100.19,30.1164 L -101.609,31.5357 L -101.016,32.1283 z M -108.971,39.2123 L -108.287,39.0158 L -107.434,38.5039 L -106.713,37.7899 L -106.219,37.009 L -105.926,36.13  L -105.855,35.2141 L -105.9,34.749 L -108.217,32.4325 L -110.372,34.5874 L -109.743,35.2161 L -108.271,33.7433  L -106.905,35.1083 L -106.859,35.9234 L -107.076,36.7245 L -107.642,37.5326 L -108.079,37.8942 L -108.549,38.1345  L -109.05,38.2535 L -109.582,38.2515 L -110.119,38.1221 L -110.655,37.8787 L -111.454,37.2985 L -112.198,36.5125  L -112.694,35.7222 L -112.876,35.2033 L -112.943,34.6894 L -112.891,34.1933 L -112.716,33.7216 L -112.417,33.2747  L -111.303,32.3337 L -110.567,32.098 L -110.192,32.1085 L -109.636,31.2287 L -110.43,31.1252 L -111.198,31.2826  L -111.975,31.7089 L -112.797,32.4143 L -113.318,33.0294 L -113.677,33.6712 L -113.874,34.3402 L -113.91,35.0362  L -113.793,35.7343 L -113.515,36.4284 L -113.075,37.1175 L -112.252,38.0143 L -111.338,38.6988 L -110.623,39.0414  L -109.676,39.2433 z M -114.587,44.8279 L -113.88,44.6085 L -112.991,44.0609 L -112.779,43.8807 L -112.209,43.2605 L -111.827,42.5602  L -111.637,41.7788 L -111.643,40.932 L -111.852,40.0344 L -112.103,39.4081 L -113.109,39.6236 L -112.866,40.172  L -112.694,40.6855 L -112.592,41.1642 L -112.561,41.6083 L -112.601,42.0176 L -112.712,42.3916 L -112.893,42.7315  L -113.374,43.2446 L -113.854,43.5683 L -114.366,43.7655 L -114.909,43.8372 L -115.478,43.7853 L -116.037,43.6167  L -116.58,43.3338 L -117.366,42.6951 L -118.013,41.9064 L -118.296,41.3719 L -118.46,40.8308 L -118.509,40.2824  L -118.437,39.753 L -118.239,39.2499 L -117.916,38.774 L -116.855,37.8554 L -116.055,37.5043 L -115.57,37.4861  L -115.013,36.6063 L -115.591,36.523 L -116.402,36.6551 L -117.239,37.0528 L -118.318,37.9353 L -118.857,38.5694  L -119.238,39.2329 L -119.459,39.9255 L -119.521,40.6471 L -119.413,41.368 L -119.144,42.0753 L -118.713,42.7687  L -117.899,43.6613 L -116.985,44.3457 L -116.27,44.6884 L -115.305,44.8725 z M -211.263,46.9475 L -210.497,46.7223 L -209.81,46.3045 L -209.216,45.7011 L -208.729,44.9186 L -208.464,44.2981  L -209.328,43.7392 L -209.543,44.2988 L -209.785,44.7837 L -210.052,45.1941 L -210.344,45.5298 L -210.661,45.791  L -211.004,45.9774 L -211.372,46.0894 L -212.075,46.1127 L -212.644,46.0018 L -213.145,45.7794 L -213.58,45.4461  L -213.945,45.0069 L -214.221,44.4922 L -214.406,43.9082 L -214.509,42.9009 L -214.409,41.8854 L -214.231,41.3076  L -213.965,40.8091 L -213.611,40.3871 L -213.186,40.0634 L -212.691,39.8476 L -212.126,39.7394 L -210.726,39.8402  L -209.912,40.1576 L -209.556,40.4878 L -208.54,40.2592 L -208.89,39.7914 L -209.557,39.3119 L -210.43,39.0011  L -211.817,38.8624 L -212.647,38.929 L -213.385,39.129 L -214.032,39.4623 L -214.585,39.929 L -215.019,40.515  L -215.328,41.2056 L -215.514,42.0009 L -215.569,43.2074 L -215.407,44.3376 L -215.144,45.0852 L -214.592,45.898  L -214.052,46.3743 L -213.398,46.7189 L -212.382,46.9603 L -212.104,46.9828 z M -202.607,46.7619 L -201.779,46.3476 L -201.08,45.7507 L -200.783,45.3903 L -200.783,42.1137 L -203.831,42.1137  L -203.831,43.0024 L -201.749,43.0024 L -201.749,44.9329 L -202.292,45.5422 L -203.012,45.9553 L -203.983,46.1266  L -204.548,46.0728 L -205.05,45.9108 L -205.488,45.641 L -205.863,45.2631 L -206.152,44.7918 L -206.358,44.2407  L -206.513,43.2656 L -206.484,42.1835 L -206.275,41.2738 L -206.037,40.7785 L -205.721,40.3677 L -205.334,40.0534  L -204.876,39.8437 L -204.349,39.739 L -202.896,39.8619 L -202.209,40.2154 L -201.952,40.4878 L -200.936,40.2592  L -201.425,39.6243 L -202.079,39.1926 L -202.929,38.9449 L -204.009,38.8624 L -204.812,38.929 L -205.52,39.129  L -206.133,39.4623 L -206.65,39.929 L -207.061,40.5053 L -207.355,41.1928 L -207.532,41.9912 L -207.583,43.2074  L -207.421,44.3376 L -207.158,45.0852 L -206.631,45.898 L -206.111,46.3743 L -205.488,46.7189 L -204.523,46.9603  L -203.509,46.965 z M -190.498,46.1522 L -194.74,46.1522 L -193.962,45.0918 L -191.197,42.5834 L -190.682,41.5358 L -190.625,41.0723  L -190.718,40.3437 L -190.883,39.9371 L -191.131,39.5941 L -191.639,39.191 L -192.307,38.9445 L -193.139,38.8624  L -193.921,38.941 L -194.587,39.1767 L -195.137,39.567 L -195.527,40.0751 L -195.746,40.6909 L -195.781,40.9196  L -194.74,41.0215 L -194.575,40.4561 L -194.232,40.0309 L -193.743,39.7642 L -192.973,39.6809 L -192.401,39.8239  L -191.977,40.1503 L -191.724,40.6297 L -191.724,41.561 L -192.324,42.5439 L -195.121,45.136 L -195.832,46.3045  L -195.832,46.9902 L -190.498,46.9902 z M -211.263,72.3475 L -210.497,72.1223 L -209.81,71.7045 L -209.216,71.1011 L -208.729,70.3186 L -208.464,69.6981  L -209.328,69.1392 L -209.543,69.6988 L -209.785,70.1837 L -210.052,70.5941 L -210.344,70.9298 L -210.661,71.191  L -211.004,71.3774 L -211.372,71.4894 L -212.075,71.5127 L -212.644,71.4018 L -213.145,71.1794 L -213.58,70.8461  L -213.945,70.4069 L -214.221,69.8922 L -214.406,69.3082 L -214.509,68.3009 L -214.409,67.2854 L -214.231,66.7076  L -213.965,66.2091 L -213.611,65.7871 L -213.186,65.4634 L -212.691,65.2476 L -212.126,65.1394 L -210.726,65.2402  L -209.912,65.5576 L -209.556,65.8878 L -208.54,65.6592 L -208.89,65.1914 L -209.557,64.7119 L -210.43,64.4011  L -211.817,64.2624 L -212.647,64.329 L -213.385,64.529 L -214.032,64.8623 L -214.585,65.329 L -215.019,65.915  L -215.328,66.6056 L -215.514,67.4009 L -215.569,68.6074 L -215.407,69.7376 L -215.144,70.4852 L -214.592,71.298  L -214.052,71.7743 L -213.398,72.1189 L -212.382,72.3603 L -212.104,72.3828 z M -202.607,72.1619 L -201.779,71.7476 L -201.08,71.1507 L -200.783,70.7903 L -200.783,67.5137 L -203.831,67.5137  L -203.831,68.4024 L -201.749,68.4024 L -201.749,70.3329 L -202.292,70.9422 L -203.012,71.3553 L -203.983,71.5266  L -204.548,71.4728 L -205.05,71.3108 L -205.488,71.041 L -205.863,70.6631 L -206.152,70.1918 L -206.358,69.6407  L -206.513,68.6656 L -206.484,67.5835 L -206.275,66.6738 L -206.037,66.1785 L -205.721,65.7677 L -205.334,65.4534  L -204.876,65.2437 L -204.349,65.139 L -202.896,65.2619 L -202.209,65.6154 L -201.952,65.8878 L -200.936,65.6592  L -201.425,65.0243 L -202.079,64.5926 L -202.929,64.3449 L -204.009,64.2624 L -204.812,64.329 L -205.52,64.529  L -206.133,64.8623 L -206.65,65.329 L -207.061,65.9053 L -207.355,66.5928 L -207.532,67.3912 L -207.583,68.6074  L -207.421,69.7376 L -207.158,70.4852 L -206.631,71.298 L -206.111,71.7743 L -205.488,72.1189 L -204.523,72.3603  L -203.509,72.365 z M -190.574,71.5522 L -192.479,71.5522 L -192.479,64.2624 L -193.394,64.2624 L -195.248,64.948 L -195.248,65.8878  L -193.47,65.2022 L -193.47,71.5522 L -195.476,71.5522 L -195.476,72.3902 L -190.574,72.3902 z M -279.146,127 L -276.86,127 L -276.86,126.746 L -279.146,126.746 L -279.146,124.46 L -279.4,124.46  L -279.4,126.746 L -281.94,126.746 L -281.94,127 L -279.4,127 L -279.4,129.54 L -279.146,129.54  z "
     stroke="black"
     fill="lightgray"
     stroke-width="0.5"
     id="path6"
     style="fill:#000000;fill-opacity:1;stroke-width:0.254;stroke-miterlimit:4;stroke-dasharray:none" />
</svg>
