<?xml version="1.0" standalone="no"?>
<!DOCTYPE svg PUBLIC "-//W3C//DTD SVG 1.1//EN" "http://www.w3.org/Graphics/SVG/1.1/DTD/svg11.dtd">
<svg width="480" height="234" viewBox="-282 -104 480 234" xmlns="http://www.w3.org/2000/svg" version="1.1">
<title>OpenSCAD Model</title>
<path d="
M 193.464,-99.5916 L 194.095,-99.6245 L 194.685,-99.8509 L 195.175,-100.249 L 195.519,-100.778 L 195.683,-101.389
 L 195.65,-102.02 L 195.424,-102.61 L 195.026,-103.1 L 194.496,-103.444 L 193.886,-103.608 L 193.255,-103.575
 L 192.665,-103.349 L 192.174,-102.951 L 191.83,-102.421 L 191.667,-101.811 L 191.7,-101.18 L 191.926,-100.59
 L 192.324,-100.099 L 192.853,-99.7552 z
M -185,-99.6245 L -184.41,-99.8513 L -183.919,-100.249 L -183.575,-100.779 L -183.412,-101.389 L -183.445,-102.02
 L -183.671,-102.61 L -184.069,-103.101 L -184.599,-103.444 L -185.209,-103.608 L -185.84,-103.575 L -186.43,-103.349
 L -186.921,-102.951 L -187.198,-102.552 L -187.475,-102.951 L -187.966,-103.349 L -188.556,-103.575 L -189.187,-103.608
 L -189.797,-103.444 L -190.327,-103.101 L -190.754,-102.552 L -191.031,-102.951 L -191.522,-103.349 L -192.112,-103.575
 L -192.743,-103.608 L -193.353,-103.444 L -193.883,-103.101 L -194.31,-102.552 L -194.587,-102.951 L -195.078,-103.349
 L -195.668,-103.575 L -196.299,-103.608 L -196.909,-103.444 L -197.439,-103.101 L -197.866,-102.552 L -198.143,-102.951
 L -198.634,-103.349 L -199.224,-103.575 L -199.855,-103.608 L -200.465,-103.444 L -200.995,-103.101 L -201.422,-102.552
 L -201.699,-102.951 L -202.19,-103.349 L -202.78,-103.575 L -203.411,-103.608 L -204.021,-103.444 L -204.551,-103.101
 L -204.978,-102.552 L -205.255,-102.951 L -205.746,-103.349 L -206.336,-103.575 L -206.967,-103.608 L -207.577,-103.444
 L -208.107,-103.101 L -208.534,-102.552 L -208.812,-102.951 L -209.302,-103.349 L -209.892,-103.575 L -210.523,-103.608
 L -211.134,-103.444 L -211.663,-103.101 L -212.09,-102.552 L -212.368,-102.951 L -212.858,-103.349 L -213.448,-103.575
 L -214.079,-103.608 L -214.69,-103.444 L -215.219,-103.101 L -215.646,-102.552 L -215.924,-102.951 L -216.414,-103.349
 L -217.004,-103.575 L -217.635,-103.608 L -218.246,-103.444 L -218.775,-103.101 L -219.202,-102.552 L -219.48,-102.951
 L -219.97,-103.349 L -220.56,-103.575 L -221.191,-103.608 L -221.801,-103.444 L -222.331,-103.101 L -222.729,-102.61
 L -222.955,-102.02 L -222.988,-101.389 L -222.824,-100.779 L -222.48,-100.249 L -221.99,-99.8513 L -221.4,-99.6245
 L -220.769,-99.5916 L -220.159,-99.7552 L -219.629,-100.099 L -219.202,-100.648 L -218.925,-100.249 L -218.434,-99.8513
 L -217.844,-99.6245 L -217.213,-99.5916 L -216.603,-99.7552 L -216.073,-100.099 L -215.646,-100.648 L -215.369,-100.249
 L -214.878,-99.8513 L -214.288,-99.6245 L -213.657,-99.5916 L -213.047,-99.7552 L -212.517,-100.099 L -212.09,-100.648
 L -211.813,-100.249 L -211.322,-99.8513 L -210.732,-99.6245 L -210.101,-99.5916 L -209.491,-99.7552 L -208.961,-100.099
 L -208.534,-100.648 L -208.257,-100.249 L -207.766,-99.8513 L -207.176,-99.6245 L -206.545,-99.5916 L -205.935,-99.7552
 L -205.405,-100.099 L -204.978,-100.648 L -204.701,-100.249 L -204.21,-99.8513 L -203.62,-99.6245 L -202.989,-99.5916
 L -202.379,-99.7552 L -201.849,-100.099 L -201.422,-100.648 L -201.145,-100.249 L -200.654,-99.8513 L -200.064,-99.6245
 L -199.433,-99.5916 L -198.823,-99.7552 L -198.293,-100.099 L -197.866,-100.648 L -197.589,-100.249 L -197.098,-99.8513
 L -196.508,-99.6245 L -195.877,-99.5916 L -195.267,-99.7552 L -194.737,-100.099 L -194.31,-100.648 L -194.033,-100.249
 L -193.542,-99.8513 L -192.952,-99.6245 L -192.321,-99.5916 L -191.711,-99.7552 L -191.181,-100.099 L -190.754,-100.648
 L -190.477,-100.249 L -189.986,-99.8513 L -189.396,-99.6245 L -188.765,-99.5916 L -188.155,-99.7552 L -187.625,-100.099
 L -187.198,-100.648 L -186.921,-100.249 L -186.43,-99.8513 L -185.84,-99.6245 L -185.631,-99.5916 z
M -159.6,-81.845 L -159.01,-82.0713 L -158.519,-82.469 L -158.176,-82.9988 L -158.012,-83.6092 L -158.045,-84.2402
 L -158.271,-84.8297 L -158.669,-85.3208 L -159.199,-85.6649 L -159.809,-85.8285 L -160.44,-85.7955 L -161.03,-85.5688
 L -161.521,-85.1715 L -161.865,-84.6413 L -162.028,-84.0313 L -161.996,-83.4003 L -161.769,-82.8104 L -161.372,-82.3194
 L -160.841,-81.9756 L -160.231,-81.8121 z
M -162.14,-74.2249 L -161.551,-74.4513 L -161.06,-74.8489 L -160.715,-75.3787 L -160.552,-75.9892 L -160.585,-76.6201
 L -160.812,-77.21 L -161.209,-77.7007 L -161.739,-78.0448 L -162.349,-78.2084 L -162.98,-78.1755 L -163.57,-77.9491
 L -164.061,-77.5515 L -164.405,-77.0217 L -164.568,-76.4112 L -164.535,-75.7803 L -164.309,-75.1904 L -163.911,-74.6997
 L -163.382,-74.3555 L -162.771,-74.192 z
M -7.20072,-74.2249 L -6.61084,-74.4517 L -6.11978,-74.8489 L -5.77562,-75.3791 L -5.61245,-75.9892 L -5.64539,-76.6197
 L -5.87173,-77.2096 L -6.26938,-77.7007 L -6.7992,-78.0445 L -7.40924,-78.208 L -8.04021,-78.1751 L -8.63009,-77.9487
 L -9.12115,-77.5511 L -9.39826,-77.1523 L -9.67577,-77.5511 L -10.1668,-77.9487 L -10.7567,-78.1751 L -11.3877,-78.208
 L -11.9977,-78.0445 L -12.5275,-77.7007 L -12.9546,-77.1523 L -13.2318,-77.5511 L -13.7228,-77.9487 L -14.3127,-78.1751
 L -14.9437,-78.208 L -15.5537,-78.0445 L -16.0835,-77.7007 L -16.5106,-77.1523 L -16.7877,-77.5511 L -17.2788,-77.9487
 L -17.8687,-78.1751 L -18.4996,-78.208 L -19.1097,-78.0445 L -19.6395,-77.7007 L -20.0666,-77.1523 L -20.3437,-77.5511
 L -20.8348,-77.9487 L -21.4247,-78.1751 L -22.0556,-78.208 L -22.6657,-78.0445 L -23.1959,-77.7007 L -23.6226,-77.1523
 L -23.8997,-77.5511 L -24.3908,-77.9487 L -24.9806,-78.1751 L -25.6116,-78.208 L -26.2217,-78.0445 L -26.7519,-77.7007
 L -27.1786,-77.1523 L -27.4557,-77.5511 L -27.9467,-77.9487 L -28.5366,-78.1751 L -29.1676,-78.208 L -29.7776,-78.0445
 L -30.3078,-77.7007 L -30.7346,-77.1523 L -31.0121,-77.5511 L -31.5027,-77.9487 L -32.0926,-78.1751 L -32.7236,-78.208
 L -33.334,-78.0445 L -33.8638,-77.7007 L -34.2905,-77.1523 L -34.568,-77.5511 L -35.0587,-77.9487 L -35.6486,-78.1751
 L -36.2796,-78.208 L -36.89,-78.0445 L -37.4198,-77.7007 L -37.8465,-77.1523 L -38.124,-77.5511 L -38.6147,-77.9487
 L -39.2046,-78.1751 L -39.8356,-78.208 L -40.446,-78.0445 L -40.9758,-77.7007 L -41.4025,-77.1523 L -41.68,-77.5511
 L -42.1707,-77.9487 L -42.7606,-78.1751 L -43.3911,-78.208 L -44.0016,-78.0445 L -44.5314,-77.7007 L -44.929,-77.2096
 L -45.1554,-76.6197 L -45.1883,-75.9892 L -45.0248,-75.3791 L -44.6806,-74.8489 L -44.1899,-74.4517 L -43.6001,-74.2249
 L -42.9695,-74.192 L -42.359,-74.3555 L -41.8292,-74.6997 L -41.4025,-75.2481 L -41.125,-74.8489 L -40.6343,-74.4517
 L -40.0445,-74.2249 L -39.4135,-74.192 L -38.8031,-74.3555 L -38.2732,-74.6997 L -37.8465,-75.2481 L -37.569,-74.8489
 L -37.078,-74.4517 L -36.4885,-74.2249 L -35.8575,-74.192 L -35.2471,-74.3555 L -34.7173,-74.6997 L -34.2905,-75.2481
 L -34.013,-74.8489 L -33.522,-74.4517 L -32.9325,-74.2249 L -32.3015,-74.192 L -31.6911,-74.3555 L -31.1613,-74.6997
 L -30.7346,-75.2481 L -30.4571,-74.8489 L -29.966,-74.4517 L -29.3765,-74.2249 L -28.7455,-74.192 L -28.1351,-74.3555
 L -27.6053,-74.6997 L -27.1786,-75.2481 L -26.9011,-74.8489 L -26.41,-74.4517 L -25.8205,-74.2249 L -25.1895,-74.192
 L -24.5791,-74.3555 L -24.0493,-74.6997 L -23.6226,-75.2481 L -23.3451,-74.8489 L -22.854,-74.4517 L -22.2645,-74.2249
 L -21.6336,-74.192 L -21.0231,-74.3555 L -20.4933,-74.6997 L -20.0666,-75.2481 L -19.7891,-74.8489 L -19.298,-74.4517
 L -18.7082,-74.2249 L -18.0776,-74.192 L -17.4672,-74.3555 L -16.9373,-74.6997 L -16.5106,-75.2481 L -16.2331,-74.8489
 L -15.7421,-74.4517 L -15.1522,-74.2249 L -14.5216,-74.192 L -13.9112,-74.3555 L -13.3814,-74.6997 L -12.9546,-75.2481
 L -12.6771,-74.8489 L -12.1861,-74.4517 L -11.5962,-74.2249 L -10.9656,-74.192 L -10.3552,-74.3555 L -9.82537,-74.6997
 L -9.39826,-75.2481 L -9.12115,-74.8489 L -8.63009,-74.4517 L -8.04021,-74.2249 L -7.83169,-74.192 z
M -65.2189,-74.3555 L -64.6891,-74.6997 L -64.2914,-75.1904 L -64.0651,-75.7803 L -64.0321,-76.4108 L -64.1953,-77.0213
 L -64.5395,-77.5511 L -65.0305,-77.9487 L -65.6204,-78.1751 L -66.2514,-78.208 L -66.8614,-78.0445 L -67.3912,-77.7003
 L -67.7889,-77.2096 L -68.0152,-76.6197 L -68.0486,-75.9892 L -67.885,-75.3787 L -67.5408,-74.8489 L -67.0498,-74.4513
 L -66.4599,-74.2249 L -65.8289,-74.192 z
M -185,-74.2245 L -184.41,-74.4513 L -183.919,-74.8485 L -183.575,-75.3787 L -183.412,-75.9888 L -183.445,-76.6197
 L -183.671,-77.2096 L -184.069,-77.7007 L -184.599,-78.0445 L -185.209,-78.208 L -185.84,-78.1751 L -186.43,-77.9487
 L -186.921,-77.5511 L -187.198,-77.1523 L -187.475,-77.5511 L -187.966,-77.9487 L -188.556,-78.1751 L -189.187,-78.208
 L -189.797,-78.0445 L -190.327,-77.7007 L -190.754,-77.1523 L -191.031,-77.5511 L -191.522,-77.9487 L -192.112,-78.1751
 L -192.743,-78.208 L -193.353,-78.0445 L -193.883,-77.7007 L -194.31,-77.1523 L -194.587,-77.5511 L -195.078,-77.9487
 L -195.668,-78.1751 L -196.299,-78.208 L -196.909,-78.0445 L -197.439,-77.7007 L -197.866,-77.1523 L -198.143,-77.5511
 L -198.634,-77.9487 L -199.224,-78.1751 L -199.855,-78.208 L -200.465,-78.0445 L -200.995,-77.7007 L -201.422,-77.1523
 L -201.699,-77.5511 L -202.19,-77.9487 L -202.78,-78.1751 L -203.411,-78.208 L -204.021,-78.0445 L -204.551,-77.7007
 L -204.978,-77.1523 L -205.255,-77.5511 L -205.746,-77.9487 L -206.336,-78.1751 L -206.967,-78.208 L -207.577,-78.0445
 L -208.107,-77.7007 L -208.534,-77.1523 L -208.812,-77.5511 L -209.302,-77.9487 L -209.892,-78.1751 L -210.523,-78.208
 L -211.134,-78.0445 L -211.663,-77.7007 L -212.09,-77.1523 L -212.368,-77.5511 L -212.858,-77.9487 L -213.448,-78.1751
 L -214.079,-78.208 L -214.69,-78.0445 L -215.219,-77.7007 L -215.646,-77.1523 L -215.924,-77.5511 L -216.414,-77.9487
 L -217.004,-78.1751 L -217.635,-78.208 L -218.246,-78.0445 L -218.775,-77.7007 L -219.202,-77.1523 L -219.48,-77.5511
 L -219.97,-77.9487 L -220.56,-78.1751 L -221.191,-78.208 L -221.801,-78.0445 L -222.331,-77.7007 L -222.729,-77.2096
 L -222.955,-76.6197 L -222.988,-75.9888 L -222.824,-75.3787 L -222.48,-74.8485 L -221.99,-74.4513 L -221.4,-74.2245
 L -220.769,-74.1916 L -220.159,-74.3552 L -219.629,-74.6993 L -219.202,-75.2477 L -218.925,-74.8485 L -218.434,-74.4513
 L -217.844,-74.2245 L -217.213,-74.1916 L -216.603,-74.3552 L -216.073,-74.6993 L -215.646,-75.2477 L -215.369,-74.8485
 L -214.878,-74.4513 L -214.288,-74.2245 L -213.657,-74.1916 L -213.047,-74.3552 L -212.517,-74.6993 L -212.09,-75.2477
 L -211.813,-74.8485 L -211.322,-74.4513 L -210.732,-74.2245 L -210.101,-74.1916 L -209.491,-74.3552 L -208.961,-74.6993
 L -208.534,-75.2477 L -208.257,-74.8485 L -207.766,-74.4513 L -207.176,-74.2245 L -206.545,-74.1916 L -205.935,-74.3552
 L -205.405,-74.6993 L -204.978,-75.2477 L -204.701,-74.8485 L -204.21,-74.4513 L -203.62,-74.2245 L -202.989,-74.1916
 L -202.379,-74.3552 L -201.849,-74.6993 L -201.422,-75.2477 L -201.145,-74.8485 L -200.654,-74.4513 L -200.064,-74.2245
 L -199.433,-74.1916 L -198.823,-74.3552 L -198.293,-74.6993 L -197.866,-75.2477 L -197.589,-74.8485 L -197.098,-74.4513
 L -196.508,-74.2245 L -195.877,-74.1916 L -195.267,-74.3552 L -194.737,-74.6993 L -194.31,-75.2477 L -194.033,-74.8485
 L -193.542,-74.4513 L -192.952,-74.2245 L -192.321,-74.1916 L -191.711,-74.3552 L -191.181,-74.6993 L -190.754,-75.2477
 L -190.477,-74.8485 L -189.986,-74.4513 L -189.396,-74.2245 L -188.765,-74.1916 L -188.155,-74.3552 L -187.625,-74.6993
 L -187.198,-75.2477 L -186.921,-74.8485 L -186.43,-74.4513 L -185.84,-74.2245 L -185.631,-74.1916 z
M -67.759,-66.7355 L -67.2288,-67.0796 L -66.8316,-67.5707 L -66.6048,-68.1602 L -66.5719,-68.7911 L -66.7355,-69.4016
 L -67.0796,-69.9314 L -67.5707,-70.329 L -68.1602,-70.5554 L -68.7911,-70.5883 L -69.4016,-70.4248 L -69.9314,-70.081
 L -70.329,-69.5899 L -70.5554,-69.0001 L -70.5883,-68.3691 L -70.4248,-67.759 L -70.081,-67.2288 L -69.5899,-66.8316
 L -69.0001,-66.6048 L -68.3691,-66.5719 z
M -58.0003,-56.445 L -57.4104,-56.6713 L -56.9194,-57.069 L -56.5756,-57.5988 L -56.4121,-58.2092 L -56.445,-58.8402
 L -56.6713,-59.4297 L -57.069,-59.9208 L -57.5988,-60.2649 L -58.2092,-60.4285 L -58.8402,-60.3955 L -59.4297,-60.1688
 L -59.9208,-59.7715 L -60.2649,-59.2413 L -60.4285,-58.6313 L -60.3955,-58.0003 L -60.1688,-57.4104 L -59.7715,-56.9194
 L -59.2413,-56.5756 L -58.6313,-56.4121 z
M -60.5405,-48.8249 L -59.9506,-49.0513 L -59.4595,-49.4489 L -59.1154,-49.9787 L -58.9518,-50.5892 L -58.9852,-51.2201
 L -59.2115,-51.81 L -59.6092,-52.3007 L -60.139,-52.6448 L -60.749,-52.8084 L -61.38,-52.7755 L -61.9699,-52.5491
 L -62.4609,-52.1515 L -62.8051,-51.6217 L -62.9682,-51.0112 L -62.9353,-50.3803 L -62.709,-49.7904 L -62.3113,-49.2997
 L -61.7815,-48.9555 L -61.1715,-48.792 z
M -7.20034,-48.8245 L -6.61045,-49.0513 L -6.11939,-49.4485 L -5.77523,-49.9787 L -5.61206,-50.5888 L -5.645,-51.2197
 L -5.87135,-51.8096 L -6.269,-52.3007 L -6.79881,-52.6445 L -7.40885,-52.808 L -8.03982,-52.7751 L -8.62971,-52.5487
 L -9.12076,-52.1511 L -9.39788,-51.7523 L -9.67538,-52.1511 L -10.1664,-52.5487 L -10.7563,-52.7751 L -11.3873,-52.808
 L -11.9973,-52.6445 L -12.5271,-52.3007 L -12.9542,-51.7523 L -13.2314,-52.1511 L -13.7224,-52.5487 L -14.3123,-52.7751
 L -14.9433,-52.808 L -15.5533,-52.6445 L -16.0831,-52.3007 L -16.5102,-51.7523 L -16.7873,-52.1511 L -17.2784,-52.5487
 L -17.8683,-52.7751 L -18.4993,-52.808 L -19.1093,-52.6445 L -19.6391,-52.3007 L -20.0662,-51.7523 L -20.3433,-52.1511
 L -20.8344,-52.5487 L -21.4243,-52.7751 L -22.0552,-52.808 L -22.6653,-52.6445 L -23.1955,-52.3007 L -23.6222,-51.7523
 L -23.8993,-52.1511 L -24.3904,-52.5487 L -24.9803,-52.7751 L -25.6112,-52.808 L -26.2213,-52.6445 L -26.7515,-52.3007
 L -27.1782,-51.7523 L -27.4553,-52.1511 L -27.9464,-52.5487 L -28.5362,-52.7751 L -29.1672,-52.808 L -29.7773,-52.6445
 L -30.3075,-52.3007 L -30.7342,-51.7523 L -31.0117,-52.1511 L -31.5023,-52.5487 L -32.0922,-52.7751 L -32.7232,-52.808
 L -33.3336,-52.6445 L -33.8634,-52.3007 L -34.2902,-51.7523 L -34.5677,-52.1511 L -35.0583,-52.5487 L -35.6482,-52.7751
 L -36.2792,-52.808 L -36.8896,-52.6445 L -37.4194,-52.3007 L -37.8461,-51.7523 L -38.1236,-52.1511 L -38.6143,-52.5487
 L -39.2042,-52.7751 L -39.8352,-52.808 L -40.4456,-52.6445 L -40.9754,-52.3007 L -41.4021,-51.7523 L -41.6796,-52.1511
 L -42.1703,-52.5487 L -42.7602,-52.7751 L -43.3908,-52.808 L -44.0012,-52.6445 L -44.531,-52.3007 L -44.9287,-51.8096
 L -45.155,-51.2197 L -45.1879,-50.5888 L -45.0244,-49.9787 L -44.6802,-49.4485 L -44.1896,-49.0513 L -43.5997,-48.8245
 L -42.9691,-48.7916 L -42.3587,-48.9552 L -41.8288,-49.2993 L -41.4021,-49.8477 L -41.1246,-49.4485 L -40.634,-49.0513
 L -40.0441,-48.8245 L -39.4131,-48.7916 L -38.8027,-48.9552 L -38.2729,-49.2993 L -37.8461,-49.8477 L -37.5686,-49.4485
 L -37.0776,-49.0513 L -36.4881,-48.8245 L -35.8571,-48.7916 L -35.2467,-48.9552 L -34.7169,-49.2993 L -34.2902,-49.8477
 L -34.0127,-49.4485 L -33.5216,-49.0513 L -32.9321,-48.8245 L -32.3011,-48.7916 L -31.6907,-48.9552 L -31.1609,-49.2993
 L -30.7342,-49.8477 L -30.4567,-49.4485 L -29.9656,-49.0513 L -29.3761,-48.8245 L -28.7451,-48.7916 L -28.1347,-48.9552
 L -27.6049,-49.2993 L -27.1782,-49.8477 L -26.9007,-49.4485 L -26.4096,-49.0513 L -25.8201,-48.8245 L -25.1892,-48.7916
 L -24.5787,-48.9552 L -24.0489,-49.2993 L -23.6222,-49.8477 L -23.3447,-49.4485 L -22.8536,-49.0513 L -22.2641,-48.8245
 L -21.6332,-48.7916 L -21.0227,-48.9552 L -20.4929,-49.2993 L -20.0662,-49.8477 L -19.7887,-49.4485 L -19.2977,-49.0513
 L -18.7078,-48.8245 L -18.0772,-48.7916 L -17.4668,-48.9552 L -16.937,-49.2993 L -16.5102,-49.8477 L -16.2327,-49.4485
 L -15.7417,-49.0513 L -15.1518,-48.8245 L -14.5212,-48.7916 L -13.9108,-48.9552 L -13.381,-49.2993 L -12.9542,-49.8477
 L -12.6767,-49.4485 L -12.1857,-49.0513 L -11.5958,-48.8245 L -10.9652,-48.7916 L -10.3548,-48.9552 L -9.82498,-49.2993
 L -9.39788,-49.8477 L -9.12076,-49.4485 L -8.62971,-49.0513 L -8.03982,-48.8245 L -7.8313,-48.7916 z
M -76.6488,-48.9552 L -76.119,-49.2993 L -75.7213,-49.79 L -75.495,-50.3799 L -75.4617,-51.0108 L -75.6252,-51.6213
 L -75.9694,-52.1511 L -76.4604,-52.5487 L -77.0503,-52.7751 L -77.6813,-52.808 L -78.2913,-52.6445 L -78.8212,-52.3003
 L -79.2188,-51.8096 L -79.4452,-51.2197 L -79.4781,-50.5888 L -79.3149,-49.9783 L -78.9708,-49.4485 L -78.4797,-49.0509
 L -77.8898,-48.8245 L -77.2589,-48.7916 z
M -161.739,-48.9552 L -161.209,-49.2993 L -160.812,-49.79 L -160.585,-50.3799 L -160.552,-51.0108 L -160.715,-51.6213
 L -161.06,-52.1511 L -161.551,-52.5487 L -162.14,-52.7751 L -162.771,-52.808 L -163.382,-52.6445 L -163.911,-52.3003
 L -164.309,-51.8096 L -164.535,-51.2197 L -164.568,-50.5888 L -164.405,-49.9783 L -164.061,-49.4485 L -163.57,-49.0509
 L -162.98,-48.8245 L -162.349,-48.7916 z
M -185,-48.8245 L -184.41,-49.0513 L -183.919,-49.4485 L -183.575,-49.9787 L -183.412,-50.5888 L -183.445,-51.2197
 L -183.671,-51.8096 L -184.069,-52.3007 L -184.599,-52.6445 L -185.209,-52.808 L -185.84,-52.7751 L -186.43,-52.5487
 L -186.921,-52.1511 L -187.198,-51.7523 L -187.475,-52.1511 L -187.966,-52.5487 L -188.556,-52.7751 L -189.187,-52.808
 L -189.797,-52.6445 L -190.327,-52.3007 L -190.754,-51.7523 L -191.031,-52.1511 L -191.522,-52.5487 L -192.112,-52.7751
 L -192.743,-52.808 L -193.353,-52.6445 L -193.883,-52.3007 L -194.31,-51.7523 L -194.587,-52.1511 L -195.078,-52.5487
 L -195.668,-52.7751 L -196.299,-52.808 L -196.909,-52.6445 L -197.439,-52.3007 L -197.866,-51.7523 L -198.143,-52.1511
 L -198.634,-52.5487 L -199.224,-52.7751 L -199.855,-52.808 L -200.465,-52.6445 L -200.995,-52.3007 L -201.422,-51.7523
 L -201.699,-52.1511 L -202.19,-52.5487 L -202.78,-52.7751 L -203.411,-52.808 L -204.021,-52.6445 L -204.551,-52.3007
 L -204.978,-51.7523 L -205.255,-52.1511 L -205.746,-52.5487 L -206.336,-52.7751 L -206.967,-52.808 L -207.577,-52.6445
 L -208.107,-52.3007 L -208.534,-51.7523 L -208.812,-52.1511 L -209.302,-52.5487 L -209.892,-52.7751 L -210.523,-52.808
 L -211.134,-52.6445 L -211.663,-52.3007 L -212.09,-51.7523 L -212.368,-52.1511 L -212.858,-52.5487 L -213.448,-52.7751
 L -214.079,-52.808 L -214.69,-52.6445 L -215.219,-52.3007 L -215.646,-51.7523 L -215.924,-52.1511 L -216.414,-52.5487
 L -217.004,-52.7751 L -217.635,-52.808 L -218.246,-52.6445 L -218.775,-52.3007 L -219.202,-51.7523 L -219.48,-52.1511
 L -219.97,-52.5487 L -220.56,-52.7751 L -221.191,-52.808 L -221.801,-52.6445 L -222.331,-52.3007 L -222.729,-51.8096
 L -222.955,-51.2197 L -222.988,-50.5888 L -222.824,-49.9787 L -222.48,-49.4485 L -221.99,-49.0513 L -221.4,-48.8245
 L -220.769,-48.7916 L -220.159,-48.9552 L -219.629,-49.2993 L -219.202,-49.8477 L -218.925,-49.4485 L -218.434,-49.0513
 L -217.844,-48.8245 L -217.213,-48.7916 L -216.603,-48.9552 L -216.073,-49.2993 L -215.646,-49.8477 L -215.369,-49.4485
 L -214.878,-49.0513 L -214.288,-48.8245 L -213.657,-48.7916 L -213.047,-48.9552 L -212.517,-49.2993 L -212.09,-49.8477
 L -211.813,-49.4485 L -211.322,-49.0513 L -210.732,-48.8245 L -210.101,-48.7916 L -209.491,-48.9552 L -208.961,-49.2993
 L -208.534,-49.8477 L -208.257,-49.4485 L -207.766,-49.0513 L -207.176,-48.8245 L -206.545,-48.7916 L -205.935,-48.9552
 L -205.405,-49.2993 L -204.978,-49.8477 L -204.701,-49.4485 L -204.21,-49.0513 L -203.62,-48.8245 L -202.989,-48.7916
 L -202.379,-48.9552 L -201.849,-49.2993 L -201.422,-49.8477 L -201.145,-49.4485 L -200.654,-49.0513 L -200.064,-48.8245
 L -199.433,-48.7916 L -198.823,-48.9552 L -198.293,-49.2993 L -197.866,-49.8477 L -197.589,-49.4485 L -197.098,-49.0513
 L -196.508,-48.8245 L -195.877,-48.7916 L -195.267,-48.9552 L -194.737,-49.2993 L -194.31,-49.8477 L -194.033,-49.4485
 L -193.542,-49.0513 L -192.952,-48.8245 L -192.321,-48.7916 L -191.711,-48.9552 L -191.181,-49.2993 L -190.754,-49.8477
 L -190.477,-49.4485 L -189.986,-49.0513 L -189.396,-48.8245 L -188.765,-48.7916 L -188.155,-48.9552 L -187.625,-49.2993
 L -187.198,-49.8477 L -186.921,-49.4485 L -186.43,-49.0513 L -185.84,-48.8245 L -185.631,-48.7916 z
M -74.1087,-41.3351 L -73.5788,-41.6792 L -73.1812,-42.1703 L -72.9548,-42.7598 L -72.9219,-43.3908 L -73.0855,-44.0012
 L -73.4292,-44.531 L -73.9203,-44.9287 L -74.5102,-45.155 L -75.1411,-45.1879 L -75.7512,-45.0244 L -76.2814,-44.6806
 L -76.6787,-44.1896 L -76.9054,-43.5997 L -76.9383,-42.9687 L -76.7748,-42.3587 L -76.4306,-41.8285 L -75.9396,-41.4312
 L -75.3501,-41.2045 L -74.7191,-41.1715 z
M -159.199,-41.3351 L -158.669,-41.6792 L -158.271,-42.1703 L -158.045,-42.7598 L -158.012,-43.3908 L -158.176,-44.0012
 L -158.519,-44.531 L -159.01,-44.9287 L -159.6,-45.155 L -160.231,-45.1879 L -160.841,-45.0244 L -161.372,-44.6806
 L -161.769,-44.1896 L -161.996,-43.5997 L -162.028,-42.9687 L -161.865,-42.3587 L -161.521,-41.8285 L -161.03,-41.4312
 L -160.44,-41.2045 L -159.809,-41.1715 z
M -185,-23.4245 L -184.41,-23.6513 L -183.919,-24.0485 L -183.575,-24.5787 L -183.412,-25.1888 L -183.445,-25.8197
 L -183.671,-26.4096 L -184.069,-26.9007 L -184.599,-27.2445 L -185.209,-27.408 L -185.84,-27.3751 L -186.43,-27.1487
 L -186.921,-26.7511 L -187.198,-26.3523 L -187.475,-26.7511 L -187.966,-27.1487 L -188.556,-27.3751 L -189.187,-27.408
 L -189.797,-27.2445 L -190.327,-26.9007 L -190.754,-26.3523 L -191.031,-26.7511 L -191.522,-27.1487 L -192.112,-27.3751
 L -192.743,-27.408 L -193.353,-27.2445 L -193.883,-26.9007 L -194.31,-26.3523 L -194.587,-26.7511 L -195.078,-27.1487
 L -195.668,-27.3751 L -196.299,-27.408 L -196.909,-27.2445 L -197.439,-26.9007 L -197.866,-26.3523 L -198.143,-26.7511
 L -198.634,-27.1487 L -199.224,-27.3751 L -199.855,-27.408 L -200.465,-27.2445 L -200.995,-26.9007 L -201.422,-26.3523
 L -201.699,-26.7511 L -202.19,-27.1487 L -202.78,-27.3751 L -203.411,-27.408 L -204.021,-27.2445 L -204.551,-26.9007
 L -204.978,-26.3523 L -205.255,-26.7511 L -205.746,-27.1487 L -206.336,-27.3751 L -206.967,-27.408 L -207.577,-27.2445
 L -208.107,-26.9007 L -208.534,-26.3523 L -208.812,-26.7511 L -209.302,-27.1487 L -209.892,-27.3751 L -210.523,-27.408
 L -211.134,-27.2445 L -211.663,-26.9007 L -212.09,-26.3523 L -212.368,-26.7511 L -212.858,-27.1487 L -213.448,-27.3751
 L -214.079,-27.408 L -214.69,-27.2445 L -215.219,-26.9007 L -215.646,-26.3523 L -215.924,-26.7511 L -216.414,-27.1487
 L -217.004,-27.3751 L -217.635,-27.408 L -218.246,-27.2445 L -218.775,-26.9007 L -219.202,-26.3523 L -219.48,-26.7511
 L -219.97,-27.1487 L -220.56,-27.3751 L -221.191,-27.408 L -221.801,-27.2445 L -222.331,-26.9007 L -222.729,-26.4096
 L -222.955,-25.8197 L -222.988,-25.1888 L -222.824,-24.5787 L -222.48,-24.0485 L -221.99,-23.6513 L -221.4,-23.4245
 L -220.769,-23.3916 L -220.159,-23.5552 L -219.629,-23.8993 L -219.202,-24.4477 L -218.925,-24.0485 L -218.434,-23.6513
 L -217.844,-23.4245 L -217.213,-23.3916 L -216.603,-23.5552 L -216.073,-23.8993 L -215.646,-24.4477 L -215.369,-24.0485
 L -214.878,-23.6513 L -214.288,-23.4245 L -213.657,-23.3916 L -213.047,-23.5552 L -212.517,-23.8993 L -212.09,-24.4477
 L -211.813,-24.0485 L -211.322,-23.6513 L -210.732,-23.4245 L -210.101,-23.3916 L -209.491,-23.5552 L -208.961,-23.8993
 L -208.534,-24.4477 L -208.257,-24.0485 L -207.766,-23.6513 L -207.176,-23.4245 L -206.545,-23.3916 L -205.935,-23.5552
 L -205.405,-23.8993 L -204.978,-24.4477 L -204.701,-24.0485 L -204.21,-23.6513 L -203.62,-23.4245 L -202.989,-23.3916
 L -202.379,-23.5552 L -201.849,-23.8993 L -201.422,-24.4477 L -201.145,-24.0485 L -200.654,-23.6513 L -200.064,-23.4245
 L -199.433,-23.3916 L -198.823,-23.5552 L -198.293,-23.8993 L -197.866,-24.4477 L -197.589,-24.0485 L -197.098,-23.6513
 L -196.508,-23.4245 L -195.877,-23.3916 L -195.267,-23.5552 L -194.737,-23.8993 L -194.31,-24.4477 L -194.033,-24.0485
 L -193.542,-23.6513 L -192.952,-23.4245 L -192.321,-23.3916 L -191.711,-23.5552 L -191.181,-23.8993 L -190.754,-24.4477
 L -190.477,-24.0485 L -189.986,-23.6513 L -189.396,-23.4245 L -188.765,-23.3916 L -188.155,-23.5552 L -187.625,-23.8993
 L -187.198,-24.4477 L -186.921,-24.0485 L -186.43,-23.6513 L -185.84,-23.4245 L -185.631,-23.3916 z
M 43.5997,-5.645 L 44.1896,-5.87135 L 44.6806,-6.269 L 45.0244,-6.79881 L 45.1879,-7.40924 L 45.155,-8.04021
 L 44.9287,-8.62971 L 44.531,-9.12076 L 44.0012,-9.46493 L 43.3908,-9.62848 L 42.7598,-9.59554 L 42.1703,-9.36881
 L 41.6792,-8.97155 L 41.3351,-8.44135 L 41.1715,-7.8313 L 41.2045,-7.20034 L 41.4312,-6.61045 L 41.8285,-6.11939
 L 42.3587,-5.77562 L 42.9687,-5.61206 z
M -110.07,-5.64462 L -109.481,-5.87096 L -108.989,-6.26861 L -108.645,-6.79842 L -108.482,-7.40885 L -108.515,-8.03982
 L -108.741,-8.62932 L -109.139,-9.12037 L -109.669,-9.46454 L -110.279,-9.62809 L -110.91,-9.59515 L -111.5,-9.36842
 L -111.991,-8.97116 L -112.335,-8.44096 L -112.498,-7.83092 L -112.465,-7.19995 L -112.239,-6.61006 L -111.841,-6.11901
 L -111.311,-5.77523 L -110.701,-5.61167 z
M 41.0595,1.97507 L 41.6494,1.74873 L 42.1405,1.35108 L 42.4846,0.821268 L 42.6482,0.21084 L 42.6148,-0.420129
 L 42.3885,-1.01002 L 41.9908,-1.50068 L 41.461,-1.84485 L 40.851,-2.0084 L 40.22,-1.97546 L 39.6301,-1.74912
 L 39.1391,-1.35147 L 38.7949,-0.821655 L 38.6318,-0.211227 L 38.6647,0.419742 L 38.891,1.00963 L 39.2887,1.5003
 L 39.8185,1.84446 L 40.4285,2.00802 z
M -161.739,1.84485 L -161.209,1.50068 L -160.812,1.01002 L -160.585,0.420129 L -160.552,-0.21084 L -160.715,-0.821268
 L -161.06,-1.35108 L -161.551,-1.74873 L -162.14,-1.97507 L -162.771,-2.00802 L -163.382,-1.84446 L -163.911,-1.5003
 L -164.309,-1.00963 L -164.535,-0.419742 L -164.568,0.211227 L -164.405,0.821655 L -164.061,1.35147 L -163.57,1.74912
 L -162.98,1.97546 L -162.349,2.0084 z
M -136.339,1.84485 L -135.809,1.50068 L -135.412,1.01002 L -135.185,0.420129 L -135.152,-0.21084 L -135.315,-0.821268
 L -135.66,-1.35108 L -136.151,-1.74873 L -136.74,-1.97507 L -137.371,-2.00802 L -137.982,-1.84446 L -138.511,-1.5003
 L -138.909,-1.00963 L -139.135,-0.419742 L -139.168,0.211227 L -139.005,0.821655 L -138.661,1.35147 L -138.17,1.74912
 L -137.58,1.97546 L -136.949,2.0084 z
M -98.239,1.84485 L -97.7092,1.50068 L -97.3115,1.01002 L -97.0852,0.420129 L -97.0518,-0.21084 L -97.2154,-0.821268
 L -97.5595,-1.35108 L -98.0506,-1.74873 L -98.6405,-1.97507 L -99.2715,-2.00802 L -99.8815,-1.84446 L -100.411,-1.5003
 L -100.809,-1.00963 L -101.035,-0.419742 L -101.068,0.211227 L -100.905,0.821655 L -100.561,1.35147 L -100.07,1.74912
 L -99.48,1.97546 L -98.849,2.0084 z
M -107.53,1.97507 L -106.94,1.74873 L -106.449,1.35108 L -106.105,0.821268 L -105.942,0.21084 L -105.975,-0.419742
 L -106.201,-1.00963 L -106.599,-1.5003 L -107.129,-1.84446 L -107.739,-2.00802 L -108.37,-1.97507 L -108.96,-1.74873
 L -109.451,-1.35108 L -109.795,-0.821268 L -109.958,-0.21084 L -109.925,0.419742 L -109.699,1.00963 L -109.301,1.5003
 L -108.771,1.84446 L -108.161,2.00802 z
M -7.20072,1.97507 L -6.61084,1.74834 L -6.11978,1.35108 L -5.77562,0.82088 L -5.61245,0.21084 L -5.64539,-0.419742
 L -5.87173,-1.00963 L -6.26938,-1.50068 L -6.7992,-1.84446 L -7.40924,-2.00802 L -8.04021,-1.97507 L -8.63009,-1.74873
 L -9.12115,-1.35108 L -9.39826,-0.952267 L -9.67577,-1.35108 L -10.1668,-1.74873 L -10.7567,-1.97507 L -11.3877,-2.00802
 L -11.9977,-1.84446 L -12.5275,-1.50068 L -12.9546,-0.952267 L -13.2318,-1.35108 L -13.7228,-1.74873 L -14.3127,-1.97507
 L -14.9437,-2.00802 L -15.5537,-1.84446 L -16.0835,-1.50068 L -16.5106,-0.952267 L -16.7877,-1.35108 L -17.2788,-1.74873
 L -17.8687,-1.97507 L -18.4996,-2.00802 L -19.1097,-1.84446 L -19.6395,-1.50068 L -20.0666,-0.952267 L -20.3437,-1.35108
 L -20.8348,-1.74873 L -21.4247,-1.97507 L -22.0556,-2.00802 L -22.6657,-1.84446 L -23.1959,-1.50068 L -23.6226,-0.952267
 L -23.8997,-1.35108 L -24.3908,-1.74873 L -24.9806,-1.97507 L -25.6112,-2.00802 L -26.2213,-1.84446 L -26.7515,-1.50068
 L -27.1782,-0.952267 L -27.4553,-1.35108 L -27.9464,-1.74873 L -28.5362,-1.97507 L -29.1672,-2.00802 L -29.7773,-1.84446
 L -30.3075,-1.50068 L -30.7342,-0.952267 L -31.0117,-1.35108 L -31.5023,-1.74873 L -32.0922,-1.97507 L -32.7232,-2.00802
 L -33.3336,-1.84446 L -33.8634,-1.50068 L -34.2902,-0.952267 L -34.5677,-1.35108 L -35.0583,-1.74873 L -35.6482,-1.97507
 L -36.2792,-2.00802 L -36.8896,-1.84446 L -37.4194,-1.50068 L -37.8461,-0.952267 L -38.1236,-1.35108 L -38.6143,-1.74873
 L -39.2042,-1.97507 L -39.8352,-2.00802 L -40.4456,-1.84446 L -40.9754,-1.50068 L -41.4021,-0.952267 L -41.6796,-1.35108
 L -42.1703,-1.74873 L -42.7602,-1.97507 L -43.3908,-2.00802 L -44.0012,-1.84446 L -44.531,-1.50068 L -44.9287,-1.00963
 L -45.155,-0.419742 L -45.1879,0.21084 L -45.0244,0.82088 L -44.6802,1.35108 L -44.1896,1.74834 L -43.5997,1.97507
 L -42.9691,2.00802 L -42.3587,1.84446 L -41.8288,1.5003 L -41.4021,0.95188 L -41.1246,1.35108 L -40.634,1.74834
 L -40.0441,1.97507 L -39.4131,2.00802 L -38.8027,1.84446 L -38.2729,1.5003 L -37.8461,0.95188 L -37.5686,1.35108
 L -37.0776,1.74834 L -36.4881,1.97507 L -35.8571,2.00802 L -35.2467,1.84446 L -34.7169,1.5003 L -34.2902,0.95188
 L -34.0127,1.35108 L -33.5216,1.74834 L -32.9321,1.97507 L -32.3011,2.00802 L -31.6907,1.84446 L -31.1609,1.5003
 L -30.7342,0.95188 L -30.4567,1.35108 L -29.9656,1.74834 L -29.3761,1.97507 L -28.7451,2.00802 L -28.1347,1.84446
 L -27.6049,1.5003 L -27.1782,0.95188 L -26.9007,1.35108 L -26.4096,1.74834 L -25.8201,1.97507 L -25.1895,2.00802
 L -24.5791,1.84446 L -24.0493,1.5003 L -23.6226,0.95188 L -23.3451,1.35108 L -22.854,1.74834 L -22.2645,1.97507
 L -21.6336,2.00802 L -21.0231,1.84446 L -20.4933,1.5003 L -20.0666,0.95188 L -19.7891,1.35108 L -19.298,1.74834
 L -18.7082,1.97507 L -18.0776,2.00802 L -17.4672,1.84446 L -16.9373,1.5003 L -16.5106,0.95188 L -16.2331,1.35108
 L -15.7421,1.74834 L -15.1522,1.97507 L -14.5216,2.00802 L -13.9112,1.84446 L -13.3814,1.5003 L -12.9546,0.95188
 L -12.6771,1.35108 L -12.1861,1.74834 L -11.5962,1.97507 L -10.9656,2.00802 L -10.3552,1.84446 L -9.82537,1.5003
 L -9.39826,0.95188 L -9.12115,1.35108 L -8.63009,1.74834 L -8.04021,1.97507 L -7.83169,2.00802 z
M -72.839,1.84485 L -72.3092,1.50068 L -71.9115,1.01002 L -71.6852,0.420129 L -71.6518,-0.21084 L -71.8154,-0.821268
 L -72.1595,-1.35108 L -72.6506,-1.74873 L -73.2405,-1.97507 L -73.8715,-2.00802 L -74.4815,-1.84446 L -75.0113,-1.5003
 L -75.409,-1.00963 L -75.6353,-0.419742 L -75.6682,0.211227 L -75.5051,0.821655 L -75.1609,1.35147 L -74.6699,1.74912
 L -74.08,1.97546 L -73.449,2.0084 z
M 188.781,1.84446 L 189.311,1.5003 L 189.709,1.00963 L 189.935,0.419742 L 189.968,-0.21084 L 189.805,-0.821268
 L 189.461,-1.35108 L 188.969,-1.74873 L 188.38,-1.97507 L 187.749,-2.00802 L 187.139,-1.84446 L 186.609,-1.5003
 L 186.211,-1.00963 L 185.985,-0.419742 L 185.951,0.21084 L 186.115,0.821268 L 186.459,1.35108 L 186.95,1.74873
 L 187.54,1.97507 L 188.171,2.00802 z
M -185,1.97507 L -184.41,1.74834 L -183.919,1.35108 L -183.575,0.82088 L -183.412,0.21084 L -183.445,-0.419742
 L -183.671,-1.00963 L -184.069,-1.50068 L -184.599,-1.84446 L -185.209,-2.00802 L -185.84,-1.97507 L -186.43,-1.74873
 L -186.921,-1.35108 L -187.198,-0.952267 L -187.475,-1.35108 L -187.966,-1.74873 L -188.556,-1.97507 L -189.187,-2.00802
 L -189.797,-1.84446 L -190.327,-1.50068 L -190.754,-0.952267 L -191.031,-1.35108 L -191.522,-1.74873 L -192.112,-1.97507
 L -192.743,-2.00802 L -193.353,-1.84446 L -193.883,-1.50068 L -194.31,-0.952267 L -194.587,-1.35108 L -195.078,-1.74873
 L -195.668,-1.97507 L -196.299,-2.00802 L -196.909,-1.84446 L -197.439,-1.50068 L -197.866,-0.952267 L -198.143,-1.35108
 L -198.634,-1.74873 L -199.224,-1.97507 L -199.855,-2.00802 L -200.465,-1.84446 L -200.995,-1.50068 L -201.422,-0.952267
 L -201.699,-1.35108 L -202.19,-1.74873 L -202.78,-1.97507 L -203.411,-2.00802 L -204.021,-1.84446 L -204.551,-1.50068
 L -204.978,-0.952267 L -205.255,-1.35108 L -205.746,-1.74873 L -206.336,-1.97507 L -206.967,-2.00802 L -207.577,-1.84446
 L -208.107,-1.50068 L -208.534,-0.952267 L -208.812,-1.35108 L -209.302,-1.74873 L -209.892,-1.97507 L -210.523,-2.00802
 L -211.134,-1.84446 L -211.663,-1.50068 L -212.09,-0.952267 L -212.368,-1.35108 L -212.858,-1.74873 L -213.448,-1.97507
 L -214.079,-2.00802 L -214.69,-1.84446 L -215.219,-1.50068 L -215.646,-0.952267 L -215.924,-1.35108 L -216.414,-1.74873
 L -217.004,-1.97507 L -217.635,-2.00802 L -218.246,-1.84446 L -218.775,-1.50068 L -219.202,-0.952267 L -219.48,-1.35108
 L -219.97,-1.74873 L -220.56,-1.97507 L -221.191,-2.00802 L -221.801,-1.84446 L -222.331,-1.50068 L -222.729,-1.00963
 L -222.955,-0.419742 L -222.988,0.21084 L -222.824,0.82088 L -222.48,1.35108 L -221.99,1.74834 L -221.4,1.97507
 L -220.769,2.00802 L -220.159,1.84446 L -219.629,1.5003 L -219.202,0.95188 L -218.925,1.35108 L -218.434,1.74834
 L -217.844,1.97507 L -217.213,2.00802 L -216.603,1.84446 L -216.073,1.5003 L -215.646,0.95188 L -215.369,1.35108
 L -214.878,1.74834 L -214.288,1.97507 L -213.657,2.00802 L -213.047,1.84446 L -212.517,1.5003 L -212.09,0.95188
 L -211.813,1.35108 L -211.322,1.74834 L -210.732,1.97507 L -210.101,2.00802 L -209.491,1.84446 L -208.961,1.5003
 L -208.534,0.95188 L -208.257,1.35108 L -207.766,1.74834 L -207.176,1.97507 L -206.545,2.00802 L -205.935,1.84446
 L -205.405,1.5003 L -204.978,0.95188 L -204.701,1.35108 L -204.21,1.74834 L -203.62,1.97507 L -202.989,2.00802
 L -202.379,1.84446 L -201.849,1.5003 L -201.422,0.95188 L -201.145,1.35108 L -200.654,1.74834 L -200.064,1.97507
 L -199.433,2.00802 L -198.823,1.84446 L -198.293,1.5003 L -197.866,0.95188 L -197.589,1.35108 L -197.098,1.74834
 L -196.508,1.97507 L -195.877,2.00802 L -195.267,1.84446 L -194.737,1.5003 L -194.31,0.95188 L -194.033,1.35108
 L -193.542,1.74834 L -192.952,1.97507 L -192.321,2.00802 L -191.711,1.84446 L -191.181,1.5003 L -190.754,0.95188
 L -190.477,1.35108 L -189.986,1.74834 L -189.396,1.97507 L -188.765,2.00802 L -188.155,1.84446 L -187.625,1.5003
 L -187.198,0.95188 L -186.921,1.35108 L -186.43,1.74834 L -185.84,1.97507 L -185.631,2.00802 z
M 117.661,1.84485 L 118.191,1.50068 L 118.588,1.01002 L 118.815,0.420129 L 118.848,-0.21084 L 118.685,-0.821268
 L 118.34,-1.35108 L 117.849,-1.74873 L 117.26,-1.97507 L 116.629,-2.00802 L 116.018,-1.84446 L 115.489,-1.5003
 L 115.091,-1.00963 L 114.865,-0.419742 L 114.832,0.211227 L 114.995,0.821655 L 115.339,1.35147 L 115.83,1.74912
 L 116.42,1.97546 L 117.051,2.0084 z
M 186.241,9.46454 L 186.771,9.12037 L 187.168,8.62932 L 187.395,8.03982 L 187.428,7.40885 L 187.265,6.79842
 L 186.92,6.26861 L 186.429,5.87096 L 185.84,5.64462 L 185.209,5.61167 L 184.598,5.77523 L 184.069,6.11901
 L 183.671,6.61006 L 183.445,7.19995 L 183.412,7.83092 L 183.575,8.44096 L 183.919,8.97116 L 184.41,9.36842
 L 185,9.59515 L 185.631,9.62809 z
M -159.199,9.46493 L -158.669,9.12076 L -158.271,8.62971 L -158.045,8.04021 L -158.012,7.40924 L -158.176,6.79881
 L -158.519,6.269 L -159.01,5.87135 L -159.6,5.645 L -160.231,5.61206 L -160.841,5.77562 L -161.372,6.11939
 L -161.769,6.61045 L -161.996,7.20034 L -162.028,7.8313 L -161.865,8.44135 L -161.521,8.97155 L -161.03,9.36881
 L -160.44,9.59554 L -159.809,9.62848 z
M -133.799,9.46493 L -133.269,9.12076 L -132.871,8.62971 L -132.645,8.04021 L -132.612,7.40924 L -132.776,6.79881
 L -133.119,6.269 L -133.61,5.87135 L -134.2,5.645 L -134.831,5.61206 L -135.441,5.77562 L -135.972,6.11939
 L -136.369,6.61045 L -136.596,7.20034 L -136.628,7.8313 L -136.465,8.44135 L -136.121,8.97155 L -135.63,9.36881
 L -135.04,9.59554 L -134.409,9.62848 z
M -95.6988,9.46493 L -95.169,9.12076 L -94.7713,8.62971 L -94.545,8.04021 L -94.5121,7.40924 L -94.6756,6.79881
 L -95.0194,6.269 L -95.5104,5.87135 L -96.1003,5.645 L -96.7313,5.61206 L -97.3413,5.77562 L -97.8715,6.11939
 L -98.2688,6.61045 L -98.4955,7.20034 L -98.5285,7.8313 L -98.3649,8.44135 L -98.0208,8.97155 L -97.5297,9.36881
 L -96.9402,9.59554 L -96.3092,9.62848 z
M -70.2988,9.46493 L -69.769,9.12076 L -69.3713,8.62971 L -69.145,8.04021 L -69.1121,7.40924 L -69.2756,6.79881
 L -69.6194,6.269 L -70.1104,5.87135 L -70.7003,5.645 L -71.3313,5.61206 L -71.9413,5.77562 L -72.4715,6.11939
 L -72.8688,6.61045 L -73.0955,7.20034 L -73.1285,7.8313 L -72.9649,8.44135 L -72.6208,8.97155 L -72.1297,9.36881
 L -71.5402,9.59554 L -70.9092,9.62848 z
M 120.201,9.46493 L 120.731,9.12076 L 121.129,8.62971 L 121.355,8.04021 L 121.388,7.40924 L 121.224,6.79881
 L 120.881,6.269 L 120.39,5.87135 L 119.8,5.645 L 119.169,5.61206 L 118.559,5.77562 L 118.028,6.11939
 L 117.631,6.61045 L 117.404,7.20034 L 117.372,7.8313 L 117.535,8.44135 L 117.879,8.97155 L 118.37,9.36881
 L 118.96,9.59554 L 119.591,9.62848 z
M 196,19.755 L 196.59,19.5287 L 197.081,19.131 L 197.424,18.6012 L 197.588,17.9908 L 197.555,17.3598
 L 197.329,16.7703 L 196.931,16.2792 L 196.401,15.9351 L 195.791,15.7715 L 195.16,15.8045 L 194.57,16.0312
 L 194.079,16.4285 L 193.735,16.9587 L 193.572,17.5687 L 193.604,18.1997 L 193.831,18.7896 L 194.228,19.2806
 L 194.759,19.6244 L 195.369,19.7879 z
M 109.64,19.7554 L 110.229,19.529 L 110.72,19.1314 L 111.065,18.6016 L 111.228,17.9911 L 111.195,17.3602
 L 110.968,16.7707 L 110.571,16.2796 L 110.041,15.9355 L 109.431,15.7719 L 108.8,15.8048 L 108.21,16.0316
 L 107.719,16.4288 L 107.375,16.959 L 107.212,17.5691 L 107.245,18.2001 L 107.471,18.7899 L 107.869,19.281
 L 108.398,19.6248 L 109.009,19.7883 z
M 193.46,27.3751 L 194.049,27.1487 L 194.54,26.7511 L 194.885,26.2213 L 195.048,25.6108 L 195.015,24.9799
 L 194.788,24.39 L 194.391,23.8993 L 193.861,23.5552 L 193.251,23.3916 L 192.62,23.4245 L 192.03,23.6509
 L 191.539,24.0485 L 191.195,24.5783 L 191.032,25.1888 L 191.065,25.8197 L 191.291,26.4096 L 191.689,26.9003
 L 192.218,27.2445 L 192.829,27.408 z
M -185,27.3751 L -184.41,27.1483 L -183.919,26.7511 L -183.575,26.2209 L -183.412,25.6108 L -183.445,24.9799
 L -183.671,24.39 L -184.069,23.8989 L -184.599,23.5552 L -185.209,23.3916 L -185.84,23.4245 L -186.43,23.6509
 L -186.921,24.0485 L -187.198,24.4473 L -187.475,24.0485 L -187.966,23.6509 L -188.556,23.4245 L -189.187,23.3916
 L -189.797,23.5552 L -190.327,23.8989 L -190.754,24.4473 L -191.031,24.0485 L -191.522,23.6509 L -192.112,23.4245
 L -192.743,23.3916 L -193.353,23.5552 L -193.883,23.8989 L -194.31,24.4473 L -194.587,24.0485 L -195.078,23.6509
 L -195.668,23.4245 L -196.299,23.3916 L -196.909,23.5552 L -197.439,23.8989 L -197.866,24.4473 L -198.143,24.0485
 L -198.634,23.6509 L -199.224,23.4245 L -199.855,23.3916 L -200.465,23.5552 L -200.995,23.8989 L -201.422,24.4473
 L -201.699,24.0485 L -202.19,23.6509 L -202.78,23.4245 L -203.411,23.3916 L -204.021,23.5552 L -204.551,23.8989
 L -204.978,24.4473 L -205.255,24.0485 L -205.746,23.6509 L -206.336,23.4245 L -206.967,23.3916 L -207.577,23.5552
 L -208.107,23.8989 L -208.534,24.4473 L -208.812,24.0485 L -209.302,23.6509 L -209.892,23.4245 L -210.523,23.3916
 L -211.134,23.5552 L -211.663,23.8989 L -212.09,24.4473 L -212.368,24.0485 L -212.858,23.6509 L -213.448,23.4245
 L -214.079,23.3916 L -214.69,23.5552 L -215.219,23.8989 L -215.646,24.4473 L -215.924,24.0485 L -216.414,23.6509
 L -217.004,23.4245 L -217.635,23.3916 L -218.246,23.5552 L -218.775,23.8989 L -219.202,24.4473 L -219.48,24.0485
 L -219.97,23.6509 L -220.56,23.4245 L -221.191,23.3916 L -221.801,23.5552 L -222.331,23.8989 L -222.729,24.39
 L -222.955,24.9799 L -222.988,25.6108 L -222.824,26.2209 L -222.48,26.7511 L -221.99,27.1483 L -221.4,27.3751
 L -220.769,27.408 L -220.159,27.2445 L -219.629,26.9003 L -219.202,26.3519 L -218.925,26.7511 L -218.434,27.1483
 L -217.844,27.3751 L -217.213,27.408 L -216.603,27.2445 L -216.073,26.9003 L -215.646,26.3519 L -215.369,26.7511
 L -214.878,27.1483 L -214.288,27.3751 L -213.657,27.408 L -213.047,27.2445 L -212.517,26.9003 L -212.09,26.3519
 L -211.813,26.7511 L -211.322,27.1483 L -210.732,27.3751 L -210.101,27.408 L -209.491,27.2445 L -208.961,26.9003
 L -208.534,26.3519 L -208.257,26.7511 L -207.766,27.1483 L -207.176,27.3751 L -206.545,27.408 L -205.935,27.2445
 L -205.405,26.9003 L -204.978,26.3519 L -204.701,26.7511 L -204.21,27.1483 L -203.62,27.3751 L -202.989,27.408
 L -202.379,27.2445 L -201.849,26.9003 L -201.422,26.3519 L -201.145,26.7511 L -200.654,27.1483 L -200.064,27.3751
 L -199.433,27.408 L -198.823,27.2445 L -198.293,26.9003 L -197.866,26.3519 L -197.589,26.7511 L -197.098,27.1483
 L -196.508,27.3751 L -195.877,27.408 L -195.267,27.2445 L -194.737,26.9003 L -194.31,26.3519 L -194.033,26.7511
 L -193.542,27.1483 L -192.952,27.3751 L -192.321,27.408 L -191.711,27.2445 L -191.181,26.9003 L -190.754,26.3519
 L -190.477,26.7511 L -189.986,27.1483 L -189.396,27.3751 L -188.765,27.408 L -188.155,27.2445 L -187.625,26.9003
 L -187.198,26.3519 L -186.921,26.7511 L -186.43,27.1483 L -185.84,27.3751 L -185.631,27.408 z
M 112.18,27.3751 L 112.769,27.1487 L 113.261,26.7511 L 113.605,26.2213 L 113.768,25.6108 L 113.735,24.9803
 L 113.509,24.3904 L 113.111,23.8997 L 112.581,23.5555 L 111.971,23.392 L 111.34,23.4249 L 110.75,23.6513
 L 110.259,24.0489 L 109.915,24.5787 L 109.751,25.1892 L 109.785,25.8197 L 110.011,26.4096 L 110.409,26.9003
 L 110.939,27.2445 L 111.549,27.408 z
M -113.65,52.6224 L -113.072,52.3658 L -112.603,51.943 L -112.287,51.3957 L -112.156,50.7779 L -112.242,50.088
 L -111.763,50.1741 L -111.135,50.1082 L -110.558,49.8516 L -110.089,49.4284 L -109.773,48.8811 L -109.641,48.2633
 L -109.727,47.5738 L -109.249,47.6599 L -108.621,47.5936 L -108.044,47.337 L -107.574,46.9142 L -107.258,46.3669
 L -107.127,45.7488 L -107.213,45.0593 L -106.735,45.1453 L -106.106,45.079 L -105.529,44.8225 L -105.06,44.3996
 L -104.744,43.8524 L -104.613,43.2342 L -104.699,42.5447 L -104.22,42.6307 L -103.592,42.5645 L -103.015,42.3079
 L -102.545,41.885 L -102.229,41.3378 L -102.098,40.72 L -102.184,40.0305 L -101.705,40.1165 L -101.078,40.0503
 L -100.5,39.7937 L -100.031,39.3709 L -99.7148,38.8236 L -99.5835,38.2054 L -99.6695,37.5159 L -99.1912,37.602
 L -98.563,37.5357 L -97.9859,37.2791 L -97.5165,36.8563 L -97.2003,36.309 L -97.0693,35.6908 L -97.1553,35.0014
 L -96.6767,35.0874 L -96.0484,35.0211 L -95.4709,34.7645 L -95.002,34.3417 L -94.6861,33.7944 L -94.5547,33.1767
 L -94.6407,32.4872 L -94.1621,32.5732 L -93.5342,32.5065 L -92.9567,32.25 L -92.4874,31.8275 L -92.1715,31.2799
 L -92.0401,30.6621 L -92.1262,29.9726 L -91.6479,30.0586 L -91.0196,29.9924 L -90.4422,29.7354 L -89.9728,29.3129
 L -89.6569,28.7657 L -89.5255,28.1475 L -89.6116,27.4576 L -89.1333,27.5441 L -88.5051,27.4778 L -87.9276,27.2208
 L -87.757,27.0968 L -87.3342,26.6274 L -87.0772,26.05 L -87.011,25.4217 L -87.1424,24.8035 L -87.4586,24.2567
 L -87.928,23.8338 L -88.5051,23.5769 L -89.1337,23.511 L -89.7511,23.6424 L -90.2984,23.9582 L -90.7212,24.4276
 L -90.9782,25.0047 L -91.0444,25.6329 L -90.9584,26.1112 L -91.4363,26.0252 L -92.0649,26.0914 L -92.642,26.3484
 L -93.1114,26.7712 L -93.4272,27.3181 L -93.5586,27.9359 L -93.473,28.6258 L -93.9509,28.5397 L -94.5795,28.6056
 L -95.1566,28.863 L -95.6259,29.2858 L -95.9418,29.8327 L -96.0732,30.4505 L -95.9876,31.1403 L -96.4654,31.0543
 L -97.0937,31.1202 L -97.6708,31.3772 L -98.1405,31.8004 L -98.456,32.3473 L -98.5878,32.965 L -98.5017,33.6549
 L -98.98,33.5685 L -99.6083,33.6348 L -100.185,33.8917 L -100.655,34.3146 L -100.971,34.8618 L -101.102,35.4796
 L -101.016,36.1691 L -101.494,36.0831 L -102.123,36.1493 L -102.7,36.4063 L -103.169,36.8291 L -103.485,37.376
 L -103.617,37.9942 L -103.531,38.6837 L -104.009,38.5976 L -104.637,38.6635 L -105.215,38.9209 L -105.684,39.3437
 L -105.999,39.8906 L -106.132,40.5088 L -106.045,41.1983 L -106.523,41.1122 L -107.152,41.1781 L -107.729,41.4351
 L -108.198,41.8579 L -108.514,42.4052 L -108.646,43.023 L -108.56,43.7124 L -109.038,43.6268 L -109.666,43.6927
 L -110.243,43.9496 L -110.713,44.3725 L -111.029,44.9197 L -111.16,45.5375 L -111.074,46.227 L -111.552,46.1414
 L -112.18,46.2069 L -112.758,46.4642 L -113.227,46.8871 L -113.543,47.4343 L -113.675,48.0521 L -113.589,48.7416
 L -114.067,48.6556 L -114.695,48.7214 L -115.272,48.9784 L -115.741,49.4012 L -116.057,49.9485 L -116.189,50.5663
 L -116.123,51.1945 L -115.866,51.7716 L -115.443,52.241 L -114.896,52.5569 L -114.278,52.6883 z
M 86.7796,47.6952 L 87.3695,47.4684 L 87.8605,47.0712 L 88.2047,46.541 L 88.3679,45.9309 L 88.3349,45.2999
 L 88.1086,44.7101 L 87.7109,44.219 L 87.1811,43.8752 L 86.5711,43.7117 L 85.9401,43.7446 L 85.3502,43.971
 L 84.8592,44.3686 L 84.582,44.7674 L 84.3045,44.3686 L 83.8135,43.971 L 83.2236,43.7446 L 82.5926,43.7117
 L 81.9826,43.8752 L 81.4528,44.219 L 81.0257,44.7674 L 80.7486,44.3686 L 80.2575,43.971 L 79.6676,43.7446
 L 79.0366,43.7117 L 78.4266,43.8752 L 77.8968,44.219 L 77.4697,44.7674 L 77.1926,44.3686 L 76.7015,43.971
 L 76.1116,43.7446 L 75.4807,43.7117 L 74.8706,43.8752 L 74.3408,44.219 L 73.9137,44.7674 L 73.6366,44.3686
 L 73.1455,43.971 L 72.5556,43.7446 L 71.9247,43.7117 L 71.3146,43.8752 L 70.7844,44.219 L 70.3577,44.7674
 L 70.0806,44.3686 L 69.5896,43.971 L 68.9997,43.7446 L 68.3687,43.7117 L 67.7587,43.8752 L 67.2285,44.219
 L 66.8017,44.7674 L 66.5246,44.3686 L 66.0336,43.971 L 65.4437,43.7446 L 64.8127,43.7117 L 64.2027,43.8752
 L 63.6725,44.219 L 63.2458,44.7674 L 62.9682,44.3686 L 62.4776,43.971 L 61.8877,43.7446 L 61.2567,43.7117
 L 60.6463,43.8752 L 60.1165,44.219 L 59.6898,44.7674 L 59.4123,44.3686 L 58.9216,43.971 L 58.3317,43.7446
 L 57.7007,43.7117 L 57.0903,43.8752 L 56.5605,44.219 L 56.1338,44.7674 L 55.8563,44.3686 L 55.3656,43.971
 L 54.7757,43.7446 L 54.1448,43.7117 L 53.5343,43.8752 L 53.0045,44.219 L 52.5778,44.7674 L 52.3003,44.3686
 L 51.8096,43.971 L 51.2197,43.7446 L 50.5892,43.7117 L 49.9787,43.8752 L 49.4489,44.219 L 49.0513,44.7101
 L 48.8249,45.2999 L 48.792,45.9309 L 48.9555,46.541 L 49.2997,47.0712 L 49.7904,47.4684 L 50.3803,47.6952
 L 51.0108,47.7281 L 51.6213,47.5645 L 52.1511,47.2204 L 52.5778,46.672 L 52.8553,47.0712 L 53.346,47.4684
 L 53.9359,47.6952 L 54.5668,47.7281 L 55.1773,47.5645 L 55.7071,47.2204 L 56.1338,46.672 L 56.4113,47.0712
 L 56.9023,47.4684 L 57.4918,47.6952 L 58.1228,47.7281 L 58.7332,47.5645 L 59.263,47.2204 L 59.6898,46.672
 L 59.9673,47.0712 L 60.4583,47.4684 L 61.0478,47.6952 L 61.6788,47.7281 L 62.2892,47.5645 L 62.819,47.2204
 L 63.2458,46.672 L 63.5233,47.0712 L 64.0143,47.4684 L 64.6038,47.6952 L 65.2348,47.7281 L 65.8452,47.5645
 L 66.375,47.2204 L 66.8017,46.672 L 67.0792,47.0712 L 67.5703,47.4684 L 68.1598,47.6952 L 68.7908,47.7281
 L 69.4012,47.5645 L 69.931,47.2204 L 70.3577,46.672 L 70.6352,47.0712 L 71.1263,47.4684 L 71.7158,47.6952
 L 72.3467,47.7281 L 72.9572,47.5645 L 73.487,47.2204 L 73.9137,46.672 L 74.1912,47.0712 L 74.6823,47.4684
 L 75.2721,47.6952 L 75.9027,47.7281 L 76.5132,47.5645 L 77.043,47.2204 L 77.4697,46.672 L 77.7472,47.0712
 L 78.2382,47.4684 L 78.8281,47.6952 L 79.4587,47.7281 L 80.0691,47.5645 L 80.599,47.2204 L 81.0257,46.672
 L 81.3032,47.0712 L 81.7942,47.4684 L 82.3841,47.6952 L 83.0147,47.7281 L 83.6251,47.5645 L 84.1549,47.2204
 L 84.582,46.672 L 84.8592,47.0712 L 85.3502,47.4684 L 85.9401,47.6952 L 86.1486,47.7281 z
M 170.599,47.6952 L 171.189,47.4684 L 171.68,47.0712 L 172.024,46.541 L 172.188,45.9309 L 172.155,45.2999
 L 171.928,44.7101 L 171.531,44.219 L 171.001,43.8752 L 170.391,43.7117 L 169.76,43.7446 L 169.17,43.971
 L 168.679,44.3686 L 168.402,44.7674 L 168.124,44.3686 L 167.633,43.971 L 167.043,43.7446 L 166.412,43.7117
 L 165.802,43.8752 L 165.272,44.219 L 164.845,44.7674 L 164.568,44.3686 L 164.077,43.971 L 163.487,43.7446
 L 162.856,43.7117 L 162.246,43.8752 L 161.716,44.219 L 161.289,44.7674 L 161.012,44.3686 L 160.521,43.971
 L 159.931,43.7446 L 159.3,43.7117 L 158.69,43.8752 L 158.161,44.219 L 157.733,44.7674 L 157.456,44.3686
 L 156.965,43.971 L 156.375,43.7446 L 155.744,43.7117 L 155.134,43.8752 L 154.604,44.219 L 154.177,44.7674
 L 153.9,44.3686 L 153.409,43.971 L 152.819,43.7446 L 152.189,43.7117 L 151.579,43.8752 L 151.049,44.219
 L 150.622,44.7674 L 150.345,44.3686 L 149.854,43.971 L 149.264,43.7446 L 148.633,43.7117 L 148.023,43.8752
 L 147.493,44.219 L 147.066,44.7674 L 146.788,44.3686 L 146.298,43.971 L 145.708,43.7446 L 145.077,43.7117
 L 144.466,43.8752 L 143.937,44.219 L 143.51,44.7674 L 143.232,44.3686 L 142.742,43.971 L 142.152,43.7446
 L 141.521,43.7117 L 140.91,43.8752 L 140.381,44.219 L 139.954,44.7674 L 139.676,44.3686 L 139.186,43.971
 L 138.596,43.7446 L 137.965,43.7117 L 137.354,43.8752 L 136.825,44.219 L 136.398,44.7674 L 136.12,44.3686
 L 135.63,43.971 L 135.04,43.7446 L 134.409,43.7117 L 133.799,43.8752 L 133.269,44.219 L 132.871,44.7101
 L 132.645,45.2999 L 132.612,45.9309 L 132.776,46.541 L 133.12,47.0712 L 133.61,47.4684 L 134.2,47.6952
 L 134.831,47.7281 L 135.441,47.5645 L 135.971,47.2204 L 136.398,46.672 L 136.675,47.0712 L 137.166,47.4684
 L 137.756,47.6952 L 138.387,47.7281 L 138.997,47.5645 L 139.527,47.2204 L 139.954,46.672 L 140.231,47.0712
 L 140.722,47.4684 L 141.312,47.6952 L 141.943,47.7281 L 142.553,47.5645 L 143.083,47.2204 L 143.51,46.672
 L 143.787,47.0712 L 144.278,47.4684 L 144.868,47.6952 L 145.499,47.7281 L 146.109,47.5645 L 146.639,47.2204
 L 147.066,46.672 L 147.343,47.0712 L 147.834,47.4684 L 148.424,47.6952 L 149.055,47.7281 L 149.665,47.5645
 L 150.195,47.2204 L 150.622,46.672 L 150.899,47.0712 L 151.39,47.4684 L 151.98,47.6952 L 152.61,47.7281
 L 153.221,47.5645 L 153.751,47.2204 L 154.177,46.672 L 154.455,47.0712 L 154.946,47.4684 L 155.535,47.6952
 L 156.166,47.7281 L 156.777,47.5645 L 157.307,47.2204 L 157.733,46.672 L 158.011,47.0712 L 158.502,47.4684
 L 159.092,47.6952 L 159.722,47.7281 L 160.333,47.5645 L 160.863,47.2204 L 161.289,46.672 L 161.567,47.0712
 L 162.058,47.4684 L 162.648,47.6952 L 163.278,47.7281 L 163.889,47.5645 L 164.419,47.2204 L 164.845,46.672
 L 165.123,47.0712 L 165.614,47.4684 L 166.204,47.6952 L 166.834,47.7281 L 167.445,47.5645 L 167.975,47.2204
 L 168.402,46.672 L 168.679,47.0712 L 169.17,47.4684 L 169.76,47.6952 L 169.968,47.7281 z
M -185,52.7751 L -184.41,52.5483 L -183.919,52.1511 L -183.575,51.6209 L -183.412,51.0108 L -183.445,50.3799
 L -183.671,49.79 L -184.069,49.2989 L -184.599,48.9552 L -185.209,48.7916 L -185.84,48.8245 L -186.43,49.0509
 L -186.921,49.4485 L -187.198,49.8473 L -187.475,49.4485 L -187.966,49.0509 L -188.556,48.8245 L -189.187,48.7916
 L -189.797,48.9552 L -190.327,49.2989 L -190.754,49.8473 L -191.031,49.4485 L -191.522,49.0509 L -192.112,48.8245
 L -192.743,48.7916 L -193.353,48.9552 L -193.883,49.2989 L -194.31,49.8473 L -194.587,49.4485 L -195.078,49.0509
 L -195.668,48.8245 L -196.299,48.7916 L -196.909,48.9552 L -197.439,49.2989 L -197.866,49.8473 L -198.143,49.4485
 L -198.634,49.0509 L -199.224,48.8245 L -199.855,48.7916 L -200.465,48.9552 L -200.995,49.2989 L -201.422,49.8473
 L -201.699,49.4485 L -202.19,49.0509 L -202.78,48.8245 L -203.411,48.7916 L -204.021,48.9552 L -204.551,49.2989
 L -204.978,49.8473 L -205.255,49.4485 L -205.746,49.0509 L -206.336,48.8245 L -206.967,48.7916 L -207.577,48.9552
 L -208.107,49.2989 L -208.534,49.8473 L -208.812,49.4485 L -209.302,49.0509 L -209.892,48.8245 L -210.523,48.7916
 L -211.134,48.9552 L -211.663,49.2989 L -212.09,49.8473 L -212.368,49.4485 L -212.858,49.0509 L -213.448,48.8245
 L -214.079,48.7916 L -214.69,48.9552 L -215.219,49.2989 L -215.646,49.8473 L -215.924,49.4485 L -216.414,49.0509
 L -217.004,48.8245 L -217.635,48.7916 L -218.246,48.9552 L -218.775,49.2989 L -219.202,49.8473 L -219.48,49.4485
 L -219.97,49.0509 L -220.56,48.8245 L -221.191,48.7916 L -221.801,48.9552 L -222.331,49.2989 L -222.729,49.79
 L -222.955,50.3799 L -222.988,51.0108 L -222.824,51.6209 L -222.48,52.1511 L -221.99,52.5483 L -221.4,52.7751
 L -220.769,52.808 L -220.159,52.6445 L -219.629,52.3003 L -219.202,51.7519 L -218.925,52.1511 L -218.434,52.5483
 L -217.844,52.7751 L -217.213,52.808 L -216.603,52.6445 L -216.073,52.3003 L -215.646,51.7519 L -215.369,52.1511
 L -214.878,52.5483 L -214.288,52.7751 L -213.657,52.808 L -213.047,52.6445 L -212.517,52.3003 L -212.09,51.7519
 L -211.813,52.1511 L -211.322,52.5483 L -210.732,52.7751 L -210.101,52.808 L -209.491,52.6445 L -208.961,52.3003
 L -208.534,51.7519 L -208.257,52.1511 L -207.766,52.5483 L -207.176,52.7751 L -206.545,52.808 L -205.935,52.6445
 L -205.405,52.3003 L -204.978,51.7519 L -204.701,52.1511 L -204.21,52.5483 L -203.62,52.7751 L -202.989,52.808
 L -202.379,52.6445 L -201.849,52.3003 L -201.422,51.7519 L -201.145,52.1511 L -200.654,52.5483 L -200.064,52.7751
 L -199.433,52.808 L -198.823,52.6445 L -198.293,52.3003 L -197.866,51.7519 L -197.589,52.1511 L -197.098,52.5483
 L -196.508,52.7751 L -195.877,52.808 L -195.267,52.6445 L -194.737,52.3003 L -194.31,51.7519 L -194.033,52.1511
 L -193.542,52.5483 L -192.952,52.7751 L -192.321,52.808 L -191.711,52.6445 L -191.181,52.3003 L -190.754,51.7519
 L -190.477,52.1511 L -189.986,52.5483 L -189.396,52.7751 L -188.765,52.808 L -188.155,52.6445 L -187.625,52.3003
 L -187.198,51.7519 L -186.921,52.1511 L -186.43,52.5483 L -185.84,52.7751 L -185.631,52.808 z
M -185,78.1751 L -184.41,77.9483 L -183.919,77.5511 L -183.575,77.0209 L -183.412,76.4108 L -183.445,75.7799
 L -183.671,75.19 L -184.069,74.6989 L -184.599,74.3552 L -185.209,74.1916 L -185.84,74.2245 L -186.43,74.4509
 L -186.921,74.8485 L -187.198,75.2473 L -187.475,74.8485 L -187.966,74.4509 L -188.556,74.2245 L -189.187,74.1916
 L -189.797,74.3552 L -190.327,74.6989 L -190.754,75.2473 L -191.031,74.8485 L -191.522,74.4509 L -192.112,74.2245
 L -192.743,74.1916 L -193.353,74.3552 L -193.883,74.6989 L -194.31,75.2473 L -194.587,74.8485 L -195.078,74.4509
 L -195.668,74.2245 L -196.299,74.1916 L -196.909,74.3552 L -197.439,74.6989 L -197.866,75.2473 L -198.143,74.8485
 L -198.634,74.4509 L -199.224,74.2245 L -199.855,74.1916 L -200.465,74.3552 L -200.995,74.6989 L -201.422,75.2473
 L -201.699,74.8485 L -202.19,74.4509 L -202.78,74.2245 L -203.411,74.1916 L -204.021,74.3552 L -204.551,74.6989
 L -204.978,75.2473 L -205.255,74.8485 L -205.746,74.4509 L -206.336,74.2245 L -206.967,74.1916 L -207.577,74.3552
 L -208.107,74.6989 L -208.534,75.2473 L -208.812,74.8485 L -209.302,74.4509 L -209.892,74.2245 L -210.523,74.1916
 L -211.134,74.3552 L -211.663,74.6989 L -212.09,75.2473 L -212.368,74.8485 L -212.858,74.4509 L -213.448,74.2245
 L -214.079,74.1916 L -214.69,74.3552 L -215.219,74.6989 L -215.646,75.2473 L -215.924,74.8485 L -216.414,74.4509
 L -217.004,74.2245 L -217.635,74.1916 L -218.246,74.3552 L -218.775,74.6989 L -219.202,75.2473 L -219.48,74.8485
 L -219.97,74.4509 L -220.56,74.2245 L -221.191,74.1916 L -221.801,74.3552 L -222.331,74.6989 L -222.729,75.19
 L -222.955,75.7799 L -222.988,76.4108 L -222.824,77.0209 L -222.48,77.5511 L -221.99,77.9483 L -221.4,78.1751
 L -220.769,78.208 L -220.159,78.0445 L -219.629,77.7003 L -219.202,77.1519 L -218.925,77.5511 L -218.434,77.9483
 L -217.844,78.1751 L -217.213,78.208 L -216.603,78.0445 L -216.073,77.7003 L -215.646,77.1519 L -215.369,77.5511
 L -214.878,77.9483 L -214.288,78.1751 L -213.657,78.208 L -213.047,78.0445 L -212.517,77.7003 L -212.09,77.1519
 L -211.813,77.5511 L -211.322,77.9483 L -210.732,78.1751 L -210.101,78.208 L -209.491,78.0445 L -208.961,77.7003
 L -208.534,77.1519 L -208.257,77.5511 L -207.766,77.9483 L -207.176,78.1751 L -206.545,78.208 L -205.935,78.0445
 L -205.405,77.7003 L -204.978,77.1519 L -204.701,77.5511 L -204.21,77.9483 L -203.62,78.1751 L -202.989,78.208
 L -202.379,78.0445 L -201.849,77.7003 L -201.422,77.1519 L -201.145,77.5511 L -200.654,77.9483 L -200.064,78.1751
 L -199.433,78.208 L -198.823,78.0445 L -198.293,77.7003 L -197.866,77.1519 L -197.589,77.5511 L -197.098,77.9483
 L -196.508,78.1751 L -195.877,78.208 L -195.267,78.0445 L -194.737,77.7003 L -194.31,77.1519 L -194.033,77.5511
 L -193.542,77.9483 L -192.952,78.1751 L -192.321,78.208 L -191.711,78.0445 L -191.181,77.7003 L -190.754,77.1519
 L -190.477,77.5511 L -189.986,77.9483 L -189.396,78.1751 L -188.765,78.208 L -188.155,78.0445 L -187.625,77.7003
 L -187.198,77.1519 L -186.921,77.5511 L -186.43,77.9483 L -185.84,78.1751 L -185.631,78.208 z
M -279.146,127 L -276.86,127 L -276.86,126.746 L -279.146,126.746 L -279.146,124.46 L -279.4,124.46
 L -279.4,126.746 L -281.94,126.746 L -281.94,127 L -279.4,127 L -279.4,129.54 L -279.146,129.54
 z
" stroke="black" fill="lightgray" stroke-width="0.5"/></svg>
