<?xml version="1.0" encoding="UTF-8" standalone="no"?>
<svg
   xmlns:dc="http://purl.org/dc/elements/1.1/"
   xmlns:cc="http://creativecommons.org/ns#"
   xmlns:rdf="http://www.w3.org/1999/02/22-rdf-syntax-ns#"
   xmlns:svg="http://www.w3.org/2000/svg"
   xmlns="http://www.w3.org/2000/svg"
   xmlns:sodipodi="http://sodipodi.sourceforge.net/DTD/sodipodi-0.dtd"
   xmlns:inkscape="http://www.inkscape.org/namespaces/inkscape"
   width="81mm"
   height="89mm"
   viewBox="-54 -35 81 89"
   version="1.1"
   id="svg2"
   inkscape:version="0.91 r13725"
   sodipodi:docname="PanelLibLines.svg">
  <metadata
     id="metadata12">
    <rdf:RDF>
      <cc:Work
         rdf:about="">
        <dc:format>image/svg+xml</dc:format>
        <dc:type
           rdf:resource="http://purl.org/dc/dcmitype/StillImage" />
      </cc:Work>
    </rdf:RDF>
  </metadata>
  <defs
     id="defs10" />
  <sodipodi:namedview
     pagecolor="#ffffff"
     bordercolor="#666666"
     borderopacity="1"
     objecttolerance="10"
     gridtolerance="10"
     guidetolerance="10"
     inkscape:pageopacity="0"
     inkscape:pageshadow="2"
     inkscape:window-width="1373"
     inkscape:window-height="834"
     id="namedview8"
     showgrid="false"
     inkscape:zoom="2.0040949"
     inkscape:cx="143.50394"
     inkscape:cy="157.67717"
     inkscape:window-x="0"
     inkscape:window-y="0"
     inkscape:window-maximized="0"
     inkscape:current-layer="svg2" />
  <title
     id="title4">OpenSCAD Model</title>
  <path
     d=" M 7.20266,-29.4288 L 8.0216,-29.9621 L 8.13322,-30.0734 L 8.13322,-32.0035 L 5.77097,-32.0035 L 5.77097,-31.3686  L 7.44761,-31.3686 L 7.44761,-30.3528 L 6.54417,-29.8598 L 5.64423,-29.7431 L 4.97722,-29.8288 L 4.42492,-30.0858  L 3.9951,-30.5121 L 3.71993,-31.0764 L 3.59513,-31.7694 L 3.65792,-32.7612 L 3.87224,-33.3577 L 4.23463,-33.8169  L 4.73615,-34.1181 L 5.35859,-34.2553 L 6.27597,-34.175 L 6.90811,-33.8441 L 7.2949,-33.3499 L 8.0061,-33.5786  L 7.6317,-34.1688 L 7.1174,-34.5692 L 6.25815,-34.8308 L 5.29774,-34.8622 L 4.71018,-34.7704 L 4.19587,-34.5863  L 3.75442,-34.3099 L 3.38855,-33.9433 L 3.11221,-33.4956 L 2.92812,-32.9685 L 2.82967,-31.8105 L 3.01028,-30.8241  L 3.35018,-30.1683 L 3.8455,-29.6606 L 4.47725,-29.3191 L 4.83769,-29.216 L 6.19768,-29.166 z M 0.942966,-29.3478 L 1.69718,-29.8466 L 2.15762,-30.4342 L 2.25103,-30.6067 L 1.64137,-30.9113 L 1.30147,-30.4005  L 0.892194,-30.035 L 0.412766,-29.816 L -0.136426,-29.7431 L -0.768558,-29.8323 L -1.29333,-30.1001 L -1.7092,-30.5427  L -1.98399,-31.1082 L -2.10917,-31.781 L -2.046,-32.7457 L -1.83167,-33.334 L -1.47588,-33.7975 L -0.99335,-34.1119  L -0.389899,-34.2549 L 0.508884,-34.165 L 1.14567,-33.7875 L 1.48906,-33.2736 L 2.20025,-33.5022 L 1.83826,-34.0991  L 1.16001,-34.6018 L 0.45191,-34.8238 L -0.496094,-34.8618 L -1.06466,-34.7669 L -1.56618,-34.5762 L -2.00104,-34.2905  L -2.36032,-33.9181 L -2.62697,-33.4735 L -2.80487,-32.953 L -2.89982,-31.8105 L -2.71921,-30.8241 L -2.28784,-30.0427  L -1.63478,-29.4889 L -0.961569,-29.2222 L -0.773596,-29.1839 L 0.231769,-29.1575 z M -5.85158,-31.6481 L -4.17494,-29.2098 L -3.33701,-29.2098 L -5.41982,-32.1306 L -3.51451,-34.7975 L -4.35284,-34.7975  L -5.85158,-32.6131 L -7.40071,-34.7975 L -8.23903,-34.7975 L -6.28334,-32.1054 L -8.41693,-29.2098 L -7.57861,-29.2098  z M -25.4,-11.1125 L 12.8659,-11.121 L 13.3453,-11.2497 L 13.762,-11.5202 L 26.684,-24.4667 L 26.9096,-24.9093  L 26.9875,-25.4 L 26.9096,-25.8903 L 26.684,-26.3329 L 26.3329,-26.684 L 25.8903,-26.9096 L 25.4,-26.9875  L -25.4,-26.9875 L -25.4,-28.575 L -26.9875,-28.575 L -26.9875,-22.225 L -25.4,-22.225 L -25.4,-23.8125  L 21.5785,-23.8203 L 12.0458,-14.2875 L -25.4,-14.2875 L -25.4,-15.875 L -26.9875,-15.875 L -26.9875,-9.525  L -25.4,-9.525 z M 7.20266,27.7208 L 8.0216,27.1875 L 8.13322,27.0763 L 8.13322,25.1461 L 5.77097,25.1461 L 5.77097,25.781  L 7.44761,25.781 L 7.44761,26.7968 L 6.54417,27.2898 L 5.64423,27.4065 L 4.97722,27.3208 L 4.42492,27.0639  L 3.9951,26.6375 L 3.71993,26.0732 L 3.59513,25.3802 L 3.65792,24.3884 L 3.87224,23.792 L 4.23463,23.3327  L 4.73615,23.0315 L 5.35859,22.8943 L 6.27597,22.9746 L 6.90811,23.3056 L 7.2949,23.7997 L 8.0061,23.571  L 7.6317,22.9808 L 7.1174,22.5804 L 6.25815,22.3188 L 5.29774,22.2874 L 4.71018,22.3793 L 4.19587,22.5634  L 3.75442,22.8397 L 3.38855,23.2063 L 3.11221,23.654 L 2.92812,24.1811 L 2.82967,25.3392 L 3.01028,26.3255  L 3.35018,26.9813 L 3.8455,27.489 L 4.47725,27.8305 L 4.83769,27.9336 L 6.19768,27.9836 z M 0.942966,27.8018 L 1.69718,27.303 L 2.15762,26.7154 L 2.25103,26.543 L 1.64137,26.2383 L 1.30147,26.7491  L 0.892194,27.1146 L 0.412766,27.3336 L -0.136426,27.4065 L -0.768558,27.3173 L -1.29333,27.0495 L -1.7092,26.6069  L -1.98399,26.0414 L -2.10917,25.3686 L -2.046,24.4039 L -1.83167,23.8156 L -1.47588,23.3521 L -0.99335,23.0377  L -0.389899,22.8947 L 0.508884,22.9846 L 1.14567,23.3621 L 1.48906,23.8761 L 2.20025,23.6474 L 1.83826,23.0505  L 1.16001,22.5478 L 0.45191,22.3258 L -0.496094,22.2878 L -1.06466,22.3827 L -1.56618,22.5734 L -2.00104,22.8591  L -2.36032,23.2315 L -2.62697,23.6761 L -2.80487,24.1966 L -2.89982,25.3392 L -2.71921,26.3255 L -2.28784,27.1069  L -1.63478,27.6607 L -0.961569,27.9274 L -0.773596,27.9657 L 0.231769,27.9921 z M -5.85158,25.5015 L -4.17494,27.9398 L -3.33701,27.9398 L -5.41982,25.019 L -3.51451,22.3521 L -4.35284,22.3521  L -5.85158,24.5365 L -7.40071,22.3521 L -8.23903,22.3521 L -6.28334,25.0442 L -8.41693,27.9398 L -7.57861,27.9398  z M -50.5461,50.8 L -48.2602,50.8 L -48.2602,50.5461 L -50.5461,50.5461 L -50.5461,48.2602 L -50.8,48.2602  L -50.8,50.5461 L -53.3398,50.5461 L -53.3398,50.8 L -50.8,50.8 L -50.8,53.3398 L -50.5461,53.3398  z "
     stroke="black"
     fill="lightgray"
     stroke-width="0.5"
     id="path6"
     style="fill:#000000;stroke:#000000;fill-opacity:1;stroke-opacity:1;stroke-width:0.25399999;stroke-miterlimit:4;stroke-dasharray:none" />
</svg>
